<svg id="Layer_1" data-name="Layer 1" xmlns="http://www.w3.org/2000/svg" viewBox="0 0 50 50"><defs><style>.cls-1{fill:none;}.cls-2{fill:#2d6cec;}</style></defs><title>advance</title><rect class="cls-1" width="50" height="50"/><path class="cls-2" d="M47.7,48H45.55V16.95a2.63,2.63,0,0,0-2.63-2.63H38.14a2.63,2.63,0,0,0-2.63,2.63V48H30.08V31a2.63,2.63,0,0,0-2.63-2.63H22.66A2.63,2.63,0,0,0,20,31V48H14.6V39.24A2.63,2.63,0,0,0,12,36.61H7.19a2.63,2.63,0,0,0-2.63,2.63V48H2.3a1,1,0,0,0,0,2H47.7a1,1,0,1,0,0-2Zm-35,0H6.52V39.24a.67.67,0,0,1,.67-.67H12a.67.67,0,0,1,.67.67V48Zm15.48,0H22V31a.67.67,0,0,1,.67-.67h4.79a.67.67,0,0,1,.67.67ZM43.6,48H37.47V16.95a.67.67,0,0,1,.67-.67h4.79a.67.67,0,0,1,.67.67V48Z"/><path class="cls-2" d="M42.92,1a1,1,0,0,0-1-1h-6a1,1,0,0,0,0,2h3.65l-9.65,9.65L26.3,8a1,1,0,0,0-1.38,0L7.36,25.52A1,1,0,0,0,8.74,26.9L25.61,10l3.64,3.64a1,1,0,0,0,1.38,0L41,3.33v3.3a1,1,0,1,0,2,0V1.07S42.92,1,42.92,1Z"/><circle class="cls-2" cx="25" cy="29.62" r="0.98"/></svg>