<svg xmlns="http://www.w3.org/2000/svg" width="9" height="11" viewBox="0 0 9 11">
  <metadata><?xpacket begin="﻿" id="W5M0MpCehiHzreSzNTczkc9d"?>
<x:xmpmeta xmlns:x="adobe:ns:meta/" x:xmptk="Adobe XMP Core 5.6-c138 79.159824, 2016/09/14-01:09:01        ">
   <rdf:RDF xmlns:rdf="http://www.w3.org/1999/02/22-rdf-syntax-ns#">
      <rdf:Description rdf:about=""/>
   </rdf:RDF>
</x:xmpmeta>
                                                                                                    
                                                                                                    
                                                                                                    
                                                                                                    
                                                                                                    
                                                                                                    
                                                                                                    
                                                                                                    
                                                                                                    
                                                                                                    
                                                                                                    
                                                                                                    
                                                                                                    
                                                                                                    
                                                                                                    
                                                                                                    
                                                                                                    
                                                                                                    
                                                                                                    
                                                                                                    
                           
<?xpacket end="w"?></metadata>
<defs>
    <style>
      .cls-1 {
        fill: #bbb;
        fill-rule: evenodd;
      }
    </style>
  </defs>
  <path id="angle-double-down" class="cls-1" d="M274.015,3156.51a0.7,0.7,0,0,0,.957,0l3.825-3.76a0.644,0.644,0,0,0,.2-0.47,0.628,0.628,0,0,0-.2-0.47l-0.647-.61a0.7,0.7,0,0,0-.956,0l-2.7,2.65-2.7-2.65a0.7,0.7,0,0,0-.957,0l-0.647.61a0.627,0.627,0,0,0-.2.47,0.643,0.643,0,0,0,.2.47Zm0.957,5.31a0.7,0.7,0,0,1-.957,0l-3.825-3.76a0.643,0.643,0,0,1-.2-0.47,0.627,0.627,0,0,1,.2-0.47l0.647-.61a0.7,0.7,0,0,1,.957,0l2.7,2.66,2.728-2.66a0.56,0.56,0,0,1,.45-0.19,0.65,0.65,0,0,1,.478.19l0.647,0.61a0.628,0.628,0,0,1,.2.47,0.644,0.644,0,0,1-.2.47Z" transform="translate(-270 -3151)"/>
</svg>
