<svg xmlns="http://www.w3.org/2000/svg" width="8.75" height="10.88" viewBox="0 0 8.75 10.88">
  <metadata><?xpacket begin="﻿" id="W5M0MpCehiHzreSzNTczkc9d"?>
<x:xmpmeta xmlns:x="adobe:ns:meta/" x:xmptk="Adobe XMP Core 5.6-c138 79.159824, 2016/09/14-01:09:01        ">
   <rdf:RDF xmlns:rdf="http://www.w3.org/1999/02/22-rdf-syntax-ns#">
      <rdf:Description rdf:about=""/>
   </rdf:RDF>
</x:xmpmeta>
                                                                                                    
                                                                                                    
                                                                                                    
                                                                                                    
                                                                                                    
                                                                                                    
                                                                                                    
                                                                                                    
                                                                                                    
                                                                                                    
                                                                                                    
                                                                                                    
                                                                                                    
                                                                                                    
                                                                                                    
                                                                                                    
                                                                                                    
                                                                                                    
                                                                                                    
                                                                                                    
                           
<?xpacket end="w"?></metadata>
<defs>
    <style>
      .cls-1 {
        fill: #bbb;
        fill-rule: evenodd;
      }
    </style>
  </defs>
  <path id="angle-double-up" class="cls-1" d="M275.19,2223.27a0.664,0.664,0,0,0-.93,0l-3.719,3.72a0.638,0.638,0,0,0-.191.47,0.632,0.632,0,0,0,.191.46l0.629,0.6a0.664,0.664,0,0,0,.93,0l2.625-2.62,2.625,2.62a0.664,0.664,0,0,0,.93,0l0.629-.6a0.632,0.632,0,0,0,.191-0.46,0.638,0.638,0,0,0-.191-0.47Zm-0.93-5.25a0.664,0.664,0,0,1,.93,0l3.719,3.72a0.638,0.638,0,0,1,.191.47,0.632,0.632,0,0,1-.191.46l-0.629.6a0.664,0.664,0,0,1-.93,0l-2.625-2.62-2.652,2.62a0.541,0.541,0,0,1-.438.19,0.624,0.624,0,0,1-.465-0.19l-0.629-.6a0.632,0.632,0,0,1-.191-0.46,0.638,0.638,0,0,1,.191-0.47Z" transform="translate(-270.344 -2217.84)"/>
</svg>
