<svg id="Layer_1" data-name="Layer 1" xmlns="http://www.w3.org/2000/svg" viewBox="0 0 25 29.09"><defs><style>.cls-1{fill:#1d1d1b;fill-rule:evenodd;}</style></defs><title>apple-music-min</title><path class="cls-1" d="M25,21.34a20.84,20.84,0,0,1-1.89,3.53c-1.23,1.87-3,4.19-5.1,4.21-1.91,0-2.39-1.24-5-1.23S9.9,29.1,8,29.08c-2.14,0-3.78-2.12-5-4C-.44,19.87-.8,13.74,1.31,10.48A7.6,7.6,0,0,1,7.42,6.81c2.27,0,3.7,1.25,5.58,1.25s2.93-1.25,5.56-1.25a7.42,7.42,0,0,1,5.59,2.95A6.39,6.39,0,0,0,25,21.34Z"/><path class="cls-1" d="M16.57,4.72A6.37,6.37,0,0,0,18,0a6.89,6.89,0,0,0-4.45,2.39A5.92,5.92,0,0,0,12.08,7a5.82,5.82,0,0,0,4.48-2.28Z"/></svg>