<svg id="Layer_1" data-name="Layer 1" xmlns="http://www.w3.org/2000/svg" viewBox="0 0 50 39.17"><defs><style>.cls-1{fill:#2d6cec;}</style></defs><title>briefcase</title><path class="cls-1" d="M45.83,8.33H35V4.17A4.17,4.17,0,0,0,30.83,0H19.17A4.17,4.17,0,0,0,15,4.17V8.33H4.17A4.17,4.17,0,0,0,0,12.5V34.17a4.17,4.17,0,0,0,3.33,4.08v.08a.83.83,0,0,0,1.67,0H45a.83.83,0,1,0,1.67,0v-.08A4.17,4.17,0,0,0,50,34.17V12.5A4.17,4.17,0,0,0,45.83,8.33ZM16.67,4.17a2.5,2.5,0,0,1,2.5-2.5H30.83a2.5,2.5,0,0,1,2.5,2.5V8.33H31.67V4.17a.83.83,0,0,0-.83-.83H19.17a.83.83,0,0,0-.83.83V8.33H16.67V4.17ZM20,8.33V5H30V8.33ZM48.33,34.17a2.5,2.5,0,0,1-2.5,2.5H4.17a2.5,2.5,0,0,1-2.5-2.5V12.5A2.5,2.5,0,0,1,4.17,10H45.83a2.5,2.5,0,0,1,2.5,2.5V34.17Z"/><path class="cls-1" d="M27.5,20a.83.83,0,0,0,1.67,0,4.17,4.17,0,0,0-3.33-4.08V15a.83.83,0,0,0-1.67,0v.92a4.17,4.17,0,0,0,0,8.17V29a2.5,2.5,0,0,1-1.67-2.36.83.83,0,0,0-1.67,0,4.17,4.17,0,0,0,3.33,4.08v.92a.83.83,0,0,0,1.67,0v-.92a4.17,4.17,0,0,0,0-8.17V17.64A2.5,2.5,0,0,1,27.5,20Zm-5,0a2.5,2.5,0,0,1,1.67-2.36v4.71A2.5,2.5,0,0,1,22.5,20Zm5,6.67A2.5,2.5,0,0,1,25.83,29V24.31A2.5,2.5,0,0,1,27.5,26.67Z"/></svg>