<svg id="Capa_1" data-name="Capa 1" xmlns="http://www.w3.org/2000/svg" viewBox="0 0 22 19.33"><defs><style>.cls-1{fill:#4482ff;}.cls-2{fill:#fff;}</style></defs><title>cart_active</title><path class="cls-1" d="M8.9.3a.61.61,0,0,0-1-.1L3.1,4.8a.67.67,0,0,0,0,1c.2.2.3.3.5.3a.76.76,0,0,0,.5-.2L9,1.3A.77.77,0,0,0,8.9.3Z" transform="translate(0 0.03)"/><path class="cls-1" d="M18.9,4.8,14.1.2A.78.78,0,0,0,13,1.3l4.8,4.6a1.27,1.27,0,0,0,.6.1.55.55,0,0,0,.5-.3C19.2,5.6,19.2,5.1,18.9,4.8Z" transform="translate(0 0.03)"/><path class="cls-1" d="M20.9,9.3l-.1.6-1.6,8.8a.75.75,0,0,1-.7.6H3.5a.86.86,0,0,1-.7-.6L1.1,9.9,1,9.3,2.4,9l.2.9L4,17.8H18l1.5-7.9.1-.9Z" transform="translate(0 0.03)"/><path class="cls-1" d="M22,5.3V9.2a.68.68,0,0,1-.7.7H.7A.68.68,0,0,1,0,9.2V5.3a.75.75,0,0,1,.7-.7H21.3A.68.68,0,0,1,22,5.3Z" transform="translate(0 0.03)"/><polygon class="cls-1" points="19.5 9.93 18 17.82 4 17.82 2.5 9.93 19.5 9.93"/><path class="cls-2" d="M15.4,10.5l-4.6,4.4a1.42,1.42,0,0,1-.6.2.73.73,0,0,1-.6-.2l-2-2a.92.92,0,0,1-.1-1.1.91.91,0,0,1,1.2,0L10,13.1l4-3.8a.91.91,0,0,1,1.2,0A1,1,0,0,1,15.4,10.5Z" transform="translate(0 0.03)"/></svg>