<svg id="Capa_1" data-name="Capa 1" xmlns="http://www.w3.org/2000/svg" viewBox="0 0 25 21.93"><defs><style>.cls-1{fill:#fff;}</style></defs><title>cart</title><path class="cls-1" d="M10.1.3A.71.71,0,0,0,9,.2L3.5,5.4a.91.91,0,0,0,0,1.2.86.86,0,0,0,.6.3,1.42,1.42,0,0,0,.6-.2l5.5-5.2A1,1,0,0,0,10.1.3Z" transform="translate(0 0.03)"/><path class="cls-1" d="M17.4,12.6a.81.81,0,0,0-1.1.5l-1.1,5c-.1.4.2.8.7,1a1.48,1.48,0,0,0,.7-.1,1,1,0,0,0,.4-.5l1.1-5C17.9,13,17.8,12.7,17.4,12.6Z" transform="translate(0 0.03)"/><path class="cls-1" d="M7,13.5l1.1,5a1,1,0,0,0,.4.5,1.48,1.48,0,0,0,.7.1c.5-.2.8-.6.7-1l-1.1-5a.81.81,0,0,0-1.1-.5C7.3,12.7,7.1,13,7,13.5Z" transform="translate(0 0.03)"/><path class="cls-1" d="M21.5,5.4,16,.2a.91.91,0,0,0-1.2,0,.91.91,0,0,0,0,1.2l5.5,5.2a.73.73,0,0,0,.6.2.86.86,0,0,0,.6-.3A.78.78,0,0,0,21.5,5.4Z" transform="translate(0 0.03)"/><path class="cls-1" d="M22.3,10.2l-1.9,10H4.6l-1.9-10-1.6.3,2,10.7a.85.85,0,0,0,.8.7H21a.85.85,0,0,0,.8-.7l2-10.7Z" transform="translate(0 0.03)"/><path class="cls-1" d="M24.2,5.2H.8A.86.86,0,0,0,0,6v4.4a.79.79,0,0,0,.8.8H24.2a.79.79,0,0,0,.8-.8V6A.86.86,0,0,0,24.2,5.2Zm-.8,4.4H1.6V6.9H23.3l.1,2.7Z" transform="translate(0 0.03)"/></svg>