<svg id="Layer_1" data-name="Layer 1" xmlns="http://www.w3.org/2000/svg" viewBox="0 0 50 50"><defs><style>.cls-1{fill:#2d6cec;}.cls-2{fill:none;}</style></defs><title>cost</title><path class="cls-1" d="M46.68,12.44V2.6A2.6,2.6,0,0,0,44.08,0H40.74a2.6,2.6,0,0,0-2.6,2.6v9.84H0V40H38.14v1.79l3.32,5.8V49a1,1,0,0,0,1.91,0V47.64l3.3-5.77,0,0V40H50V12.44Zm1.41,1.91v23.8H46.68V14.35ZM1.91,38.14V14.35H38.14v23.8Zm42.18,4.4-1.67,2.93-1.67-2.93ZM44.78,11v29.6H40V11Zm0-3.32V9.12H40V7.71Zm0-5.11V5.8H40V2.6a.69.69,0,0,1,.69-.69h3.34A.69.69,0,0,1,44.78,2.6Z"/><path class="cls-1" d="M32.46,21.56H30a1,1,0,1,0,0,1.91h2.49a1,1,0,0,0,0-1.91Z"/><path class="cls-1" d="M17.54,20.15H20a1,1,0,0,0,0-1.91H17.54a1,1,0,0,0,0,1.91Z"/><path class="cls-1" d="M32.46,18.24h-5.8a1,1,0,1,0,0,1.91h5.8a1,1,0,0,0,0-1.91Z"/><path class="cls-1" d="M23.34,20.15a.95.95,0,0,0,1-1,1,1,0,1,0-1.91,0,1,1,0,0,0,.28.68A1,1,0,0,0,23.34,20.15Z"/><path class="cls-1" d="M19.9,22.51a1,1,0,0,0,1,1h5.8a1,1,0,1,0,0-1.91h-5.8A1,1,0,0,0,19.9,22.51Z"/><path class="cls-1" d="M17.54,23.47a.94.94,0,0,0,1-1,1,1,0,0,0-.28-.68,1,1,0,0,0-1.35,0,1,1,0,0,0-.27.67,1,1,0,0,0,.28.68A1,1,0,0,0,17.54,23.47Z"/><path class="cls-1" d="M9.37,19.18v-.81a1,1,0,0,0-1.91,0v.82a4.3,4.3,0,0,0-2.31,1.4,3,3,0,0,0-.69,2.25A3.15,3.15,0,0,0,5.66,25l1.8,1.4v4.26A2.36,2.36,0,0,1,6.05,28.5a1,1,0,1,0-1.91,0,4.28,4.28,0,0,0,3.32,4.16v.63a1,1,0,1,0,1.91,0v-.63a4.3,4.3,0,0,0,2.31-1.4A3,3,0,0,0,12.36,29a3.15,3.15,0,0,0-1.19-2.15l-1.8-1.4V21.19a2.37,2.37,0,0,1,1.41,2.15,1,1,0,1,0,1.91,0A4.28,4.28,0,0,0,9.37,19.18Zm1.1,10a1.09,1.09,0,0,1-.25.82,2.28,2.28,0,0,1-.85.62V27.87l.63.49h0A1.24,1.24,0,0,1,10.47,29.2Zm-3-8V24l-.63-.49h0a1.24,1.24,0,0,1-.47-.84,1.09,1.09,0,0,1,.25-.82A2.3,2.3,0,0,1,7.46,21.19Z"/><path class="cls-1" d="M21.5,28.8a1,1,0,0,0-.09-.65,1,1,0,0,0-1.32-.44,5.53,5.53,0,0,0-2.69,4.5l-.85-.72a1,1,0,0,0-1.43.15.82.82,0,0,0,.1,1.21l2.33,1.95a1,1,0,0,0,.67.25,1,1,0,0,0,.4-.09.93.93,0,0,0,.55-.84c.06-1.72.13-3.85,1.88-4.76A.85.85,0,0,0,21.5,28.8Z"/><path class="cls-1" d="M25.63,31a4.83,4.83,0,0,0-1,.42,2.11,2.11,0,0,1-1.47.39,1.17,1.17,0,0,1-.63-.66.82.82,0,0,0-.69-.49,1.06,1.06,0,0,0-.91.47,1,1,0,0,0-.06,1,3,3,0,0,0,2.31,1.67l.36,0a3,3,0,0,0,1.1-.22,3.29,3.29,0,0,0,.4-.22c.37-.21,1-.56,1.24-.5a.13.13,0,0,1,.09.07.86.86,0,0,0,.76.47h0A1.06,1.06,0,0,0,28,32.9.89.89,0,0,0,28,32,2.09,2.09,0,0,0,25.63,31Z"/><rect class="cls-2" width="50" height="50"/></svg>