<svg id="Layer_1" data-name="Layer 1" xmlns="http://www.w3.org/2000/svg" viewBox="0 0 25 13.95"><defs><style>.cls-1{fill:#e30613;}.cls-2{fill:#f3997b;}.cls-3{fill:#ffed00;}.cls-4{fill:#e6007e;}.cls-5{fill:#f29fc5;}.cls-6{fill:#c8d400;}.cls-7{fill:#e5e99b;}.cls-8{fill:#41c0f0;}.cls-9{fill:#bce4fa;}</style></defs><title>deeser-min</title><rect class="cls-1" y="12.57" width="4.56" height="1.38"/><rect class="cls-1" y="10.77" width="4.56" height="1.38"/><rect class="cls-1" y="8.98" width="4.56" height="1.38"/><rect class="cls-2" y="7.18" width="4.56" height="1.38"/><rect class="cls-2" y="5.39" width="4.56" height="1.38"/><rect class="cls-3" x="5.11" y="12.57" width="4.56" height="1.38"/><rect class="cls-3" x="5.11" y="10.77" width="4.56" height="1.38"/><rect class="cls-3" x="5.11" y="8.98" width="4.56" height="1.38"/><rect class="cls-4" x="10.22" y="12.57" width="4.56" height="1.38"/><rect class="cls-4" x="10.22" y="10.77" width="4.56" height="1.38"/><rect class="cls-4" x="10.22" y="8.98" width="4.56" height="1.38"/><rect class="cls-5" x="10.22" y="7.18" width="4.56" height="1.38"/><rect class="cls-5" x="10.22" y="5.39" width="4.56" height="1.38"/><rect class="cls-5" x="10.22" y="3.59" width="4.56" height="1.38"/><rect class="cls-5" x="10.22" y="1.8" width="4.56" height="1.38"/><rect class="cls-6" x="15.33" y="12.57" width="4.56" height="1.38"/><rect class="cls-6" x="15.33" y="10.77" width="4.56" height="1.38"/><rect class="cls-6" x="15.33" y="8.98" width="4.56" height="1.38"/><rect class="cls-7" x="15.33" y="7.18" width="4.56" height="1.38"/><rect class="cls-7" x="15.33" y="5.39" width="4.56" height="1.38"/><rect class="cls-8" x="20.44" y="12.57" width="4.56" height="1.38"/><rect class="cls-8" x="20.44" y="10.77" width="4.56" height="1.38"/><rect class="cls-8" x="20.44" y="8.98" width="4.56" height="1.38"/><rect class="cls-9" x="20.44" y="7.18" width="4.56" height="1.38"/><rect class="cls-9" x="20.44" y="5.39" width="4.56" height="1.38"/><rect class="cls-9" x="20.44" y="3.59" width="4.56" height="1.38"/><rect class="cls-9" x="20.44" y="1.8" width="4.56" height="1.38"/><rect class="cls-9" x="20.44" width="4.56" height="1.38"/></svg>