<svg id="Layer_1" data-name="Layer 1" xmlns="http://www.w3.org/2000/svg" viewBox="0 0 512 491.99"><defs><style>.cls-1{fill:#fff;}.cls-2{opacity:0.3;}</style></defs><title>down-arrow</title><path class="cls-1" d="M506.76,229.44a18.4,18.4,0,0,0-25.58,0L256.25,449.74,30.87,229.44a18.4,18.4,0,0,0-25.58,0,17.41,17.41,0,0,0,0,25L243,486.82A17.87,17.87,0,0,0,255.81,492a18.64,18.64,0,0,0,12.79-5.17L506.32,254.44a17.05,17.05,0,0,0,.44-25Z" transform="translate(0)"/><g class="cls-2"><path class="cls-1" d="M506.76,5.17a18.4,18.4,0,0,0-25.58,0L256.25,225.48,30.87,5.17a18.4,18.4,0,0,0-25.58,0,17.41,17.41,0,0,0,0,25L243,262.56a17.87,17.87,0,0,0,12.79,5.17,18.64,18.64,0,0,0,12.79-5.17L506.32,30.18a17.05,17.05,0,0,0,.44-25Z" transform="translate(0)"/></g></svg>