<svg xmlns="http://www.w3.org/2000/svg" width="16" height="16" viewBox="0 0 16 16">
  <metadata><?xpacket begin="﻿" id="W5M0MpCehiHzreSzNTczkc9d"?>
<x:xmpmeta xmlns:x="adobe:ns:meta/" x:xmptk="Adobe XMP Core 5.6-c138 79.159824, 2016/09/14-01:09:01        ">
   <rdf:RDF xmlns:rdf="http://www.w3.org/1999/02/22-rdf-syntax-ns#">
      <rdf:Description rdf:about=""/>
   </rdf:RDF>
</x:xmpmeta>
                                                                                                    
                                                                                                    
                                                                                                    
                                                                                                    
                                                                                                    
                                                                                                    
                                                                                                    
                                                                                                    
                                                                                                    
                                                                                                    
                                                                                                    
                                                                                                    
                                                                                                    
                                                                                                    
                                                                                                    
                                                                                                    
                                                                                                    
                                                                                                    
                                                                                                    
                                                                                                    
                           
<?xpacket end="w"?></metadata>
<defs>
    <style>
      .cls-1 {
        fill: #4482ff;
        fill-rule: evenodd;
      }
    </style>
  </defs>
  <path id="download" class="cls-1" d="M562.75,979a0.748,0.748,0,0,0-.75.75V985h-2.75a0.563,0.563,0,0,0-.562.391,0.573,0.573,0,0,0,.125.672l4.75,4.75a0.605,0.605,0,0,0,.875,0l4.75-4.75a0.576,0.576,0,0,0,.125-0.672A0.565,0.565,0,0,0,568.75,985H566v-5.25a0.748,0.748,0,0,0-.75-0.75h-2.5ZM572,990.75a0.748,0.748,0,0,0-.75-0.75h-4.594l-1.531,1.531a1.584,1.584,0,0,1-2.25,0L561.344,990H556.75a0.748,0.748,0,0,0-.75.75v3.5a0.748,0.748,0,0,0,.75.75h14.5a0.748,0.748,0,0,0,.75-0.75v-3.5Zm-3.875,2.75a0.641,0.641,0,1,1-.187-0.437A0.6,0.6,0,0,1,568.125,993.5Zm2,0a0.641,0.641,0,1,1-.187-0.437A0.6,0.6,0,0,1,570.125,993.5Z" transform="translate(-556 -979)"/>
</svg>
