<svg id="Layer_1" data-name="Layer 1" xmlns="http://www.w3.org/2000/svg" viewBox="0 0 50 50"><defs><style>.cls-1{fill:none;}.cls-2{fill:#2d6cec;}</style></defs><title>equipment</title><rect class="cls-1" width="50" height="50"/><path class="cls-2" d="M5.83,28.33a.84.84,0,1,0,0,1.67h0a.84.84,0,1,0,0-1.67Z" transform="translate(0 0)"/><path class="cls-2" d="M9.17,30a.84.84,0,1,0-.84-.83A.83.83,0,0,0,9.17,30Z" transform="translate(0 0)"/><path class="cls-2" d="M12.5,28.33a.83.83,0,1,0,.83.83h0a.79.79,0,0,0-.75-.83Z" transform="translate(0 0)"/><path class="cls-2" d="M15.83,30a.83.83,0,1,0-.83-.83h0a.79.79,0,0,0,.75.83Z" transform="translate(0 0)"/><path class="cls-2" d="M19.17,28.33a.83.83,0,1,0,.83.83h0a.79.79,0,0,0-.75-.83Z" transform="translate(0 0)"/><path class="cls-2" d="M49.17,18.33H8.33V14.17a.79.79,0,0,0-.75-.83H6.67V11.67a2.5,2.5,0,0,1,5,0,4.17,4.17,0,0,0,8.33,0V4.17a.84.84,0,0,0-1.67,0v7.5a2.5,2.5,0,0,1-5,0A4.17,4.17,0,1,0,5,11.26q0,.2,0,.41v1.67H4.17a.79.79,0,0,0-.83.83v4.17H.83a.79.79,0,0,0-.83.83v25a2.46,2.46,0,0,0,2.42,2.5H47.5A2.46,2.46,0,0,0,50,44.25s0-.05,0-.08v-25a.79.79,0,0,0-.74-.84ZM5,15H6.67v3.33H5ZM1.67,20H48.33V31.67H1.67ZM40.83,45h-5V41.67A1.67,1.67,0,0,0,37.5,40V33.33h1.67V40a1.67,1.67,0,0,0,1.67,1.67V45ZM7.5,40V33.33H9.17V40Zm3.33,0V33.33H12.5V40a1.67,1.67,0,0,0,1.67,1.67V45h-5V41.67A1.67,1.67,0,0,0,10.83,40Zm3.33,0V33.33h1.67V40Zm1.67,1.67A1.67,1.67,0,0,0,17.5,40V33.33h1.67V40a1.67,1.67,0,0,0,1.67,1.67V45h-5V41.67Zm5-1.67V33.33H22.5V40Zm1.67,1.67A1.67,1.67,0,0,0,24.17,40V33.33h1.67V40a1.67,1.67,0,0,0,1.67,1.67V45h-5V41.67Zm5-1.67V33.33h1.67V40Zm1.67,1.67A1.67,1.67,0,0,0,30.83,40V33.33H32.5V40a1.67,1.67,0,0,0,1.67,1.67V45h-5Zm5-1.67V33.33h1.67V40Zm6.67,0V33.33H42.5V40ZM1.67,44.17V33.33H5.83V40A1.67,1.67,0,0,0,7.5,41.67V45h-5a.79.79,0,0,1-.83-.83Zm46.67,0a.79.79,0,0,1-.75.83H42.51V41.67A1.67,1.67,0,0,0,44.17,40V33.33h4.17Z" transform="translate(0 0)"/><path class="cls-2" d="M6.67,26.67A1.67,1.67,0,0,0,8.33,25V23.33a1.67,1.67,0,0,0-1.67-1.67H5a1.67,1.67,0,0,0-1.67,1.67h0V25A1.67,1.67,0,0,0,5,26.67H6.67ZM5,23.33H6.67V25H5Z" transform="translate(0 0)"/><path class="cls-2" d="M11.67,26.67h1.67A1.67,1.67,0,0,0,15,25V23.33a1.67,1.67,0,0,0-1.67-1.67H11.67A1.67,1.67,0,0,0,10,23.33h0V25a1.67,1.67,0,0,0,1.67,1.67Zm0-3.33h1.67V25H11.67Z" transform="translate(0 0)"/><path class="cls-2" d="M18.33,26.67H20A1.67,1.67,0,0,0,21.67,25h0V23.33A1.67,1.67,0,0,0,20,21.67H18.33a1.67,1.67,0,0,0-1.67,1.67h0V25a1.67,1.67,0,0,0,1.67,1.67Zm0-3.33H20V25H18.33Z" transform="translate(0 0)"/><path class="cls-2" d="M29.17,30H45.83a.79.79,0,0,0,.83-.83V22.5a.79.79,0,0,0-.75-.83H29.17a.79.79,0,0,0-.83.83v6.67a.79.79,0,0,0,.75.83ZM30,23.33H45v5H43.33v-2.5a.83.83,0,1,0-1.67,0v2.5H40V26.67a.83.83,0,1,0-1.67,0h0v1.67H36.67V27.5a.83.83,0,0,0-1.67,0v.83H33.33v-2.5a.84.84,0,1,0-1.67,0v2.5H30Z" transform="translate(0 0)"/></svg>