<svg id="Layer_1" data-name="Layer 1" xmlns="http://www.w3.org/2000/svg" viewBox="0 0 50 50"><defs><style>.cls-1{fill:none;}.cls-2{fill:#2d6cec;}</style></defs><title>experience</title><rect class="cls-1" width="50" height="50"/><path class="cls-2" d="M49.74,19.53a1.06,1.06,0,0,0-.81-.37h-2.2V7.28a1.48,1.48,0,0,0-1.48-1.48H19.67L17.59,2.35a1.48,1.48,0,0,0-1.27-.72H4.81A1.48,1.48,0,0,0,3.34,3.11V19.16H1.06a1.06,1.06,0,0,0-1,1.22l4.1,27.08a1.07,1.07,0,0,0,1,.91H44.83a1.06,1.06,0,0,0,1-.9L50,20.38A1.06,1.06,0,0,0,49.74,19.53ZM5,3.3H16.22l2.07,3.46a1.48,1.48,0,0,0,1.27.72H45.07V19.16h-.83V15.82H43.4v-2.5h-.83v-2.5H7.51v2.5H6.68v2.5H5.84v3.34H5Zm2.5,14.19H42.56v1.67H7.51ZM8.35,15H41.73v.83H8.35Zm32.55-1.67H9.18v-.83H40.89ZM44.31,46.7H5.69L1.77,20.83H48.23Z"/></svg>