<svg xmlns="http://www.w3.org/2000/svg" width="18" height="11.5" viewBox="0 0 18 11.5">
  <metadata><?xpacket begin="﻿" id="W5M0MpCehiHzreSzNTczkc9d"?>
<x:xmpmeta xmlns:x="adobe:ns:meta/" x:xmptk="Adobe XMP Core 5.6-c138 79.159824, 2016/09/14-01:09:01        ">
   <rdf:RDF xmlns:rdf="http://www.w3.org/1999/02/22-rdf-syntax-ns#">
      <rdf:Description rdf:about=""/>
   </rdf:RDF>
</x:xmpmeta>
                                                                                                    
                                                                                                    
                                                                                                    
                                                                                                    
                                                                                                    
                                                                                                    
                                                                                                    
                                                                                                    
                                                                                                    
                                                                                                    
                                                                                                    
                                                                                                    
                                                                                                    
                                                                                                    
                                                                                                    
                                                                                                    
                                                                                                    
                                                                                                    
                                                                                                    
                                                                                                    
                           
<?xpacket end="w"?></metadata>
<defs>
    <style>
      .cls-1 {
        fill: #b0b0b0;
        fill-rule: evenodd;
      }
    </style>
  </defs>
  <path id="fa-eye" class="cls-1" d="M414.781,1342.25a1.394,1.394,0,0,1,0,1.5,10.2,10.2,0,0,1-17.562,0,1.394,1.394,0,0,1,0-1.5A10.211,10.211,0,0,1,414.781,1342.25Zm-8.781,5a4.029,4.029,0,0,0,2.125-.58,4.388,4.388,0,0,0,1.547-1.54,4.1,4.1,0,0,0,.578-2.13,4.044,4.044,0,0,0-.578-2.12,4.336,4.336,0,0,0-1.547-1.55,4.183,4.183,0,0,0-4.25,0,4.336,4.336,0,0,0-1.547,1.55,4.044,4.044,0,0,0-.578,2.12,4.1,4.1,0,0,0,.578,2.13,4.388,4.388,0,0,0,1.547,1.54A4.029,4.029,0,0,0,406,1347.25Zm3.25-4.25a3.249,3.249,0,0,0-3.25-3.25,3.266,3.266,0,0,0-1.531.38h0a1.3,1.3,0,0,1,.953.39,1.283,1.283,0,0,1,.391.95,1.344,1.344,0,1,1-2.688,0h0a3.266,3.266,0,0,0-.375,1.53A3.25,3.25,0,1,0,409.25,1343Z" transform="translate(-397 -1337.25)"/>
</svg>
