<svg xmlns="http://www.w3.org/2000/svg" width="14.875" height="12.68" viewBox="0 0 14.875 12.68">
  <metadata><?xpacket begin="﻿" id="W5M0MpCehiHzreSzNTczkc9d"?>
<x:xmpmeta xmlns:x="adobe:ns:meta/" x:xmptk="Adobe XMP Core 5.6-c138 79.159824, 2016/09/14-01:09:01        ">
   <rdf:RDF xmlns:rdf="http://www.w3.org/1999/02/22-rdf-syntax-ns#">
      <rdf:Description rdf:about=""/>
   </rdf:RDF>
</x:xmpmeta>
                                                                                                    
                                                                                                    
                                                                                                    
                                                                                                    
                                                                                                    
                                                                                                    
                                                                                                    
                                                                                                    
                                                                                                    
                                                                                                    
                                                                                                    
                                                                                                    
                                                                                                    
                                                                                                    
                                                                                                    
                                                                                                    
                                                                                                    
                                                                                                    
                                                                                                    
                                                                                                    
                           
<?xpacket end="w"?></metadata>
<defs>
    <style>
      .cls-1 {
        fill: #b0b0b0;
        fill-rule: evenodd;
      }
    </style>
  </defs>
  <path id="fa-heart" class="cls-1" d="M470.348,1337.41a4.01,4.01,0,0,1,2.912,1.02,3.782,3.782,0,0,1,1.053,2.83,4.5,4.5,0,0,1-.875,2.52,7.183,7.183,0,0,1-1.012,1.2l-5.113,4.95a0.678,0.678,0,0,1-.875,0l-5.114-4.95a6.2,6.2,0,0,1-.957-1.12,4.567,4.567,0,0,1-.929-2.6,3.781,3.781,0,0,1,1.052-2.83,4.01,4.01,0,0,1,2.912-1.02,3.945,3.945,0,0,1,2.024.65,8.141,8.141,0,0,1,1.449,1.12,8.141,8.141,0,0,1,1.449-1.12A3.945,3.945,0,0,1,470.348,1337.41Z" transform="translate(-459.438 -1337.41)"/>
</svg>
