<svg id="Layer_1" data-name="Layer 1" xmlns="http://www.w3.org/2000/svg" viewBox="0 0 50 50"><defs><style>.cls-1{fill:#2d6cec;}.cls-2{fill:none;}</style></defs><title>famous</title><path class="cls-1" d="M45,10.88h0s0,0,0,0a1,1,0,0,0,0-.12,1.12,1.12,0,0,0,0-.14l-.05-.11v0l-.07-.11-.09-.1L34.8.28l-.12-.1a.9.9,0,0,0-.22-.12h0A1,1,0,0,0,34.17,0H5.93A1,1,0,0,0,5,1V49a1,1,0,0,0,1,1H44.07a1,1,0,0,0,1-1ZM35.07,10V3.26l6.7,6.7Zm-1,1.91h9V48.09H6.88V1.91H33.17v9A1,1,0,0,0,34.12,11.86Z"/><path class="cls-1" d="M30.1,7.59a1,1,0,0,0-1-1H12.56a1,1,0,0,0-1,1V42.41a1,1,0,0,0,1,1H37.44a1,1,0,0,0,1-1V15.88a1,1,0,0,0-1-1H30.1ZM20.2,40.13A3.92,3.92,0,0,0,21.81,37V34.48l-.35-.28a6,6,0,0,1-1.74-3.09l-.09-.38-.33-.21a3.09,3.09,0,0,1-.8-.63V27.71a1.9,1.9,0,0,1,.51-.76l.32-.28V24.23a3.87,3.87,0,0,1,1.05-2.58A6.23,6.23,0,0,1,25,20.15a6.23,6.23,0,0,1,4.63,1.5,3.9,3.9,0,0,1,1.05,2.62v2.39l.32.28a2,2,0,0,1,.51.75v2.17a2.52,2.52,0,0,1-.81.65l-.33.21-.09.38a6,6,0,0,1-1.74,3.09l-.36.29V37a3.88,3.88,0,0,0,1.55,3.13l2.16,1.36H18.1Zm9.89-4.79A8.05,8.05,0,0,0,32,31.92a2.69,2.69,0,0,0,1.37-2V27.69a3.12,3.12,0,0,0-.83-1.85V24.31a5.8,5.8,0,0,0-1.56-4c-1.33-1.4-3.36-2.11-6-2.11s-4.69.71-6,2.11a5.72,5.72,0,0,0-1.56,3.91v1.58a3.13,3.13,0,0,0-.83,1.85v2.23a2.69,2.69,0,0,0,1.37,2,8,8,0,0,0,1.95,3.43V37a2.2,2.2,0,0,1-.65,1.52l-2.66,1.68a1.75,1.75,0,0,0-.82,1.3H13.52V8.54H28.19v7.34a1,1,0,0,0,1,1h7.34V41.46H34.24a1.74,1.74,0,0,0-.82-1.3L30.7,38.45A2.31,2.31,0,0,1,30.1,37Z"/><rect class="cls-2" width="50" height="50"/></svg>