<svg id="Capa_1" data-name="Capa 1" xmlns="http://www.w3.org/2000/svg" viewBox="0 0 50 44.29"><defs><style>.cls-1{fill:#2d6cec;}</style></defs><title>handshake</title><path class="cls-1" d="M50,12.51a.83.83,0,0,0-.24-.59L38.07.23a.86.86,0,0,0-1.18,0L31.06,6.07a5.31,5.31,0,0,0-6.47.15,5.29,5.29,0,0,0-5.64.38L13.11.77a.83.83,0,0,0-1.18,0L.24,12.45a.83.83,0,0,0,0,1.18L6,19.42a5.34,5.34,0,0,0,.06,7.49l1,1a3.83,3.83,0,0,0,2.77,6.49l.46,0a3.81,3.81,0,0,0,3.79,4.29h.14a3.06,3.06,0,0,0,4.88,2.89,3,3,0,0,0,.76,1.31,3.09,3.09,0,0,0,4.37,0l.47-.47,1,1a3.06,3.06,0,0,0,5.13-1.31,3,3,0,0,0,4.88-2.89h.14a3.84,3.84,0,0,0,3.84-3.84,3.92,3.92,0,0,0,0-.45l.46,0a3.83,3.83,0,0,0,2.71-6.55l-.47-.47,1.54-1.54A5.34,5.34,0,0,0,44,18.88l5.79-5.79A.83.83,0,0,0,50,12.51ZM8.33,32.1a2.17,2.17,0,0,1,0-3.07l3.19-3.19a2.17,2.17,0,0,1,3.07,3.07L11.4,32.1A2.22,2.22,0,0,1,8.33,32.1Zm7.32,4.25a2.17,2.17,0,0,1-3.07,0h0a2.17,2.17,0,0,1,0-3.07l3.19-3.19a2.17,2.17,0,0,1,3.07,3.07Zm4.25,2.12L18.3,40.07a1.42,1.42,0,0,1-2-2l.53-.53h0L20,34.34h0l.53-.53a1.42,1.42,0,0,1,2,2L19.9,38.48Zm3.19,3.19a1.42,1.42,0,0,1-2-2L23.73,37h0l1.59-1.59a1.42,1.42,0,1,1,2,2Zm5.84.53h0a1.42,1.42,0,0,1-2,0l-1-1,2-2,1,1A1.42,1.42,0,0,1,28.93,42.19Zm12.75-9.56h0a2.17,2.17,0,0,1-3.07,0l-6.9-6.91a.83.83,0,0,0-1.18,1.18l6.9,6.91a2.17,2.17,0,0,1,0,3.07,2.21,2.21,0,0,1-3.08,0l-2.1-2a.83.83,0,0,0-1.15,1.2l2.08,2,.53.53a1.42,1.42,0,1,1-2,2L29,37.91a3.07,3.07,0,0,0-4.52-4,3,3,0,0,0-3.37-2.17,3.79,3.79,0,0,0-4.28-3.94,3.83,3.83,0,0,0-6.51-3.17L8.27,26.73l-1-1a3.68,3.68,0,0,1,0-5.19L7.8,20A.83.83,0,0,0,8,19.41s0,0,0,0a.83.83,0,0,0-.24-.55h0L2,13,12.52,2.53,18.3,8.32a.83.83,0,0,0,1.18,0,3.64,3.64,0,0,1,3.81-.86l-7.11,7.11A3.84,3.84,0,0,0,21.61,20l5.25-5.25L41.67,29.56a2.17,2.17,0,0,1,0,3.07Zm.53-14.34a.83.83,0,0,0,0,1.18l.53.53a3.68,3.68,0,0,1,0,5.2L41.2,26.73,28,13.57,29.57,12a.83.83,0,0,0-1.18-1.18L26.27,13h0l-5.84,5.84a2.22,2.22,0,0,1-3.07,0,2.17,2.17,0,0,1,0-3.07l8-8a3.68,3.68,0,0,1,5.2,0l1.06,1.06a.83.83,0,0,0,1.18-1.18l-.47-.47L37.48,2,48,12.51Z"/></svg>