<svg id="Layer_1" data-name="Layer 1" xmlns="http://www.w3.org/2000/svg" viewBox="0 0 50 50"><defs><style>.cls-1{fill:none;}.cls-2{fill:#2d6cec;}</style></defs><title>happy-client</title><rect class="cls-1" width="50" height="50"/><path class="cls-2" d="M18.06,29.71a.84.84,0,0,0,.54-.2l3.21-2.77a4.74,4.74,0,0,0,1.51-2.44,3.17,3.17,0,0,0,.09-1.2A3.3,3.3,0,0,0,20.23,20a3.2,3.2,0,0,0-2.16.84A3.07,3.07,0,0,0,16,20a3.3,3.3,0,0,0-3.19,3.09,3.16,3.16,0,0,0,.09,1.2,4.73,4.73,0,0,0,1.51,2.44l3.16,2.77A.83.83,0,0,0,18.06,29.71ZM14.47,23.9a2,2,0,0,1-.07-.54h0a.73.73,0,0,0,0-.09A1.64,1.64,0,0,1,16,21.67a1.45,1.45,0,0,1,1.35.92.83.83,0,0,0,1.53,0,1.53,1.53,0,0,1,1.4-.92,1.67,1.67,0,0,1,1.54,1.67,1.76,1.76,0,0,1-.07.56,3.07,3.07,0,0,1-1,1.58l-2.66,2.29-2.61-2.29A3.07,3.07,0,0,1,14.47,23.9Z"/><path class="cls-2" d="M35.24,20a3.2,3.2,0,0,0-2.16.84A3.07,3.07,0,0,0,31,20a3.3,3.3,0,0,0-3.19,3.09,3.16,3.16,0,0,0,.09,1.2,4.73,4.73,0,0,0,1.51,2.44l3.16,2.77a.83.83,0,0,0,1.09,0l3.21-2.77a4.74,4.74,0,0,0,1.51-2.44,3.17,3.17,0,0,0,.09-1.2A3.3,3.3,0,0,0,35.24,20Zm1.48,3.89a3.07,3.07,0,0,1-1,1.58l-2.66,2.29-2.61-2.29a3.07,3.07,0,0,1-1-1.58,2,2,0,0,1-.07-.54h0a.73.73,0,0,0,0-.09A1.64,1.64,0,0,1,31,21.67a1.45,1.45,0,0,1,1.35.92.83.83,0,0,0,1.53,0,1.53,1.53,0,0,1,1.4-.92,1.67,1.67,0,0,1,1.54,1.67A1.76,1.76,0,0,1,36.72,23.9Z"/><path class="cls-2" d="M33.58,32.51H17.74a.83.83,0,0,0-.83.83,8.75,8.75,0,0,0,17.51,0A.83.83,0,0,0,33.58,32.51Zm-7.92,7.92a7.09,7.09,0,0,1-7-6.25H32.7A7.1,7.1,0,0,1,25.66,40.43Z"/><path class="cls-2" d="M46.91,15.71a12.67,12.67,0,0,0-4-8.06,3.84,3.84,0,0,1-1.17-2.07C41,2.91,38.51,1,35.3.82a11.21,11.21,0,0,0-5,1.11.24.24,0,0,1-.23,0A2.88,2.88,0,0,0,27.83.1C25.32-.43,21.47,1.19,18.37,4c0-.74.16-1.41.58-1.62l1.41-.7L19,.92a6.93,6.93,0,0,0-7.78.79A7.2,7.2,0,0,0,9,5.36c-.08.3-.16.63-.23,1a.25.25,0,0,1-.19.19.23.23,0,0,1-.25-.1,2,2,0,0,0-1.81-.71A1.89,1.89,0,0,0,5.07,6.82C3.43,10.63.36,20.32,6.9,28.61V42.5a4.17,4.17,0,0,0,4.17,4.17h2.5v1.41A1.92,1.92,0,0,0,15.49,50H35a1.92,1.92,0,0,0,1.92-1.92V46.67h2.5a4.17,4.17,0,0,0,4.17-4.17V28.66C44.56,27.56,47.94,23.14,46.91,15.71ZM6.6,7.48a.22.22,0,0,1,.19-.14.36.36,0,0,1,.33.17A1.88,1.88,0,0,0,9,8.12a1.91,1.91,0,0,0,1.43-1.45c.07-.3.14-.61.22-.9A5.53,5.53,0,0,1,12.3,3a5,5,0,0,1,4.84-1,5.45,5.45,0,0,0-.35,3.26,1.17,1.17,0,0,0,.8,1,1.19,1.19,0,0,0,1.23-.3C22,2.67,25.65,1.35,27.49,1.73a1.18,1.18,0,0,1,1,.74,1.74,1.74,0,0,0,.94,1,1.92,1.92,0,0,0,1.48,0,9.66,9.66,0,0,1,4.29-1c2,.13,4.3,1.13,4.91,3.52a5.44,5.44,0,0,0,1.72,2.94c.84.69,2.84,2.75,3.43,7a15.3,15.3,0,0,1-1.67,9.85V14.37l-1.26.74c-2,1.2-3.84,1.57-5.32,1.1a4.06,4.06,0,0,1-.64-.27l-.21-.13c-.12-.07-.23-.14-.34-.21l-.21-.18-.25-.21-.2-.21L35,14.8l-.18-.23-.11-.14-.15-.23,0-.07a3.36,3.36,0,0,1-.16-.31h0l-.18-.42-.46-.07c-8-1.23-11.89,2.12-13,3.28-5.81-.63-8.32-2.3-8.35-2.31l-.62-.43-.49.57A9.3,9.3,0,0,1,7.45,17.1l-.55.2v8.39C2.82,18.87,4.87,11.49,6.6,7.48Zm28.65,40.6a.25.25,0,0,1-.25.25H15.49a.25.25,0,0,1-.25-.25V46.67h20Zm6.67-5.58a2.5,2.5,0,0,1-2.5,2.5H11.07a2.5,2.5,0,0,1-2.5-2.5v-24a11,11,0,0,0,3.5-2.4A24.78,24.78,0,0,0,21,18.32l.47,0,.28-.38S24.91,13.82,33,14.92a6.35,6.35,0,0,0,3.43,2.86,7.37,7.37,0,0,0,5.45-.58V42.5Z"/></svg>