<svg id="Layer_1" data-name="Layer 1" xmlns="http://www.w3.org/2000/svg" viewBox="0 0 50 50"><defs><style>.cls-1{fill:#2d6cec;}</style></defs><title>headphones</title><path class="cls-1" d="M48.33,34V27.75a23.33,23.33,0,0,0-46.67,0V34A5,5,0,0,0,5,42.75H5a2.3,2.3,0,0,0,1.63,1.92l1.67.58a3.67,3.67,0,0,0,.83.17,2.69,2.69,0,0,0,1.5-.5,2.48,2.48,0,0,0,1-2V32.5a2.49,2.49,0,0,0-1-2,2.43,2.43,0,0,0-2.25-.33l-1.67.58a2.4,2.4,0,0,0-1.73,2H5A5,5,0,0,0,3.33,33V27.75a21.67,21.67,0,0,1,43.33,0V33A5,5,0,0,0,45,32.75h0a2.63,2.63,0,0,0-1.72-2l-1.67-.58a2.43,2.43,0,0,0-2.25.33,2.48,2.48,0,0,0-1,2V42.92a2.34,2.34,0,0,0,1.08,2,2.26,2.26,0,0,0,1.42.5,2.43,2.43,0,0,0,.75-.17l1.67-.58A2.4,2.4,0,0,0,45,42.75h0A5,5,0,0,0,48.33,34ZM6.67,33.08a.8.8,0,0,1,.58-.75l1.67-.58a.31.31,0,0,1,.25-.08,1.18,1.18,0,0,1,.5.17,1,1,0,0,1,.33.67V42.92a.76.76,0,0,1-.33.67.81.81,0,0,1-.75.08l-1.67-.58a.8.8,0,0,1-.58-.75V33.08ZM5,41.08a3.33,3.33,0,1,1,0-6.67Zm37.75,2-1.67.58a.78.78,0,0,1-.75-.08,1,1,0,0,1-.33-.67V32.5a.76.76,0,0,1,.33-.67,1.18,1.18,0,0,1,.5-.17c.08,0,.17.08.25.08l1.67.58a.8.8,0,0,1,.58.75v.5h0v8.33h0v.42A.8.8,0,0,1,42.75,43.08Zm2.25-2V34.42a3.31,3.31,0,0,1,1.88.58.73.73,0,0,0,.21.16A3.33,3.33,0,0,1,45,41.08Z"/><path class="cls-1" d="M14.33,34.25a.82.82,0,0,0-1.17,1.17,3,3,0,0,1,1,2.33,3.29,3.29,0,0,1-1,2.33.81.81,0,0,0,0,1.17.76.76,0,0,0,.58.25.65.65,0,0,0,.58-.25,4.66,4.66,0,0,0,1.5-3.5A5,5,0,0,0,14.33,34.25Z"/><path class="cls-1" d="M15.58,31.83a.81.81,0,0,0,0,1.17,6.69,6.69,0,0,1,0,9.42.81.81,0,0,0,0,1.17.76.76,0,0,0,.58.25.9.9,0,0,0,.58-.25,8.3,8.3,0,0,0,0-11.75A.81.81,0,0,0,15.58,31.83Z"/><path class="cls-1" d="M36.83,34.25a.81.81,0,0,0-1.17,0,4.66,4.66,0,0,0-1.5,3.5,5,5,0,0,0,1.5,3.5.81.81,0,0,0,1.17,0,.81.81,0,0,0,0-1.17,3,3,0,0,1-1-2.33,3.29,3.29,0,0,1,1-2.33A.81.81,0,0,0,36.83,34.25Z"/><path class="cls-1" d="M32.5,37.75A6.61,6.61,0,0,1,34.42,33a.82.82,0,0,0-1.17-1.17,8.25,8.25,0,0,0-2.42,5.92,8.14,8.14,0,0,0,2.5,5.83.76.76,0,0,0,.58.25.89.89,0,0,0,.5-.17.81.81,0,0,0,0-1.17A6.75,6.75,0,0,1,32.5,37.75Z"/></svg>