<svg id="Layer_1" data-name="Layer 1" xmlns="http://www.w3.org/2000/svg" viewBox="0 0 50 50"><defs><style>.cls-1{fill:none;}.cls-2{fill:#2d6cec;}</style></defs><title>high-quality</title><rect class="cls-1" width="50" height="50"/><path class="cls-2" d="M45.4,28.35a5,5,0,0,0-2.24-4.16A5,5,0,0,0,40.4,15H33.74a14.17,14.17,0,0,0-5.83,1.17l1.91-3c2.41-3.58,1.91-9-1-11.82A6,6,0,0,0,27.58.46,2.7,2.7,0,0,0,24.67.38c-.5.17-.5.25-1.33,2.16a70.78,70.78,0,0,1-6,11.57c0,.08-1.58,2.16-2.5,3.41h-.33A9.88,9.88,0,0,0,4.6,27.44v9.66a10.58,10.58,0,0,0,7.74,9.66,7.4,7.4,0,0,1,2.36.84l.3.24h0C16.33,49,19.1,50,22.5,50H34.57a.76.76,0,0,0,.23,0,5,5,0,0,0,.6,0h5a5,5,0,0,0,2.75-9.16,5,5,0,0,0,0-8.33A5,5,0,0,0,45.4,28.35ZM43.73,20a3.34,3.34,0,0,1-3.33,3.33H33.74A3.34,3.34,0,0,1,30.41,20a4.37,4.37,0,0,1,.73-2.08,3.33,3.33,0,0,1,2.4-1.25H40.4A3.34,3.34,0,0,1,43.73,20ZM16.09,46.5a5.56,5.56,0,0,0-.55-.37,5,5,0,0,1-.62-2c-.17-.5-.25-1.08-.42-1.75a.82.82,0,0,0-1.58.42c.17.67.33,1.17.42,1.67.07.3.13.59.2.87l-.78-.2a8.78,8.78,0,0,1-6.49-8V27.44a8.21,8.21,0,0,1,8.24-8.24v-.08h.83a.82.82,0,0,0,.83-.75c.83-1.25,2.41-3.25,2.41-3.33A69.84,69.84,0,0,0,24.83,3.13c.25-.5.42-1.08.58-1.33s.58-.33,1.25.08a3.7,3.7,0,0,1,.92.67c2.16,2,2.91,6.49.75,9.74l-4.5,7.16a1,1,0,0,0-.1.23,24.15,24.15,0,0,0-4.14,8.43,1,1,0,0,0,.58,1.08h.25a1,1,0,0,0,.83-.58,22.63,22.63,0,0,1,4-8.16,1,1,0,0,0,.1-.22,8.83,8.83,0,0,1,4.15-2.86c-.07.13-.14.27-.2.4a5,5,0,0,0-.54,2.07c0,.06,0,.13,0,.19s0,.17,0,.26,0,.1,0,.16v.1l0,.14,0,.12v.08l0,.19h0a5,5,0,0,0,1.48,2.6,5,5,0,0,0,0,9.36A5,5,0,0,0,32,41.36a5,5,0,0,0-.31,7H22.59C19.09,48.33,16.84,47.17,16.09,46.5ZM43.73,45a3.34,3.34,0,0,1-3.33,3.33h-5a3.32,3.32,0,0,1-.53,0l-.13,0a3.4,3.4,0,0,1-2.65-2.95v-.15c0-.05,0-.1,0-.16h0a3.34,3.34,0,0,1,3.33-3.33h5A3.34,3.34,0,0,1,43.73,45Zm0-8.33A3.34,3.34,0,0,1,40.4,40H34a3.45,3.45,0,0,1-3.5-3,3.16,3.16,0,0,1,.83-2.58,3.28,3.28,0,0,1,2.41-1.08H40.4A3.34,3.34,0,0,1,43.73,36.68Zm-3.33-5H32.33a3.45,3.45,0,0,1-3.5-3,3.16,3.16,0,0,1,.83-2.58A3.28,3.28,0,0,1,32.08,25H40.4a3.33,3.33,0,0,1,0,6.66Z"/></svg>