<svg id="Layer_1" data-name="Layer 1" xmlns="http://www.w3.org/2000/svg" viewBox="0 0 50 50"><defs><style>.cls-1{fill:none;}.cls-2{fill:#2d6cec;}</style></defs><title>individual</title><rect class="cls-1" width="50" height="50"/><path class="cls-2" d="M43.66,7.66c0-.23,0-.47,0-.7A6.83,6.83,0,0,0,37,0,6.58,6.58,0,0,0,31.9,2.51,5.65,5.65,0,0,0,28,.94a5.77,5.77,0,0,0-5.34,3.77h-.05a5.54,5.54,0,0,0-2.17.45c-.47,0-.94.06-1.4.12-4.54.52-8,1.69-10.28,3.48a9.37,9.37,0,0,0-1.05,1,14.27,14.27,0,0,0-3,4.91A19.17,19.17,0,0,0,4.06,17L4,17.33A9.53,9.53,0,0,1,3.34,19c-.15.34-.31.69-.45,1.05a2.69,2.69,0,0,0-.2,1.28,2.91,2.91,0,0,0,1.12,1.72c.28.26.58.53.58.71a1.4,1.4,0,0,1-.12.29A28.64,28.64,0,0,1,1,29.37a3.16,3.16,0,0,0-1,2.27,2.35,2.35,0,0,0,1.12,1.46,5.46,5.46,0,0,0,.79.46c.27.14.83.42.86.58a1.17,1.17,0,0,1-.07.69c-.11.23-.22.43-.32.6-.29.51-.78,1.36,0,2,.15.14.4.33.64.52A1.9,1.9,0,0,0,2.77,39a1.15,1.15,0,0,0,.47.78,6.07,6.07,0,0,0,.54.34c.41.24.57.34.62.55a2,2,0,0,1-.08.87c0,.19-.09.39-.11.58a4.48,4.48,0,0,0,.26,2A2.9,2.9,0,0,0,7.2,46.26a3,3,0,0,0,.62-.07,57.66,57.66,0,0,0,6.27-1.87c1.64,1,2.68,3.93,3,5a.83.83,0,0,0,.81.63H36.73a.83.83,0,0,0,.8-1.07,5.13,5.13,0,0,0-.85-1.48,5.86,5.86,0,0,1-.54-.82,13.53,13.53,0,0,1-.83-2.12,24.41,24.41,0,0,1-.88-4.4,12.47,12.47,0,0,1,1-6.51,16.89,16.89,0,0,1,2-3.19c.45-.61.91-1.23,1.33-1.89a11.33,11.33,0,0,0,1.78-5.17h2.32l.16,0a7.78,7.78,0,0,0,7-7.87A7.77,7.77,0,0,0,43.66,7.66Zm-6.3,20c-.39.61-.83,1.21-1.27,1.8a18.39,18.39,0,0,0-2.21,3.52,14.14,14.14,0,0,0-1.1,7.38A26,26,0,0,0,33.72,45a15.11,15.11,0,0,0,.93,2.36,6.33,6.33,0,0,0,.62,1H18.48a12.14,12.14,0,0,0-2.55-4.65l.52-.18,1.1-.38c3.24-1,4.87-2.5,4.82-4.41a.83.83,0,0,0-.83-.81h0a.83.83,0,0,0-.81.85c0,.74-.6,1.82-3.66,2.78l-1.16.4-2,.7h0a58.69,58.69,0,0,1-6.41,1.93A1.24,1.24,0,0,1,6,43.62a2.85,2.85,0,0,1-.18-1.28c0-.15.06-.3.09-.45A3.38,3.38,0,0,0,6,40.25a2.53,2.53,0,0,0-1.41-1.58l-.1-.06a2.78,2.78,0,0,1,.24-.37.83.83,0,0,0-.16-1.19c-.17-.12-.56-.41-.86-.65l.09-.16c.12-.2.25-.43.38-.7a2.84,2.84,0,0,0,.21-1.73c-.19-1-1.08-1.42-1.74-1.75a4.23,4.23,0,0,1-.6-.35,2.91,2.91,0,0,1-.4-.34,3.38,3.38,0,0,1,.66-1,30.2,30.2,0,0,0,3.45-5.6,2.26,2.26,0,0,0,.28-1,2.7,2.7,0,0,0-1.12-1.94c-.28-.25-.56-.51-.59-.71a1.45,1.45,0,0,1,.11-.48c.12-.32.26-.63.4-.95a11,11,0,0,0,.74-2l.09-.38a17.71,17.71,0,0,1,.59-2.13,12.62,12.62,0,0,1,2.66-4.34,7.86,7.86,0,0,1,.87-.79c1.84-1.44,4.61-2.44,8.23-3a6.12,6.12,0,0,0-1,5,6.06,6.06,0,0,0-2.86,5.19,5.91,5.91,0,0,0,5.78,6l.34,0,.11,0h6l-2.9,4.55A.83.83,0,0,0,24.63,29l8.27-5.69h5.95A9.72,9.72,0,0,1,37.35,27.61Zm-6.63-8.85a.83.83,0,0,0-.73-.43H26.07l6.73-7.25-1.93,5.3a.83.83,0,0,0,.45,1.05h0l4.44,1.9-8.71,6,3.64-5.71A.83.83,0,0,0,30.72,18.77Zm11.69,2.9H35.33L38,19.85a.83.83,0,0,0-.14-1.45l-5.11-2.19,3.06-8.43a.83.83,0,0,0-1.39-.85L23.55,18.6a.83.83,0,0,0,.61,1.4h4.32l-1.06,1.67H20.59a.82.82,0,0,0-.31,0l-.34,0a4.24,4.24,0,0,1-4.11-4.35,4.36,4.36,0,0,1,2.53-4l.12-.08.14-.1.09-.13a.48.48,0,0,0,.12-.29.8.8,0,0,0,0-.16.83.83,0,0,0,0-.16.79.79,0,0,0,0-.14,4.24,4.24,0,0,1-.27-1.52,4.24,4.24,0,0,1,4.11-4.35,3.85,3.85,0,0,1,.52,0h.11l.24,0a.83.83,0,0,0,.23-.11l0,0A.64.64,0,0,0,24,5.94a.79.79,0,0,0,.07-.15,4.15,4.15,0,0,1,4-3.19A4,4,0,0,1,31.3,4.34h0l.12.11.13.11h0l.12,0,.17.06.32,0,.17-.08.11,0h0l.12-.12.11-.13h0A5,5,0,0,1,37,1.67,5.16,5.16,0,0,1,42,7a5.45,5.45,0,0,1-.14,1.24.79.79,0,0,0,0,.08l0,.07a.78.78,0,0,0,0,.09.81.81,0,0,0,.55.72l.08,0h.16a6.06,6.06,0,0,1,5.66,6.21A6.08,6.08,0,0,1,42.41,21.67Z"/></svg>