<svg xmlns="http://www.w3.org/2000/svg" width="12.25" height="12.25" viewBox="0 0 12.25 12.25">
  <metadata><?xpacket begin="﻿" id="W5M0MpCehiHzreSzNTczkc9d"?>
<x:xmpmeta xmlns:x="adobe:ns:meta/" x:xmptk="Adobe XMP Core 5.6-c138 79.159824, 2016/09/14-01:09:01        ">
   <rdf:RDF xmlns:rdf="http://www.w3.org/1999/02/22-rdf-syntax-ns#">
      <rdf:Description rdf:about=""/>
   </rdf:RDF>
</x:xmpmeta>
                                                                                                    
                                                                                                    
                                                                                                    
                                                                                                    
                                                                                                    
                                                                                                    
                                                                                                    
                                                                                                    
                                                                                                    
                                                                                                    
                                                                                                    
                                                                                                    
                                                                                                    
                                                                                                    
                                                                                                    
                                                                                                    
                                                                                                    
                                                                                                    
                                                                                                    
                                                                                                    
                           
<?xpacket end="w"?></metadata>
<defs>
    <style>
      .cls-1 {
        fill: #fff;
        fill-rule: evenodd;
      }
    </style>
  </defs>
  <path id="instagram" class="cls-1" d="M316.125,199.605a3.065,3.065,0,0,1,1.572.424,3.165,3.165,0,0,1,1.149,1.149,3.126,3.126,0,0,1,0,3.144,3.165,3.165,0,0,1-1.149,1.149,3.126,3.126,0,0,1-3.144,0,3.165,3.165,0,0,1-1.149-1.149,3.126,3.126,0,0,1,0-3.144,3.165,3.165,0,0,1,1.149-1.149A3.065,3.065,0,0,1,316.125,199.605Zm0,5.2a2.055,2.055,0,1,0-1.449-.6A1.976,1.976,0,0,0,316.125,204.8Zm4.02-5.332a0.735,0.735,0,1,0-.739.738,0.666,0.666,0,0,0,.506-0.219A0.856,0.856,0,0,0,320.145,199.469Zm2.078,0.738q0.027,0.765.027,2.543t-0.041,2.557a5.17,5.17,0,0,1-.232,1.353,3.2,3.2,0,0,1-1.942,1.942,5.17,5.17,0,0,1-1.353.232q-0.78.04-2.557,0.041t-2.557-.041a4.45,4.45,0,0,1-1.353-.26,2.923,2.923,0,0,1-1.19-.724,3.2,3.2,0,0,1-.752-1.19,5.17,5.17,0,0,1-.232-1.353Q310,204.527,310,202.75t0.041-2.557a5.17,5.17,0,0,1,.232-1.353,3.2,3.2,0,0,1,1.942-1.942,5.17,5.17,0,0,1,1.353-.232q0.78-.04,2.557-0.041t2.557,0.041a5.17,5.17,0,0,1,1.353.232,3.2,3.2,0,0,1,1.942,1.942A5.614,5.614,0,0,1,322.223,200.207Zm-1.313,6.152a5.8,5.8,0,0,0,.219-1.476q0.027-.6.027-1.7v-0.875q0-1.121-.027-1.7a5.51,5.51,0,0,0-.219-1.476,1.976,1.976,0,0,0-1.176-1.176,5.476,5.476,0,0,0-1.476-.219q-0.6-.027-1.7-0.027h-0.875q-1.093,0-1.695.027a5.743,5.743,0,0,0-1.476.219,1.976,1.976,0,0,0-1.176,1.176,5.429,5.429,0,0,0-.219,1.476q-0.027.6-.027,1.7v0.875q0,1.095.027,1.7a5.706,5.706,0,0,0,.219,1.476,2.074,2.074,0,0,0,1.176,1.176,5.743,5.743,0,0,0,1.476.219q0.6,0.027,1.695.027h0.875q1.122,0,1.7-.027a5.476,5.476,0,0,0,1.476-.219A2.074,2.074,0,0,0,320.91,206.359Z" transform="translate(-310 -196.625)"/>
</svg>
