<svg xmlns="http://www.w3.org/2000/svg" width="11.82" height="11.938" viewBox="0 0 11.82 11.938">
  <metadata><?xpacket begin="﻿" id="W5M0MpCehiHzreSzNTczkc9d"?>
<x:xmpmeta xmlns:x="adobe:ns:meta/" x:xmptk="Adobe XMP Core 5.6-c138 79.159824, 2016/09/14-01:09:01        ">
   <rdf:RDF xmlns:rdf="http://www.w3.org/1999/02/22-rdf-syntax-ns#">
      <rdf:Description rdf:about=""/>
   </rdf:RDF>
</x:xmpmeta>
                                                                                                    
                                                                                                    
                                                                                                    
                                                                                                    
                                                                                                    
                                                                                                    
                                                                                                    
                                                                                                    
                                                                                                    
                                                                                                    
                                                                                                    
                                                                                                    
                                                                                                    
                                                                                                    
                                                                                                    
                                                                                                    
                                                                                                    
                                                                                                    
                                                                                                    
                                                                                                    
                           
<?xpacket end="w"?></metadata>
<defs>
    <style>
      .cls-1 {
        fill: #fff;
        fill-rule: evenodd;
      }
    </style>
  </defs>
  <path id="instagram" class="cls-1" d="M1354.99,170.278a2.906,2.906,0,0,1,1.51.413,3.071,3.071,0,0,1,0,5.3,2.906,2.906,0,0,1-1.51.413,2.942,2.942,0,0,1-1.52-.413,3.059,3.059,0,0,1-1.1-1.119,3.065,3.065,0,0,1,0-3.063,3.063,3.063,0,0,1,1.1-1.118A2.942,2.942,0,0,1,1354.99,170.278Zm0,5.06a1.875,1.875,0,0,0,1.39-.586,2.008,2.008,0,0,0,0-2.823,1.878,1.878,0,0,0-1.39-.586,1.9,1.9,0,0,0-1.4.586,2.008,2.008,0,0,0,0,2.823A1.9,1.9,0,0,0,1354.99,175.338Zm3.87-5.193a0.7,0.7,0,0,0-.21-0.506,0.693,0.693,0,0,0-1,0,0.715,0.715,0,0,0,0,1.012,0.683,0.683,0,0,0,.5.213,0.646,0.646,0,0,0,.49-0.213A0.855,0.855,0,0,0,1358.86,170.145Zm2.01,0.719c0.01,0.5.02,1.323,0.02,2.477s-0.01,1.984-.04,2.49a4.948,4.948,0,0,1-.22,1.319,3.083,3.083,0,0,1-.73,1.158,2.982,2.982,0,0,1-1.14.732,4.964,4.964,0,0,1-1.31.227q-0.75.041-2.46,0.04c-1.14,0-1.97-.013-2.47-0.04a4.256,4.256,0,0,1-1.3-.253,2.839,2.839,0,0,1-1.15-.706,3.189,3.189,0,0,1-.72-1.158,4.927,4.927,0,0,1-.23-1.319c-0.02-.506-0.04-1.336-0.04-2.49s0.02-1.984.04-2.49a4.927,4.927,0,0,1,.23-1.319,3.181,3.181,0,0,1,.72-1.158,3.112,3.112,0,0,1,1.15-.733,4.928,4.928,0,0,1,1.3-.226c0.5-.027,1.33-0.04,2.47-0.04s1.96,0.013,2.46.04a5.008,5.008,0,0,1,1.31.226,3,3,0,0,1,1.14.733,3.076,3.076,0,0,1,.73,1.158A5.867,5.867,0,0,1,1360.87,170.864Zm-1.27,5.993a5.265,5.265,0,0,0,.21-1.439q0.03-.585.03-1.651v-0.852q0-1.092-.03-1.652a5.028,5.028,0,0,0-.21-1.438,1.918,1.918,0,0,0-1.13-1.145,5.276,5.276,0,0,0-1.43-.213c-0.38-.018-0.93-0.027-1.63-0.027h-0.84c-0.71,0-1.25.009-1.64,0.027a5.479,5.479,0,0,0-1.42.213,1.892,1.892,0,0,0-1.13,1.145,5.324,5.324,0,0,0-.22,1.438c-0.01.391-.02,0.942-0.02,1.652v0.852c0,0.71.01,1.261,0.02,1.651a5.6,5.6,0,0,0,.22,1.439,1.972,1.972,0,0,0,1.13,1.145,5.523,5.523,0,0,0,1.42.213c0.39,0.018.93,0.026,1.64,0.026h0.84c0.72,0,1.26-.008,1.63-0.026a5.317,5.317,0,0,0,1.43-.213A2.016,2.016,0,0,0,1359.6,176.857Z" transform="translate(-1349.09 -167.375)"/>
</svg>
