<svg id="base" xmlns="http://www.w3.org/2000/svg" xmlns:xlink="http://www.w3.org/1999/xlink" viewBox="0 0 25 25"><defs><style>.cls-1{fill:none;}.cls-2{clip-path:url(#clip-path);}.cls-3{clip-path:url(#clip-path-2);}.cls-4{fill:url(#linear-gradient);}.cls-5{clip-path:url(#clip-path-3);}.cls-6{fill:url(#radial-gradient);}.cls-7{clip-path:url(#clip-path-4);}.cls-8{fill:url(#radial-gradient-2);}.cls-9{clip-path:url(#clip-path-5);}.cls-10{fill:url(#radial-gradient-3);}.cls-11{clip-path:url(#clip-path-6);}.cls-12{fill:url(#radial-gradient-4);}.cls-13{clip-path:url(#clip-path-7);}.cls-14{fill:url(#radial-gradient-5);}.cls-15{fill:#fff;}</style><clipPath id="clip-path" transform="translate(-0.08 -0.08)"><rect class="cls-1" x="0.08" y="0.08" width="25" height="25"/></clipPath><clipPath id="clip-path-2" transform="translate(-0.08 -0.08)"><path class="cls-1" d="M7.75.08H6.25A11,11,0,0,0,4.61.24,5.54,5.54,0,0,0,3,.75,5.25,5.25,0,0,0,.75,3,5.54,5.54,0,0,0,.24,4.61,11,11,0,0,0,.09,6.25c0,.25,0,.5,0,.75s0,.48,0,.72v9.71q0,.36,0,.72c0,.25,0,.5,0,.75a11,11,0,0,0,.14,1.64,5.54,5.54,0,0,0,.51,1.56A5.25,5.25,0,0,0,3,24.41a5.54,5.54,0,0,0,1.56.51,11,11,0,0,0,1.64.14H18.91a11,11,0,0,0,1.64-.14,5.54,5.54,0,0,0,1.56-.51,5.25,5.25,0,0,0,2.3-2.3,5.54,5.54,0,0,0,.51-1.56,11,11,0,0,0,.14-1.64c0-.25,0-.5,0-.75s0-.48,0-.72V7.73q0-.36,0-.72c0-.25,0-.5,0-.75a11,11,0,0,0-.14-1.64A5.54,5.54,0,0,0,24.41,3a5.25,5.25,0,0,0-2.3-2.3A5.54,5.54,0,0,0,20.55.24,11,11,0,0,0,18.91.09H7.75Z"/></clipPath><linearGradient id="linear-gradient" x1="-1242.06" y1="-813.16" x2="-1242.04" y2="-813.16" gradientTransform="matrix(0, 961.02, 961.02, 0, 781479.86, 1193646.59)" gradientUnits="userSpaceOnUse"><stop offset="0" stop-color="#ef4db7"/><stop offset="1" stop-color="#c643fd"/></linearGradient><clipPath id="clip-path-3" transform="translate(-0.08 -0.08)"><path class="cls-1" d="M12.43,3.26a.51.51,0,0,0-.14.13l0,0a1.19,1.19,0,0,0-.14.26q-.15.4-.29.81L10.17,9.63H15L13.31,4.49q-.13-.41-.29-.81a1.19,1.19,0,0,0-.14-.26l0,0a.51.51,0,0,0-.14-.13.28.28,0,0,0-.3,0"/></clipPath><radialGradient id="radial-gradient" cx="-1242.21" cy="-815.56" r="0.03" gradientTransform="matrix(717.83, 0, 0, -717.83, 891689.04, -585413.61)" gradientUnits="userSpaceOnUse"><stop offset="0" stop-color="#fbe3f8"/><stop offset="0.74" stop-color="#fbe3f8"/><stop offset="0.81" stop-color="#fadef6"/><stop offset="0.88" stop-color="#f9d1f0"/><stop offset="0.96" stop-color="#f6bae7"/><stop offset="0.98" stop-color="#f5b1e3"/><stop offset="1" stop-color="#f5b1e3"/></radialGradient><clipPath id="clip-path-4" transform="translate(-0.08 -0.08)"><path class="cls-1" d="M12.58,17,17,20.2l.71.49a1.19,1.19,0,0,0,.26.13h0a.51.51,0,0,0,.19,0,.28.28,0,0,0,.24-.18.51.51,0,0,0,0-.18s0,0,0,0a1.19,1.19,0,0,0,0-.29q-.11-.42-.24-.82L16.46,14.2Z"/></clipPath><radialGradient id="radial-gradient-2" cx="-1242.21" cy="-815.56" r="0.03" gradientTransform="matrix(717.83, 0, 0, -717.83, 891689.04, -585413.61)" gradientUnits="userSpaceOnUse"><stop offset="0" stop-color="#f9e3fb"/><stop offset="0.75" stop-color="#f9e3fb"/><stop offset="0.81" stop-color="#f8defb"/><stop offset="0.88" stop-color="#f3d0fa"/><stop offset="0.96" stop-color="#ecbaf9"/><stop offset="0.98" stop-color="#eab2f9"/><stop offset="1" stop-color="#eab2f9"/></radialGradient><clipPath id="clip-path-5" transform="translate(-0.08 -0.08)"><path class="cls-1" d="M4.77,9.63l-.86,0a1.19,1.19,0,0,0-.29,0h0a.51.51,0,0,0-.17.09.28.28,0,0,0-.09.29.51.51,0,0,0,.08.17l0,0a1.19,1.19,0,0,0,.2.21l.68.52L8.69,14.2l1.48-4.57Z"/></clipPath><radialGradient id="radial-gradient-3" cx="-1242.3" cy="-815.78" r="0.03" gradientTransform="matrix(979, 0, 0, -979, 1216202.43, -798650)" gradientUnits="userSpaceOnUse"><stop offset="0" stop-color="#fae1f8"/><stop offset="0.6" stop-color="#fae1f8"/><stop offset="0.85" stop-color="#f7d6f7"/><stop offset="1" stop-color="#f7d6f7"/></radialGradient><clipPath id="clip-path-6" transform="translate(-0.08 -0.08)"><path class="cls-1" d="M7,19.34q-.13.41-.24.82a1.19,1.19,0,0,0,0,.29s0,0,0,0a.51.51,0,0,0,0,.18.28.28,0,0,0,.24.18.51.51,0,0,0,.19,0h0a1.19,1.19,0,0,0,.26-.13l.71-.49L12.58,17l-2.47-1.79-1.42-1Z"/></clipPath><radialGradient id="radial-gradient-4" cx="-1243.19" cy="-815.09" r="0.03" gradientTransform="matrix(696.96, 0, 0, -696.96, 866470.81, -568060.84)" gradientUnits="userSpaceOnUse"><stop offset="0" stop-color="#fae9fc"/><stop offset="0.67" stop-color="#fae9fc"/><stop offset="0.81" stop-color="#f8defa"/><stop offset="0.91" stop-color="#f6d4f8"/><stop offset="1" stop-color="#f6d4f8"/></radialGradient><clipPath id="clip-path-7" transform="translate(-0.08 -0.08)"><path class="cls-1" d="M15,9.63l1.48,4.57L20.84,11l.68-.52a1.19,1.19,0,0,0,.2-.21l0,0a.51.51,0,0,0,.08-.17.28.28,0,0,0-.09-.29.51.51,0,0,0-.17-.09h0a1.19,1.19,0,0,0-.29,0l-.86,0H15Z"/></clipPath><radialGradient id="radial-gradient-5" cx="-1243.19" cy="-815.09" r="0.03" gradientTransform="matrix(696.96, 0, 0, -696.96, 866470.81, -568060.84)" gradientUnits="userSpaceOnUse"><stop offset="0" stop-color="#fae9fb"/><stop offset="0.68" stop-color="#fae9fb"/><stop offset="0.81" stop-color="#f8def8"/><stop offset="0.98" stop-color="#f5caf2"/><stop offset="1" stop-color="#f5caf2"/></radialGradient></defs><title>itunes-min</title><g class="cls-2"><g class="cls-3"><rect class="cls-4" width="25" height="25"/></g><g class="cls-5"><rect class="cls-6" x="10.09" y="3.13" width="4.8" height="6.41"/></g><g class="cls-7"><rect class="cls-8" x="12.49" y="14.12" width="5.84" height="6.66"/></g><g class="cls-9"><rect class="cls-10" x="3.23" y="9.55" width="6.86" height="4.57"/></g><g class="cls-11"><rect class="cls-12" x="6.65" y="14.12" width="5.84" height="6.66"/></g><g class="cls-13"><rect class="cls-14" x="14.9" y="9.55" width="6.86" height="4.57"/></g><polygon class="cls-15" points="10.09 9.55 8.61 14.12 10.03 15.15 12.49 16.94 16.38 14.12 14.9 9.55 10.09 9.55"/></g></svg>