<svg id="Layer_1" data-name="Layer 1" xmlns="http://www.w3.org/2000/svg" viewBox="0 0 50 50"><defs><style>.cls-1{fill:#2d6cec;}.cls-2{fill:none;}</style></defs><title>levels</title><path class="cls-1" d="M5.83,9.25V.83A.79.79,0,0,0,5,0a.79.79,0,0,0-.83.83V9.25A4.12,4.12,0,0,0,.83,13.33v5a4.12,4.12,0,0,0,3.33,4.09V49.17A.79.79,0,0,0,5,50a.79.79,0,0,0,.83-.83V22.42a4.12,4.12,0,0,0,3.33-4.09v-5A4.12,4.12,0,0,0,5.83,9.25ZM7.5,18.33A2.46,2.46,0,0,1,5,20.83a2.46,2.46,0,0,1-2.5-2.5v-5A2.46,2.46,0,0,1,5,10.83a2.46,2.46,0,0,1,2.5,2.5Z"/><path class="cls-1" d="M19.17,23.41V.83a.83.83,0,0,0-1.67,0V23.41a4.12,4.12,0,0,0-3.33,4.09v5a4.12,4.12,0,0,0,3.33,4.09V49.17a.83.83,0,0,0,1.67,0V36.59A4.12,4.12,0,0,0,22.5,32.5v-5A4.12,4.12,0,0,0,19.17,23.41Zm1.67,9.09a2.5,2.5,0,1,1-5,0v-5a2.5,2.5,0,1,1,5,0Z"/><path class="cls-1" d="M32.5,25.91V.83a.83.83,0,1,0-1.67,0V25.91A4.12,4.12,0,0,0,27.5,30v5a4.12,4.12,0,0,0,3.33,4.09V49.17a.83.83,0,0,0,1.67,0V39.09A4.12,4.12,0,0,0,35.83,35V30A4.12,4.12,0,0,0,32.5,25.91ZM34.17,35a2.5,2.5,0,0,1-5,0V30a2.5,2.5,0,0,1,5,0Z"/><path class="cls-1" d="M45.83,6.75V.83a.83.83,0,1,0-1.67,0V6.75a4.12,4.12,0,0,0-3.33,4.09v5a4.12,4.12,0,0,0,3.33,4.09V49.17a.83.83,0,1,0,1.67,0V19.92a4.12,4.12,0,0,0,3.33-4.09v-5A4.12,4.12,0,0,0,45.83,6.75Zm1.67,9.09a2.5,2.5,0,0,1-5,0v-5a2.5,2.5,0,0,1,5,0Z"/><path class="cls-1" d="M5,12.5a.79.79,0,0,0-.83.83v5a.79.79,0,0,0,.83.83.79.79,0,0,0,.83-.83v-5A.79.79,0,0,0,5,12.5Z"/><path class="cls-1" d="M18.33,26.67a.79.79,0,0,0-.83.83v5a.83.83,0,0,0,1.67,0v-5A.79.79,0,0,0,18.33,26.67Z"/><path class="cls-1" d="M31.67,29.17a.79.79,0,0,0-.83.83v5a.83.83,0,0,0,1.67,0V30A.79.79,0,0,0,31.67,29.17Z"/><path class="cls-1" d="M45,10a.79.79,0,0,0-.83.83v5a.83.83,0,1,0,1.67,0v-5A.79.79,0,0,0,45,10Z"/><rect class="cls-2" width="50" height="50"/></svg>