<svg id="Layer_1" data-name="Layer 1" xmlns="http://www.w3.org/2000/svg" viewBox="0 0 25 23.33"><defs><style>.cls-1{fill:#fff;}</style></defs><title>like</title><path class="cls-1" d="M25,7c-.37-4-3.37-7-7-7a7.34,7.34,0,0,0-5.61,2.87A6.69,6.69,0,0,0,7,0C3.39,0,.39,3,0,7A8.9,8.9,0,0,0,.27,9.73a10.61,10.61,0,0,0,3.49,5.74l8.73,7.86,8.86-7.86a11.59,11.59,0,0,0,3.49-5.74A11.52,11.52,0,0,0,25,7Zm-12.6,14.1L4.76,14.22a10.35,10.35,0,0,1-3-5,4.17,4.17,0,0,1-.12-2.12C1.89,3.87,4.14,1.5,6.88,1.5a5.25,5.25,0,0,1,4.74,3.24l.75,1.87L13.24,5a5.28,5.28,0,0,1,4.87-3.24c2.74,0,5,2.37,5.24,5.61a4.86,4.86,0,0,1-.25,2,10.35,10.35,0,0,1-3,5Z"/></svg>