<svg id="Layer_1" data-name="Layer 1" xmlns="http://www.w3.org/2000/svg" viewBox="0 0 50 50"><defs><style>.cls-1{fill:none;}.cls-2{fill:#2d6cec;}</style></defs><title>music-shop</title><rect class="cls-1" width="50" height="50"/><path class="cls-2" d="M46.25,1.25H3.75A3.73,3.73,0,0,0,0,5V35.83a3.73,3.73,0,0,0,3.75,3.75H18.61a4.07,4.07,0,0,1-1.69,3.67l-1.5,1.08a1,1,0,0,0-.3.27,2.08,2.08,0,0,0,.3,4.14H34.58a2.08,2.08,0,0,0,.15-4.16,1,1,0,0,0-.24-.26L33,43.25a4,4,0,0,1-1.66-3.67H46.25A3.73,3.73,0,0,0,50,35.83V5A3.73,3.73,0,0,0,46.25,1.25ZM1.67,5A2.06,2.06,0,0,1,3.75,2.92h42.5A2.06,2.06,0,0,1,48.33,5V30.42H1.67ZM34.58,47.08H15.42a.42.42,0,0,1,0-.83H34.58a.42.42,0,1,1,0,.83Zm-2.67-2.5H18a5.9,5.9,0,0,0,2.33-5h9.33A5.83,5.83,0,0,0,31.92,44.58Zm16.42-8.75a2.06,2.06,0,0,1-2.08,2.08H3.75a2.06,2.06,0,0,1-2.08-2.08V32.08H48.33v3.75Z"/><path class="cls-2" d="M22.5,14.58H18.87L16.58,9.25a.82.82,0,1,0-1.5.67l2,4.67H9.58l2-4.67a.82.82,0,1,0-1.5-.67L7.8,14.58H4.17a1,1,0,0,0-.67.33.63.63,0,0,0-.08.75l3.33,10a.8.8,0,0,0,.75.58H19.17a.8.8,0,0,0,.75-.58l3.33-10a.81.81,0,0,0-.08-.75A1,1,0,0,0,22.5,14.58Zm-3.92,10H8.08L5.33,16.25h16Z"/><path class="cls-2" d="M25.83,10.42h8.33a.83.83,0,0,0,0-1.67H25.83a.83.83,0,1,0,0,1.67Z"/><path class="cls-2" d="M37.5,10.42h3.33a.83.83,0,0,0,0-1.67H37.5a.83.83,0,0,0,0,1.67Z"/><path class="cls-2" d="M45.83,8.75H44.17a.83.83,0,0,0,0,1.67h1.67a.83.83,0,0,0,0-1.67Z"/><path class="cls-2" d="M25.83,21.25h8.33a.83.83,0,0,0,0-1.67H25.83a.83.83,0,1,0,0,1.67Z"/><path class="cls-2" d="M41.67,20.42a.79.79,0,0,0-.83-.83H37.5a.83.83,0,0,0,0,1.67h3.33A.79.79,0,0,0,41.67,20.42Z"/><path class="cls-2" d="M45.83,19.58H44.17a.83.83,0,0,0,0,1.67h1.67a.83.83,0,0,0,0-1.67Z"/><path class="cls-2" d="M45.83,24.58H40a.83.83,0,1,0,0,1.67h5.83a.83.83,0,1,0,0-1.67Z"/><path class="cls-2" d="M36.67,24.58h-5a.83.83,0,0,0,0,1.67h5a.83.83,0,1,0,0-1.67Z"/><path class="cls-2" d="M28.33,24.58h-2.5a.83.83,0,1,0,0,1.67h2.5a.83.83,0,1,0,0-1.67Z"/><path class="cls-2" d="M45.83,14.58H40a.83.83,0,0,0,0,1.67h5.83a.83.83,0,0,0,0-1.67Z"/><path class="cls-2" d="M30.83,15.42a.79.79,0,0,0,.83.83h5a.83.83,0,0,0,0-1.67h-5A.79.79,0,0,0,30.83,15.42Z"/><path class="cls-2" d="M25.83,16.25h2.5a.83.83,0,0,0,0-1.67h-2.5a.83.83,0,1,0,0,1.67Z"/></svg>