<svg id="Layer_1" data-name="Layer 1" xmlns="http://www.w3.org/2000/svg" viewBox="0 0 50 50"><defs><style>.cls-1{fill:#2d6cec;}.cls-2{fill:none;}</style></defs><title>music-folder</title><path class="cls-1" d="M49.07,18.25a4.23,4.23,0,0,0-3.25-1.58,3.34,3.34,0,0,0-3.33-3.33H40.75A4.12,4.12,0,0,0,36.66,10H26.25L22.33,5.34A.76.76,0,0,0,21.66,5h-15A3.34,3.34,0,0,0,3.33,8.34v5A3.34,3.34,0,0,0,0,16.67v25A3.34,3.34,0,0,0,3.33,45H42.49a3.34,3.34,0,0,0,3.33-3.33V41l4.08-19.25A4.09,4.09,0,0,0,49.07,18.25ZM5,8.34A1.67,1.67,0,0,1,6.67,6.67H21.25l3.92,4.67a.76.76,0,0,0,.67.33H36.66A2.43,2.43,0,0,1,39,13.34H5ZM44.16,41.66a1.67,1.67,0,0,1-1.67,1.67H3.33a1.67,1.67,0,0,1-1.67-1.67H5.83a.83.83,0,1,0,0-1.67H1.67V38.33h2.5a.83.83,0,1,0,0-1.67H1.67v-20A1.67,1.67,0,0,1,3.33,15H42.49a1.67,1.67,0,0,1,1.67,1.67v25Zm4.08-20.25-2.42,11.5V18.33a2.23,2.23,0,0,1,1.92,1A2.36,2.36,0,0,1,48.24,21.42Z"/><path class="cls-1" d="M24.15,18.21a.78.78,0,0,0-.82-.7.94.94,0,0,0-.35.06.71.71,0,0,0-.31.19.83.83,0,0,0-.17,1.07V32.5H20a4.17,4.17,0,1,0,4.17,4.17V20.73l1.92,2.19a5.45,5.45,0,0,1,1.08,5.25l-.5,1.58a1,1,0,0,0,.58,1.08h.25a1,1,0,0,0,.83-.58l.42-1.58a7,7,0,0,0-1.42-6.83ZM22.5,36.66a2.5,2.5,0,1,1-2.5-2.5h2.5Z"/><path class="cls-1" d="M9.17,9.17a.83.83,0,0,0,0,1.67.83.83,0,0,0,0-1.67Z"/><path class="cls-1" d="M14.16,9.17A.83.83,0,1,0,15,10,.79.79,0,0,0,14.16,9.17Z"/><path class="cls-1" d="M19.16,9.17A.83.83,0,1,0,20,10,.79.79,0,0,0,19.16,9.17Z"/><rect class="cls-2" width="50" height="50"/></svg>