<svg id="Layer_1" data-name="Layer 1" xmlns="http://www.w3.org/2000/svg" viewBox="0 0 50 50"><defs><style>.cls-1{fill:#2d6cec;}.cls-2{fill:none;}</style></defs><title>music-player</title><path class="cls-1" d="M35.83,6.26a.79.79,0,0,0,.83-.83.83.83,0,1,0-1.67,0A.79.79,0,0,0,35.83,6.26Z"/><path class="cls-1" d="M22.5,11.26H4.17a.79.79,0,0,0-.83.83V28.76a.79.79,0,0,0,.83.83H22.5a.79.79,0,0,0,.83-.83V12.09A.79.79,0,0,0,22.5,11.26Zm-.83,16.67H5v-15H21.67Z"/><path class="cls-1" d="M11.67,26.26a2.46,2.46,0,0,0,2.5-2.5V17.51l.17.17c1.42,1.67,2,2.58,1.5,4.17l-.33.75a.83.83,0,0,0,.42,1.08.5.5,0,0,0,.33.08c.33,0,.67-.17.67-.5l.42-.83v-.08c.83-2.5-.25-4-1.83-5.83l-1.38-1.38a.78.78,0,0,0-.79-.54h0a.82.82,0,0,0-.62.25.8.8,0,0,0-.17.93v5.48h-.83a2.5,2.5,0,0,0,0,5Zm0-3.33h.83v.83a.83.83,0,1,1-.83-.83Z"/><path class="cls-1" d="M18.08,34.76a.91.91,0,0,0-.92-.08.8.8,0,0,0-.5.75v6.67a.8.8,0,0,0,.5.75.5.5,0,0,0,.33.08,2.12,2.12,0,0,0,.58-.17l4.17-3.33a.76.76,0,0,0,.33-.67,1,1,0,0,0-.33-.67Zm.25,5.58V37.17l2,1.58Z"/><path class="cls-1" d="M14.42,34.59a.87.87,0,0,0-1.08.5l-2.5,6.67a.87.87,0,0,0,.5,1.08.63.63,0,0,0,.33.08.71.71,0,0,0,.75-.58l2.5-6.67A.87.87,0,0,0,14.42,34.59Z"/><path class="cls-1" d="M5,34.59a.79.79,0,0,0-.83.83v6.67a.79.79,0,0,0,.83.83.79.79,0,0,0,.83-.83V35.42A.79.79,0,0,0,5,34.59Z"/><path class="cls-1" d="M8.33,34.59a.79.79,0,0,0-.83.83v6.67a.79.79,0,0,0,.83.83.79.79,0,0,0,.83-.83V35.42A.79.79,0,0,0,8.33,34.59Z"/><path class="cls-1" d="M45.83,15.42H44a5.67,5.67,0,0,0-5.67,5.67v7.67A2.45,2.45,0,0,0,40,31.12v3.47a1.85,1.85,0,0,1-1.83,1.83,3.15,3.15,0,0,0-1.5.38V16.12a2.45,2.45,0,0,0,1.67-2.37v-5A4.14,4.14,0,0,0,40,5.42a4.17,4.17,0,1,0-8.33,0,4.14,4.14,0,0,0,1.67,3.35v5A2.45,2.45,0,0,0,35,16.12v29.3a2.5,2.5,0,1,1-5,0V4.76A4.34,4.34,0,0,0,26.25.42,4.41,4.41,0,0,0,23,1.51a4.15,4.15,0,0,0-1.25,2.25h-.92a.79.79,0,0,0-.83.83V7.92H2.5A2.46,2.46,0,0,0,0,10.42V47.09a2.46,2.46,0,0,0,2.5,2.5H24.17a2.46,2.46,0,0,0,2.5-2.5V10.42A2.45,2.45,0,0,0,25,8.06V4.59a.79.79,0,0,0-.83-.83H23.5a3,3,0,0,1,.67-1,2.29,2.29,0,0,1,1.92-.67,2.7,2.7,0,0,1,2.25,2.67V45.42a4.17,4.17,0,1,0,8.33,0V39.59a1.49,1.49,0,0,1,1.5-1.5,3.52,3.52,0,0,0,3.5-3.5V31.12a2.45,2.45,0,0,0,1.67-2.37V24.59a.84.84,0,0,1,.83-.83h1.67a4.17,4.17,0,1,0,0-8.33Zm-24.17-10h1.67v2.5H21.67ZM25,47.09a.79.79,0,0,1-.83.83H2.5a.79.79,0,0,1-.83-.83V10.42a.79.79,0,0,1,.83-.83H24.17a.79.79,0,0,1,.83.83V47.09ZM35.83,2.92a2.46,2.46,0,0,1,2.5,2.5,2.47,2.47,0,0,1-.93,2,.75.75,0,0,0-.32.12,2.27,2.27,0,0,1-2.5,0,.75.75,0,0,0-.32-.12,2.47,2.47,0,0,1-.93-2A2.46,2.46,0,0,1,35.83,2.92Zm0,6.67a4.33,4.33,0,0,0,.83-.08v4.25a.83.83,0,1,1-1.67,0V9.51A4.33,4.33,0,0,0,35.83,9.59Zm5.83,15v4.17a.83.83,0,0,1-1.67,0V21.09a4,4,0,0,1,4-4h.17v5A2.46,2.46,0,0,0,41.67,24.59Zm4.17-2.5v-5a2.5,2.5,0,1,1,0,5Z"/><rect class="cls-2" width="50" height="50"/></svg>