<svg id="Layer_1" data-name="Layer 1" xmlns="http://www.w3.org/2000/svg" viewBox="0 0 50 50"><defs><style>.cls-1{fill:#2d6cec;}</style></defs><title>palm-tree</title><path class="cls-1" d="M42.08,48.33V45a.83.83,0,1,0-1.67,0v3.33h-.83V46.67a.83.83,0,0,0-1.67,0v1.67h-.83V45a.83.83,0,1,0-1.67,0v3.33h-.85c-.14-4-1.09-21.32-7.54-32a4.17,4.17,0,0,0,2.56-3.84,4.06,4.06,0,0,0,0-.46l2.3-.62.52-1.29,1.09.86L43.1,8.4l-.22-.8c-.79-2.95-6.5-4.3-12-2.83a16,16,0,0,0-7,3.86l-.11,0a15.54,15.54,0,0,0-6-6.26A16.17,16.17,0,0,0,10.54,0c-2.43-.13-4.25.51-5,1.76l-.43.71,8.55,5.18,1.29-.52.14,1.38,1.06.64a17.47,17.47,0,0,0-4.4.59A16.15,16.15,0,0,0,5,13.37C3.21,15,2.41,16.79,2.79,18.2L3,19l9.66-2.59.52-1.29,1.09.86,2.19-.59a4.1,4.1,0,0,0-.22,1.26,4.17,4.17,0,0,0,4.17,4.17A4.12,4.12,0,0,0,22.93,20c.17,1,.32,1.9.47,2.83l.07.43c.18,1.2.34,2.38.48,3.53h0c1.29,10.82.52,18.46-2.24,21.55h-.45v-2.5a.83.83,0,1,0-1.67,0v2.5H17.06a4.12,4.12,0,0,0,.85-2.5,4.17,4.17,0,1,0-8.33,0,4.12,4.12,0,0,0,.85,2.5H1.25V50h47.5V48.33Zm-30.83-2.5a2.5,2.5,0,1,1,2.5,2.5A2.5,2.5,0,0,1,11.25,45.83Zm13-27.68c0-.06,0-.12.05-.17a4,4,0,0,0,.15-.53,4.11,4.11,0,0,0,.08-.78s0-.06,0-.08h.06a4,4,0,0,0,.63.08c.34.53.66,1.09,1,1.67H24.33ZM24.63,20h2.45l.07.15q.23.5.46,1l.14.34c.13.31.26.64.39,1l.16.41c.13.35.26.72.39,1.08s.24.69.35,1l.12.37.14.45h-3.8c-.25-2-.55-3.93-.88-5.83Zm1.08,7.5H29.8c.54,1.95,1,3.91,1.36,5.83h-5C26.09,31.42,25.93,29.46,25.71,27.5Zm.53,7.5h5.23c.36,2.07.63,4,.83,5.83H26A46,46,0,0,0,26.24,35Zm-.58-20h0l-.21,0a2.53,2.53,0,0,1-2.18-1.31h0a2.48,2.48,0,0,1-.24-.61l0-.17a2.61,2.61,0,0,1,0-.39,2.44,2.44,0,0,1,0-.37c0-.07,0-.15,0-.23v0a2.45,2.45,0,0,1,.09-.3,2.36,2.36,0,0,1,.15-.3l0-.08a2.58,2.58,0,0,1,.59-.65l.16-.13a2.47,2.47,0,0,1,.34-.19l.21-.07A2.91,2.91,0,0,1,25,10a2.27,2.27,0,0,1,.4,0,2.43,2.43,0,0,1,.45,0l.16,0,.25.08.2.08.16.09a2.51,2.51,0,0,1,1.13,1.37l0,.11a2.46,2.46,0,0,1,.11.69A2.49,2.49,0,0,1,25.66,15Zm5.69-8.6c4.25-1.14,8.08-.31,9.44.92l-7,1.87L31.63,7.45,30.6,10,29,10.45l0,0a4.2,4.2,0,0,0-.35-.51l-.13-.16a4.06,4.06,0,0,0-.39-.38l-.21-.17a4,4,0,0,0-.4-.27l-.29-.16-.4-.17-.18-.08A15.4,15.4,0,0,1,31.35,6.38ZM13.81,5.81,7.65,2.08a6.05,6.05,0,0,1,2.8-.4A14.68,14.68,0,0,1,17,3.82,13.57,13.57,0,0,1,22.4,9.64c-.07.07-.12.15-.18.22s-.14.16-.2.24-.11.17-.16.26l0,.05a7.82,7.82,0,0,0-1.45-.64L16.66,7.54l-.27-2.76Zm-1.34,6.64-1,2.58-7,1.86a6,6,0,0,1,1.65-2.3,14.68,14.68,0,0,1,6.05-3.22,15.66,15.66,0,0,1,4-.53,12,12,0,0,1,3.49.48l1.57.95s0,.08,0,.13l-.49.13H20.7l-.29,0h-.14a3.5,3.5,0,0,0-.57.06l-.2,0a4,4,0,0,0-.47.15l-.32.12-.18.1a4.16,4.16,0,0,0-.5.29l-3.38.91Zm7.95,6.72a2.49,2.49,0,0,1-1.54-4.46l0,0a2.76,2.76,0,0,1,.36-.23l.06,0,.27-.11.23-.07.17,0,.28,0a1.89,1.89,0,0,1,.31,0l.27,0h0a2.48,2.48,0,0,1,1,.43h0a4.13,4.13,0,0,0,.31.44l.1.12a4.18,4.18,0,0,0,.35.37,2.69,2.69,0,0,1,.17.41s0,.07,0,.1a2.28,2.28,0,0,1,.08.58,2.47,2.47,0,0,1-.24,1h0A2.49,2.49,0,0,1,20.42,19.17ZM23.8,48.33a15.92,15.92,0,0,0,2-5.83h6.69c.26,2.65.37,4.74.41,5.83Z"/></svg>