<svg id="Isolation_Mode" data-name="Isolation Mode" xmlns="http://www.w3.org/2000/svg" viewBox="0 0 21.4 21.4"><defs><style>.cls-1{fill:#fff;}</style></defs><title>phone</title><path class="cls-1" d="M19.7,14.64c-3.13-2.51-4.3-1.32-5.54-.05l-.22.22c-.19.19-.79,0-1.53-.48a19.53,19.53,0,0,1-2.94-2.53c-3.7-3.69-3-4.44-3-4.47l.22-.22c1.27-1.25,2.47-2.42,0-5.55A3.62,3.62,0,0,0,4-.07c-1.26,0-2.21.93-3,1.79l-.09.09-.29.3C-.29,3-.31,5,.59,7.41A23.4,23.4,0,0,0,6,15.28a23.38,23.38,0,0,0,7.87,5.38,9.29,9.29,0,0,0,3.16.67,3,3,0,0,0,2.13-.71l.32-.31.07-.07c.87-.82,1.85-1.75,1.79-3A3.61,3.61,0,0,0,19.7,14.64ZM4,1H4A2.69,2.69,0,0,1,5.76,2.25c1.89,2.35,1.3,2.92.14,4.07l-.23.22c-1,1-.12,2.91,3,6a21,21,0,0,0,3.13,2.68c1.3.85,2.28,1,2.91.33l.23-.23c1.14-1.16,1.72-1.75,4.06.14a2.68,2.68,0,0,1,1.21,1.75c0,.78-.76,1.53-1.45,2.19l-.42.4c-.58.58-2.23.5-4.12-.21a22.27,22.27,0,0,1-7.47-5.13A22.24,22.24,0,0,1,1.63,7C.92,5.14.83,3.48,1.41,2.9l.4-.42C2.46,1.8,3.19,1,4,1Z" transform="translate(0.07 0.07)"/></svg>