<svg id="Layer_1" data-name="Layer 1" xmlns="http://www.w3.org/2000/svg" viewBox="0 0 50 50"><defs><style>.cls-1{fill:#2d6cec;}</style></defs><title>profile</title><path class="cls-1" d="M25,3.33a13.33,13.33,0,0,0-8.6,23.51l.06.05a13.34,13.34,0,0,0,7.36,3h0l.24,0h1.83l.24,0h0a13.34,13.34,0,0,0,7.36-3l.06-.05A13.33,13.33,0,0,0,25,3.33ZM23.08,19.58A6.07,6.07,0,0,1,21.65,17a.83.83,0,0,0-.36-.51,1.76,1.76,0,0,1-.45-.37V14.76l.25-.2.3-.24a.84.84,0,0,0,.27-.62V11.37a3.36,3.36,0,0,1,.83-2.17A3.35,3.35,0,0,1,25,8.33a3.43,3.43,0,0,1,2.6.89,3.16,3.16,0,0,1,.73,2.17v2.3a.84.84,0,0,0,.27.62l.3.24.25.2v1.36a1.75,1.75,0,0,1-.45.37.83.83,0,0,0-.36.51,6,6,0,0,1-1.44,2.57.83.83,0,0,0-.25.59v1.46a2.1,2.1,0,0,0,1,2l3.56,1.94a2.3,2.3,0,0,1,.63.5l-.1.07-.18.13-.17.12-.26.17-.08.05-.36.21h0a11.68,11.68,0,0,1-5.23,1.49h-1a11.68,11.68,0,0,1-5.23-1.5h0l-.37-.22-.07,0-.28-.18-.15-.1-.2-.14-.09-.07a2.3,2.3,0,0,1,.63-.5l3.56-1.94a2.1,2.1,0,0,0,1-2V20.17A.83.83,0,0,0,23.08,19.58ZM33.16,25a4,4,0,0,0-1.1-.88l-3.56-1.94s-.18-.1-.18-.54V20.5a7.74,7.74,0,0,0,1.56-2.8,2,2,0,0,0,.94-1.52V14.59A1.68,1.68,0,0,0,30,13.3V11.47a4.8,4.8,0,0,0-1.16-3.36A5,5,0,0,0,25,6.67,4.94,4.94,0,0,0,21.3,8,5,5,0,0,0,20,11.4V13.3a1.68,1.68,0,0,0-.83,1.3v1.59a2,2,0,0,0,.94,1.52,7.74,7.74,0,0,0,1.56,2.8v1.13c0,.45-.13.52-.18.54l-3.56,1.94a4,4,0,0,0-1.1.88,11.67,11.67,0,1,1,16.32,0Z"/><path class="cls-1" d="M39.17,0H10.83a2.5,2.5,0,0,0-2.5,2.5v45a2.5,2.5,0,0,0,2.5,2.5H39.17a2.5,2.5,0,0,0,2.5-2.5V2.5A2.5,2.5,0,0,0,39.17,0ZM15.83,48.33V46.67H34.17v1.67ZM40,47.5a.83.83,0,0,1-.83.83H35.83v-2.5A.83.83,0,0,0,35,45H15a.83.83,0,0,0-.83.83v2.5H10.83A.83.83,0,0,1,10,47.5V2.5a.83.83,0,0,1,.83-.83H39.17A.83.83,0,0,1,40,2.5Z"/><path class="cls-1" d="M31.67,33.33a.83.83,0,1,0,0-1.67H18.33a.83.83,0,1,0,0,1.67Z"/><path class="cls-1" d="M13.33,37.5a.83.83,0,0,0,.83.83h5a.83.83,0,1,0,0-1.67h-5A.83.83,0,0,0,13.33,37.5Z"/><path class="cls-1" d="M20.83,40H14.17a.83.83,0,1,0,0,1.67h6.67a.83.83,0,1,0,0-1.67Z"/><path class="cls-1" d="M34.17,40h-5a.83.83,0,1,0,0,1.67h5a.83.83,0,1,0,0-1.67Z"/><path class="cls-1" d="M35.83,36.67H29.17a.83.83,0,1,0,0,1.67h6.67a.83.83,0,0,0,0-1.67Z"/></svg>