<svg id="Layer_1" data-name="Layer 1" xmlns="http://www.w3.org/2000/svg" viewBox="0 0 50 50"><defs><style>.cls-1{fill:#2d6cec;}.cls-2{fill:none;}</style></defs><title>promo-music</title><path class="cls-1" d="M12.26,7A12.28,12.28,0,0,0,0,19.22c0,3.46,1.71,5.93,3.52,8.53,1.69,2.43,3.43,4.95,4,8.6.48,2.91,1.56,4.9,3.19,5.93a5,5,0,0,0,2.72.76,6.71,6.71,0,0,0,1.88-.28c3.19-.92,6-7.36,6.27-8.09a.94.94,0,0,0-1.74-.73c-1,2.44-3.29,6.49-5.05,7a3.78,3.78,0,0,1-3.07-.27C10.6,40,9.81,38.4,9.42,36,8.74,32,6.79,29.16,5.07,26.68s-3.18-4.59-3.18-7.46a10.38,10.38,0,1,1,20.75,0,.94.94,0,0,0,1.89,0A12.28,12.28,0,0,0,12.26,7Z"/><path class="cls-1" d="M16.47,25.86A12.47,12.47,0,0,0,17,19c-.56-2.25-2.07-3.78-3.85-3.9-.89-.06-3.11.19-4.54,3.78a.94.94,0,0,0,1.75.7C11,17.87,12,16.92,13,17s1.79,1,2.15,2.48a11.44,11.44,0,0,1-.87,6.9,1,1,0,0,0-.07.17,2.83,2.83,0,1,0,2.29-.66ZM16,29.59a.94.94,0,1,1,.94-.94A.94.94,0,0,1,16,29.59Z"/><path class="cls-1" d="M49.06,24.91H43.4a.93.93,0,0,0-.74.34l-2.72,3.39L35.79,17a1,1,0,0,0-.91-.63.94.94,0,0,0-.88.68l-4.21,14.3-2.64-3.29a.93.93,0,0,0-.74-.34H20.75a.94.94,0,0,0,0,1.89H26L29.45,34a.94.94,0,0,0,.74.35l.18,0a1,1,0,0,0,.72-.66L35,20.38l3.74,10.48a1,1,0,0,0,1.63.29l3.49-4.35h5.21a.94.94,0,1,0,0-1.89Z"/><rect class="cls-2" width="50" height="50"/></svg>