<svg id="Layer_1" data-name="Layer 1" xmlns="http://www.w3.org/2000/svg" viewBox="0 0 50 50"><defs><style>.cls-1{fill:#2d6cec;}.cls-2{fill:none;}</style></defs><title>royalty-music</title><path class="cls-1" d="M25,33.33A8.36,8.36,0,0,0,33.33,25a8.25,8.25,0,0,0-.91-3.77l11.46-10a23.18,23.18,0,0,1,4.45,13,.83.83,0,0,0,.83.83.79.79,0,0,0,.83-.83A25,25,0,1,0,24.17,50a.83.83,0,0,0,0-1.67,23.18,23.18,0,0,1-13-4.48L21.33,32.47A8.26,8.26,0,0,0,25,33.33ZM42.75,9.83l-11.24,10-.29-.34v0a8.45,8.45,0,0,0-1-1l10-11.24A25.2,25.2,0,0,1,42.75,9.83Zm-36.63,29A23.39,23.39,0,0,1,38.88,6.19L28.78,17.58A8.25,8.25,0,0,0,25,16.67,8.36,8.36,0,0,0,16.67,25a8.25,8.25,0,0,0,.91,3.77Zm3.79,4a26.85,26.85,0,0,1-2.67-2.67l11.24-9.9.28.34v0a8.44,8.44,0,0,0,1,1ZM18.33,25A6.67,6.67,0,1,1,25,31.67,6.69,6.69,0,0,1,18.33,25Z"/><path class="cls-1" d="M29.17,25A4.17,4.17,0,1,0,25,29.17,4.13,4.13,0,0,0,29.17,25ZM22.5,25A2.5,2.5,0,1,1,25,27.5,2.46,2.46,0,0,1,22.5,25Z"/><path class="cls-1" d="M48.55,35.49,42.21,39.4l-3.15-8.5a.85.85,0,0,0-.79-.55h0a.85.85,0,0,0-.79.55l-3.25,8.53-6.67-3.95a.85.85,0,0,0-1.14,1.2l7.44,11.1a.85.85,0,0,0,.71.38h8a.85.85,0,0,0,.74-.42l6.45-11.1a.85.85,0,0,0-1.18-1.15Zm-6.49,11H35l-5.1-7.62,4.32,2.56A.85.85,0,0,0,35.45,41l2.8-7.36L41,41a.85.85,0,0,0,1.24.43l4.34-2.68Z"/><rect class="cls-2" width="50" height="50"/></svg>