<svg id="Capa_1" data-name="Capa 1" xmlns="http://www.w3.org/2000/svg" viewBox="0 0 18 18"><defs><style>.cls-1{fill:#4482ff;}</style></defs><title>search</title><path class="cls-1" d="M17.68,16.2l-4-4a7.63,7.63,0,0,0,1.69-4.66A7.57,7.57,0,0,0,7.73,0,7.59,7.59,0,0,0,0,7.52,7.57,7.57,0,0,0,7.62,15a8.17,8.17,0,0,0,4.45-1.38l4.13,4a1.06,1.06,0,0,0,1.8-.74A1.14,1.14,0,0,0,17.68,16.2ZM7.62,2.12a5.47,5.47,0,0,1,5.51,5.51,5.54,5.54,0,0,1-5.51,5.51A5.63,5.63,0,0,1,2.12,7.52,5.38,5.38,0,0,1,7.62,2.12Z"/></svg>