<svg id="Layer_1" data-name="Layer 1" xmlns="http://www.w3.org/2000/svg" viewBox="0 0 50 50"><defs><style>.cls-1{fill:#2d6cec;}</style></defs><title>smartphone</title><path class="cls-1" d="M25,4.17h4.17a.83.83,0,0,0,0-1.67H25a.83.83,0,1,0,0,1.67Z"/><path class="cls-1" d="M21.67,4.17h.83a.83.83,0,1,0,0-1.67h-.83a.83.83,0,1,0,0,1.67Z"/><path class="cls-1" d="M46.64,9.17H40V3.3A3.3,3.3,0,0,0,36.7,0H15a3.3,3.3,0,0,0-3.3,3.3V7.5a.83.83,0,0,0-.83.83v.83a.83.83,0,0,0,.83.83v.83a.83.83,0,0,0-.83.83v.83a.83.83,0,0,0,.83.83V17.5H3.36A3.36,3.36,0,0,0,0,20.86V32.47a3.36,3.36,0,0,0,3.36,3.36h8.31V46.7A3.3,3.3,0,0,0,15,50H36.7A3.3,3.3,0,0,0,40,46.7V27.5h6.64A3.36,3.36,0,0,0,50,24.14V12.53A3.36,3.36,0,0,0,46.64,9.17ZM15,1.67H36.7A1.63,1.63,0,0,1,38.33,3.3V5h-25V3.3A1.63,1.63,0,0,1,15,1.67ZM1.67,32.47V20.86a1.69,1.69,0,0,1,1.69-1.69H18.31A1.69,1.69,0,0,1,20,20.86V32.47a1.69,1.69,0,0,1-1.69,1.69.83.83,0,0,0-.77.52l-.89,2.23-.89-2.23a.83.83,0,0,0-.77-.52H3.36A1.69,1.69,0,0,1,1.67,32.47ZM13.33,46.7V43.33h10.3a3.33,3.33,0,0,0,0,5H15A1.63,1.63,0,0,1,13.33,46.7Zm12.5.8a1.67,1.67,0,1,1,1.67-1.67A1.67,1.67,0,0,1,25.83,47.5Zm10.87.83H28a3.33,3.33,0,0,0,0-5h10.3V46.7A1.63,1.63,0,0,1,36.7,48.33Zm1.63-6.67h-25V35.83h1.08l1.46,3.64a.83.83,0,0,0,1.55,0l1.48-3.69a3.36,3.36,0,0,0,2.77-3.31V20.86a3.36,3.36,0,0,0-3.36-3.36h-5V6.67h25v2.5H31.69a3.36,3.36,0,0,0-3.36,3.36V24.14a3.36,3.36,0,0,0,2.77,3.31l1.48,3.69a.83.83,0,0,0,1.55,0l1.46-3.64h2.74V41.67Zm10-17.53a1.69,1.69,0,0,1-1.69,1.69H35a.83.83,0,0,0-.77.52l-.89,2.23-.89-2.23a.83.83,0,0,0-.77-.52A1.69,1.69,0,0,1,30,24.14V12.53a1.69,1.69,0,0,1,1.69-1.69H46.64a1.69,1.69,0,0,1,1.69,1.69V24.14Z"/><path class="cls-1" d="M35.83,15.83H42.5a.83.83,0,0,0,0-1.67H35.83a.83.83,0,0,0,0,1.67Z"/><path class="cls-1" d="M42.5,20.83H35.83a.83.83,0,0,0,0,1.67H42.5a.83.83,0,0,0,0-1.67Z"/><path class="cls-1" d="M45,17.5H33.33a.83.83,0,0,0,0,1.67H45a.83.83,0,0,0,0-1.67Z"/><path class="cls-1" d="M7.5,24.17h6.67a.83.83,0,1,0,0-1.67H7.5a.83.83,0,0,0,0,1.67Z"/><path class="cls-1" d="M15,30a.83.83,0,0,0-.83-.83H7.5a.83.83,0,1,0,0,1.67h6.67A.83.83,0,0,0,15,30Z"/><path class="cls-1" d="M17.5,26.67a.83.83,0,0,0-.83-.83H5A.83.83,0,1,0,5,27.5H16.67A.83.83,0,0,0,17.5,26.67Z"/></svg>