<svg id="Layer_1" data-name="Layer 1" xmlns="http://www.w3.org/2000/svg" viewBox="0 0 50 50"><defs><style>.cls-1{fill:none;}.cls-2{fill:#2d6cec;}</style></defs><title>social-design</title><rect class="cls-1" width="50" height="50"/><path class="cls-2" d="M5.55,32.65,7.9,30.3a.83.83,0,0,0-.51-1.42L.91,28.29a.83.83,0,0,0-.91.91l.59,6.48A.83.83,0,0,0,2,36.19l2.36-2.36L20.29,49.76a.83.83,0,1,0,1.18-1.18ZM1.75,30l3.71.34L2.09,33.75Z"/><path class="cls-2" d="M49.76,20.29,33.83,4.37,36.19,2A.83.83,0,0,0,35.68.59L29.19,0a.85.85,0,0,0-.67.24.84.84,0,0,0-.24.67l.59,6.48a.83.83,0,0,0,1.42.51l2.36-2.36L48.58,21.47a.83.83,0,0,0,1.18-1.18ZM30,1.75l3.71.34L30.38,5.47Z"/><path class="cls-2" d="M.59,7.39A.83.83,0,0,0,2,7.9L4.37,5.55l8.25,8.25a.83.83,0,1,0,1.18-1.18L5.55,4.37,7.9,2A.83.83,0,0,0,7.39.59L.91,0A.85.85,0,0,0,.24.24.84.84,0,0,0,0,.91Zm4.88-5.3L2.09,5.47,1.75,1.75Z"/><path class="cls-2" d="M24.4,11.07A13.34,13.34,0,1,0,33.83,15,13.24,13.24,0,0,0,24.4,11.07Zm8.25,21.58a11.67,11.67,0,1,1,3.42-8.25A11.68,11.68,0,0,1,32.65,32.65Z"/><path class="cls-2" d="M24.4,20.24a4.17,4.17,0,1,0,2.95,1.22A4.14,4.14,0,0,0,24.4,20.24Zm1.77,5.93a2.56,2.56,0,0,1-3.53,0,2.5,2.5,0,1,1,3.53,0Z"/></svg>