<svg xmlns="http://www.w3.org/2000/svg" width="15" height="6.5" viewBox="0 0 15 6.5">
  <metadata><?xpacket begin="﻿" id="W5M0MpCehiHzreSzNTczkc9d"?>
<x:xmpmeta xmlns:x="adobe:ns:meta/" x:xmptk="Adobe XMP Core 5.6-c138 79.159824, 2016/09/14-01:09:01        ">
   <rdf:RDF xmlns:rdf="http://www.w3.org/1999/02/22-rdf-syntax-ns#">
      <rdf:Description rdf:about=""/>
   </rdf:RDF>
</x:xmpmeta>
                                                                                                    
                                                                                                    
                                                                                                    
                                                                                                    
                                                                                                    
                                                                                                    
                                                                                                    
                                                                                                    
                                                                                                    
                                                                                                    
                                                                                                    
                                                                                                    
                                                                                                    
                                                                                                    
                                                                                                    
                                                                                                    
                                                                                                    
                                                                                                    
                                                                                                    
                                                                                                    
                           
<?xpacket end="w"?></metadata>
<defs>
    <style>
      .cls-1 {
        fill: #fff;
        fill-rule: evenodd;
      }
    </style>
  </defs>
  <path id="soundcloud" class="cls-1" d="M381.6,203.5a0.094,0.094,0,1,0-.187,0l-0.141,1.523,0.141,1.618a0.094,0.094,0,0,0,.187,0l0.141-1.618Zm0.516-1.055a0.114,0.114,0,0,1,.082.035,0.111,0.111,0,0,1,.035.082l0.118,2.461-0.118,1.618a0.111,0.111,0,0,1-.035.082,0.114,0.114,0,0,1-.082.035,0.1,0.1,0,0,1-.117-0.117l-0.117-1.618L382,202.562A0.1,0.1,0,0,1,382.117,202.445Zm0.586-.562a0.159,0.159,0,0,1,.094.035,0.1,0.1,0,0,1,.047.082l0.117,3.047-0.117,1.594a0.1,0.1,0,0,1-.047.082,0.159,0.159,0,0,1-.094.035,0.1,0.1,0,0,1-.117-0.117l-0.117-1.594L382.586,202A0.1,0.1,0,0,1,382.7,201.883Zm-3.539,2.25a0.08,0.08,0,0,1,.07.07l0.117,0.82-0.117.821a0.08,0.08,0,0,1-.07.07c-0.031,0-.047-0.023-0.047-0.07L379,205.023l0.117-.82C379.117,204.156,379.133,204.133,379.164,204.133Zm0.563-.516a0.082,0.082,0,0,1,.07.07l0.164,1.336-0.164,1.336a0.083,0.083,0,0,1-.082.047,0.058,0.058,0,0,1-.059-0.07l-0.14-1.313,0.14-1.336A0.063,0.063,0,0,1,379.727,203.617Zm0.585-.258a0.063,0.063,0,0,1,.071.071l0.164,1.593-0.164,1.547a0.071,0.071,0,1,1-.141,0l-0.14-1.547,0.14-1.593A0.063,0.063,0,0,1,380.312,203.359Zm0.586-.047c0.063,0,.094.024,0.094,0.071l0.164,1.64-0.164,1.594a0.083,0.083,0,1,1-.164,0l-0.141-1.594,0.141-1.64A0.063,0.063,0,0,1,380.9,203.312Zm5.672-2.6a0.167,0.167,0,0,1,.094.164l0.094,4.148-0.094,1.524a0.18,0.18,0,0,1-.059.129,0.2,0.2,0,0,1-.281,0,0.179,0.179,0,0,1-.058-0.129l-0.094-1.524,0.094-4.148a0.2,0.2,0,0,1,.058-0.152,0.18,0.18,0,0,1,.129-0.059A0.159,0.159,0,0,1,386.57,200.711Zm-0.633.351a0.169,0.169,0,0,1,.094.165l0.071,3.82-0.071,1.523a0.179,0.179,0,0,1-.058.129,0.193,0.193,0,0,1-.141.059,0.156,0.156,0,0,1-.129-0.059,0.2,0.2,0,0,1-.047-0.129l-0.07-1.547,0.07-3.8a0.156,0.156,0,0,1,.07-0.153,0.283,0.283,0,0,1,.118-0.035A0.213,0.213,0,0,1,385.937,201.062Zm-2.6.54a0.155,0.155,0,0,1,.094.035,0.122,0.122,0,0,1,.046.1l0.118,3.281-0.118,1.571a0.144,0.144,0,0,1-.152.14,0.119,0.119,0,0,1-.129-0.14l-0.093-1.571,0.093-3.281A0.124,0.124,0,0,1,383.336,201.6Zm8.812,1.453a1.767,1.767,0,0,1,1.313.55,1.815,1.815,0,0,1,.539,1.313,1.84,1.84,0,0,1-1.852,1.84h-5.109a0.324,0.324,0,0,1-.152-0.082,0.207,0.207,0,0,1-.059-0.153v-5.836a0.191,0.191,0,0,1,.047-0.14,0.535,0.535,0,0,1,.141-0.094,3.366,3.366,0,0,1,1.195-.211,3.1,3.1,0,0,1,1.535.4,3.365,3.365,0,0,1,1.172,1.078,3.092,3.092,0,0,1,.527,1.476A1.9,1.9,0,0,1,392.148,203.055Zm-6.937-1.407a0.157,0.157,0,0,1,.164.188l0.094,3.211-0.094,1.523a0.2,0.2,0,0,1-.047.129,0.144,0.144,0,0,1-.117.059,0.2,0.2,0,0,1-.188-0.188l-0.07-1.523,0.07-3.211A0.2,0.2,0,0,1,385.211,201.648Zm-1.266-.187a0.159,0.159,0,0,1,.117.047,0.155,0.155,0,0,1,.047.117l0.094,3.4-0.094,1.571a0.159,0.159,0,0,1-.164.164,0.135,0.135,0,0,1-.093-0.047,0.155,0.155,0,0,1-.047-0.117l-0.094-1.571,0.094-3.4a0.155,0.155,0,0,1,.047-0.117A0.135,0.135,0,0,1,383.945,201.461Zm0.633,0.094a0.161,0.161,0,0,1,.164.164l0.094,3.3-0.094,1.571a0.155,0.155,0,0,1-.047.117,0.159,0.159,0,0,1-.117.047,0.145,0.145,0,0,1-.164-0.164l-0.094-1.571,0.094-3.3a0.159,0.159,0,0,1,.047-0.117A0.155,0.155,0,0,1,384.578,201.555Z" transform="translate(-379 -200.25)"/>
</svg>
