<svg id="Layer_1" data-name="Layer 1" xmlns="http://www.w3.org/2000/svg" viewBox="0 0 50 50"><defs><style>.cls-1{fill:#2d6cec;}</style></defs><title>speaker</title><path class="cls-1" d="M11.67,34.17a1.67,1.67,0,1,0,1.67,1.67A1.67,1.67,0,0,0,11.67,34.17Z"/><path class="cls-1" d="M11.67,19.17a1.67,1.67,0,1,0,1.67,1.67A1.67,1.67,0,0,0,11.67,19.17Z"/><path class="cls-1" d="M38.33,19.17A1.67,1.67,0,1,0,40,20.83,1.67,1.67,0,0,0,38.33,19.17Z"/><path class="cls-1" d="M38.33,34.17A1.67,1.67,0,1,0,40,35.83,1.67,1.67,0,0,0,38.33,34.17Z"/><path class="cls-1" d="M20.83,0H2.5a.79.79,0,0,0-.83.83v45a.79.79,0,0,0,.83.83v2.5a.79.79,0,0,0,.83.83H20a.79.79,0,0,0,.83-.83v-2.5a.79.79,0,0,0,.83-.83V.83A.79.79,0,0,0,20.83,0ZM3.33,1.67H20V45H3.33ZM19.17,48.33h-15V46.67h15Z"/><path class="cls-1" d="M47.5,0H29.17a.79.79,0,0,0-.83.83v45a.79.79,0,0,0,.83.83v2.5A.79.79,0,0,0,30,50H46.67a.79.79,0,0,0,.83-.83v-2.5a.79.79,0,0,0,.83-.83V.83A.79.79,0,0,0,47.5,0ZM30,1.67H46.67V45H30ZM45.83,48.33h-15V46.67h15Z"/><path class="cls-1" d="M38.33,30a5.83,5.83,0,1,0,5.83,5.83A5.8,5.8,0,0,0,38.33,30Zm0,10a4.17,4.17,0,1,1,4.17-4.17A4.13,4.13,0,0,1,38.33,40Z"/><path class="cls-1" d="M38.33,15a5.83,5.83,0,1,0,5.83,5.83A5.8,5.8,0,0,0,38.33,15Zm0,10a4.17,4.17,0,1,1,4.17-4.17A4.13,4.13,0,0,1,38.33,25Z"/><path class="cls-1" d="M38.33,11.67A3.33,3.33,0,1,0,35,8.33,3.34,3.34,0,0,0,38.33,11.67Zm0-5a1.67,1.67,0,1,1-1.67,1.67A1.67,1.67,0,0,1,38.33,6.67Z"/><path class="cls-1" d="M11.67,30a5.83,5.83,0,1,0,5.83,5.83A5.8,5.8,0,0,0,11.67,30Zm0,10a4.17,4.17,0,1,1,4.17-4.17A4.13,4.13,0,0,1,11.67,40Z"/><path class="cls-1" d="M11.67,15a5.83,5.83,0,1,0,5.83,5.83A5.8,5.8,0,0,0,11.67,15Zm0,10a4.17,4.17,0,1,1,4.17-4.17A4.13,4.13,0,0,1,11.67,25Z"/><path class="cls-1" d="M11.67,11.67A3.33,3.33,0,1,0,8.33,8.33,3.34,3.34,0,0,0,11.67,11.67Zm0-5A1.67,1.67,0,1,1,10,8.33,1.67,1.67,0,0,1,11.67,6.67Z"/></svg>