<svg xmlns="http://www.w3.org/2000/svg" width="13.563" height="13.562" viewBox="0 0 13.563 13.562">
  <metadata><?xpacket begin="﻿" id="W5M0MpCehiHzreSzNTczkc9d"?>
<x:xmpmeta xmlns:x="adobe:ns:meta/" x:xmptk="Adobe XMP Core 5.6-c138 79.159824, 2016/09/14-01:09:01        ">
   <rdf:RDF xmlns:rdf="http://www.w3.org/1999/02/22-rdf-syntax-ns#">
      <rdf:Description rdf:about=""/>
   </rdf:RDF>
</x:xmpmeta>
                                                                                                    
                                                                                                    
                                                                                                    
                                                                                                    
                                                                                                    
                                                                                                    
                                                                                                    
                                                                                                    
                                                                                                    
                                                                                                    
                                                                                                    
                                                                                                    
                                                                                                    
                                                                                                    
                                                                                                    
                                                                                                    
                                                                                                    
                                                                                                    
                                                                                                    
                                                                                                    
                           
<?xpacket end="w"?></metadata>
<defs>
    <style>
      .cls-1 {
        fill: #fff;
        fill-rule: evenodd;
      }
    </style>
  </defs>
  <path id="spotify" class="cls-1" d="M420.781,195.969a6.57,6.57,0,0,1,3.391.916,6.839,6.839,0,0,1,2.474,2.474,6.735,6.735,0,0,1,0,6.782,6.839,6.839,0,0,1-2.474,2.474,6.733,6.733,0,0,1-6.781,0,6.85,6.85,0,0,1-2.475-2.474,6.735,6.735,0,0,1,0-6.782,6.85,6.85,0,0,1,2.475-2.474A6.569,6.569,0,0,1,420.781,195.969Zm2.762,9.98a0.394,0.394,0,0,0,.287-0.123,0.409,0.409,0,0,0,.123-0.3,0.47,0.47,0,0,0-.068-0.273,0.68,0.68,0,0,0-.2-0.178,8.688,8.688,0,0,0-6.481-.711,0.426,0.426,0,0,0-.355.465,0.418,0.418,0,0,0,.109.287,0.382,0.382,0,0,0,.3.123,2.226,2.226,0,0,0,.273-0.027l0.055-.027a7.632,7.632,0,0,1,5.66.656A0.556,0.556,0,0,0,423.543,205.949Zm0.738-1.8a0.516,0.516,0,0,0,.52-0.52,0.613,0.613,0,0,0-.3-0.547,8.4,8.4,0,0,0-2.27-.916,10.645,10.645,0,0,0-2.6-.314,10.108,10.108,0,0,0-2.653.355,0.558,0.558,0,0,0-.437.574,0.482,0.482,0,0,0,.164.369,0.546,0.546,0,0,0,.383.151,1.208,1.208,0,0,0,.219-0.027l0.109-.028a8.477,8.477,0,0,1,3.473-.219,8.3,8.3,0,0,1,3.035,1.012l0.054,0.027A0.682,0.682,0,0,0,424.281,204.145Zm0.848-2.079a0.624,0.624,0,0,0,.437-0.177,0.59,0.59,0,0,0,.192-0.452,0.7,0.7,0,0,0-.356-0.628,10.056,10.056,0,0,0-2.625-.985,13.434,13.434,0,0,0-2.98-.328,10.957,10.957,0,0,0-3.227.438,0.655,0.655,0,0,0-.328.218,0.689,0.689,0,0,0,.041.875,0.589,0.589,0,0,0,.451.192,1.156,1.156,0,0,0,.3-0.055l0.055-.027a10.961,10.961,0,0,1,3.937-.246,9.092,9.092,0,0,1,3.746,1.066A0.63,0.63,0,0,0,425.129,202.066Z" transform="translate(-414 -195.969)"/>
</svg>
