<svg id="Layer_1" data-name="Layer 1" xmlns="http://www.w3.org/2000/svg" viewBox="0 0 25 25"><defs><style>.cls-1{fill:#2ebd59;}</style></defs><title>spotify-min</title><path class="cls-1" d="M12.5,0A12.5,12.5,0,1,0,25,12.5,12.5,12.5,0,0,0,12.5,0Zm5.73,18a.78.78,0,0,1-1.07.26c-2.94-1.79-6.63-2.2-11-1.21a.78.78,0,1,1-.35-1.52C10.59,14.48,14.68,14.94,18,17A.78.78,0,0,1,18.23,18Zm1.53-3.4a1,1,0,0,1-1.34.32A16.41,16.41,0,0,0,6,13.49a1,1,0,1,1-.57-1.86,18.24,18.24,0,0,1,14,1.66,1,1,0,0,1,.32,1.34h0Zm.13-3.54c-4-2.39-10.68-2.61-14.52-1.45A1.17,1.17,0,1,1,4.69,7.4C9.11,6.06,16.45,6.32,21.09,9.07a1.17,1.17,0,0,1-1.19,2Z"/></svg>