<svg id="Layer_1" data-name="Layer 1" xmlns="http://www.w3.org/2000/svg" viewBox="0 0 50 50"><defs><style>.cls-1{fill:#2d6cec;}.cls-2{fill:none;}</style></defs><title>status</title><path class="cls-1" d="M45.81,7.54H31.6a6.66,6.66,0,1,0-13.21,0H4.19A4.17,4.17,0,0,0,0,11.7V39.18a4.17,4.17,0,0,0,4.16,4.16H17.51V45H11.68a.83.83,0,0,0-.83.83v3.33a.83.83,0,0,0,.83.83H38.32a.83.83,0,0,0,.83-.83V45.84a.83.83,0,0,0-.83-.83H32.49V43.34H45.81A4.17,4.17,0,0,0,50,39.18V11.7A4.17,4.17,0,0,0,45.81,7.54ZM25,1.71a5,5,0,1,1-5,5A5,5,0,0,1,25,1.71ZM31.66,20H18.34a6.66,6.66,0,1,1,13.32,0Zm5.83,26.64v1.67h-25V46.67ZM19.17,45V43.34H30.83V45Zm29.14-5.83a2.5,2.5,0,0,1-2.5,2.5H4.19a2.5,2.5,0,0,1-2.5-2.5v-2.5H48.31v2.5Zm0-4.16H1.69V11.7a2.5,2.5,0,0,1,2.5-2.5H18.83a6.69,6.69,0,0,0,2.78,3.23A8.33,8.33,0,0,0,16.67,20H15a.83.83,0,0,0,0,1.67H35A.83.83,0,0,0,35,20H33.33a8.33,8.33,0,0,0-4.94-7.6A6.69,6.69,0,0,0,31.17,9.2H45.81a2.5,2.5,0,0,1,2.5,2.5V35Z"/><path class="cls-1" d="M29.69,26.55,27,26.16l-1.22-2.36a.87.87,0,0,0-1.48,0L23,26.16l-2.74.38A.83.83,0,0,0,19.85,28l2,1.82-.46,2.57a.83.83,0,0,0,1.19.89L25,32l2.46,1.23a.83.83,0,0,0,1.19-.89l-.46-2.57,2-1.82a.83.83,0,0,0-.45-1.43Zm-3,2.35a.83.83,0,0,0-.25.76L26.72,31l-1.34-.67a.83.83,0,0,0-.75,0L23.28,31l.25-1.37a.83.83,0,0,0-.25-.76l-1-.94,1.43-.2a.83.83,0,0,0,.63-.44L25,26l.67,1.31a.83.83,0,0,0,.63.44l1.43.2Z"/><path class="cls-1" d="M16.79,26.55l-2.74-.38-1.22-2.36a.87.87,0,0,0-1.48,0l-1.22,2.36-2.74.38A.83.83,0,0,0,6.95,28l2,1.82-.46,2.57a.83.83,0,0,0,1.19.89L12.1,32l2.46,1.23a.83.83,0,0,0,1.19-.89l-.46-2.57,2-1.82a.83.83,0,0,0-.45-1.43Zm-3,2.35a.83.83,0,0,0-.25.76L13.81,31l-1.34-.67a.83.83,0,0,0-.75,0L10.38,31l.25-1.37a.83.83,0,0,0-.25-.76l-1-.94,1.43-.2a.83.83,0,0,0,.63-.44L12.09,26l.67,1.31a.83.83,0,0,0,.63.44l1.43.2Z"/><path class="cls-1" d="M13,14.56l-2.74-.38L9.07,11.83a.87.87,0,0,0-1.48,0L6.38,14.18l-2.74.38A.83.83,0,0,0,3.19,16l2,1.82-.46,2.57a.83.83,0,0,0,1.19.89L8.33,20l2.46,1.23A.83.83,0,0,0,12,20.39l-.46-2.57,2-1.82A.83.83,0,0,0,13,14.56Zm-3,2.35a.83.83,0,0,0-.25.76L10,19l-1.34-.67a.83.83,0,0,0-.75,0L6.62,19l.25-1.37a.83.83,0,0,0-.25-.76L5.6,16,7,15.77a.83.83,0,0,0,.63-.44L8.33,14,9,15.33a.83.83,0,0,0,.63.44l1.43.2Z"/><path class="cls-1" d="M46.36,14.56l-2.74-.38-1.22-2.36a.87.87,0,0,0-1.48,0l-1.22,2.36L37,14.56A.83.83,0,0,0,36.52,16l2,1.82L38,20.39a.83.83,0,0,0,1.19.89L41.67,20l2.46,1.23a.83.83,0,0,0,1.19-.89l-.46-2.57,2-1.82a.83.83,0,0,0-.45-1.43Zm-3,2.35a.83.83,0,0,0-.25.76L43.38,19,42,18.37a.83.83,0,0,0-.75,0L40,19l.25-1.37a.83.83,0,0,0-.25-.76l-1-.94,1.43-.2a.83.83,0,0,0,.63-.44L41.67,14l.67,1.31a.83.83,0,0,0,.63.44l1.43.2Z"/><path class="cls-1" d="M42.6,26.55l-2.74-.38-1.22-2.36a.87.87,0,0,0-1.48,0l-1.22,2.36-2.74.38A.83.83,0,0,0,32.76,28l2,1.82-.46,2.57a.83.83,0,0,0,1.19.89L37.91,32l2.46,1.23a.83.83,0,0,0,1.19-.89L41.1,29.8l2-1.82a.83.83,0,0,0-.45-1.43Zm-3,2.35a.83.83,0,0,0-.25.76L39.62,31l-1.34-.67a.83.83,0,0,0-.75,0L36.19,31l.25-1.37a.83.83,0,0,0-.25-.76l-1-.94,1.43-.2a.83.83,0,0,0,.63-.44L37.91,26l.67,1.31a.83.83,0,0,0,.63.44l1.43.2Z"/><rect class="cls-2" width="50" height="50"/></svg>