<svg id="Layer_1" data-name="Layer 1" xmlns="http://www.w3.org/2000/svg" viewBox="0 0 15 13.48"><defs><style>.cls-1{fill:#4582ff;}</style></defs><title>telegram-app</title><g id="surface1"><path class="cls-1" d="M13.87,0a1.75,1.75,0,0,0-.53.13h0L11.2,1,6.94,2.81.89,5.35l0,0a1.86,1.86,0,0,0-.42.22,1,1,0,0,0-.33.33A1,1,0,0,0,0,6.53a1.21,1.21,0,0,0,.52.81,1.29,1.29,0,0,0,.39.2h0l2.82.94c.13.41.87,2.8,1,3.36a2.45,2.45,0,0,0,.33.7.79.79,0,0,0,.22.2l.11.06,0,0h0s0,0,0,0a.11.11,0,0,1,.07,0,1,1,0,0,0,.81-.15l0,0L8,11.18l2.79,2.14.06,0a1.51,1.51,0,0,0,1.48-.13,1.7,1.7,0,0,0,.44-.57l0-.06,2.16-11a1.38,1.38,0,0,0,0-.77A1.22,1.22,0,0,0,14.5.17,1,1,0,0,0,13.87,0Zm-.06,1.18a.17.17,0,0,1,0,.09h0L11.66,12.2s0,.06-.07.09-.07.06-.28,0L7.92,9.65l-2,1.88.42-2.77s5.33-5,5.57-5.18.15-.26.15-.26c0-.26-.35-.07-.35-.07l-7,4.35v0L1.29,6.46h.06L7.4,3.91l4.26-1.79,2.1-.89c0-.06,0-.06.06-.06Z"/></g></svg>