<svg xmlns="http://www.w3.org/2000/svg" width="30" height="30" viewBox="0 0 30 30">
  <metadata><?xpacket begin="﻿" id="W5M0MpCehiHzreSzNTczkc9d"?>
<x:xmpmeta xmlns:x="adobe:ns:meta/" x:xmptk="Adobe XMP Core 5.6-c138 79.159824, 2016/09/14-01:09:01        ">
   <rdf:RDF xmlns:rdf="http://www.w3.org/1999/02/22-rdf-syntax-ns#">
      <rdf:Description rdf:about=""/>
   </rdf:RDF>
</x:xmpmeta>
                                                                                                    
                                                                                                    
                                                                                                    
                                                                                                    
                                                                                                    
                                                                                                    
                                                                                                    
                                                                                                    
                                                                                                    
                                                                                                    
                                                                                                    
                                                                                                    
                                                                                                    
                                                                                                    
                                                                                                    
                                                                                                    
                                                                                                    
                                                                                                    
                                                                                                    
                                                                                                    
                           
<?xpacket end="w"?></metadata>
<defs>
    <style>
      .cls-1 {
        fill: #afafaf;
        fill-rule: evenodd;
      }
    </style>
  </defs>
  <path id="thumbs-up" class="cls-1" d="M697,2838.03a1.417,1.417,0,0,1,1.406-1.41h4.688a1.417,1.417,0,0,1,1.406,1.41v14.06a1.4,1.4,0,0,1-1.406,1.41h-4.688a1.4,1.4,0,0,1-1.406-1.41v-14.06Zm2.344,11.72a1.4,1.4,0,1,0,.41-1A1.374,1.374,0,0,0,699.344,2849.75Zm15.937,15a4.371,4.371,0,0,0,2.637-.76q1.582-1.17,1.582-3.99a6.669,6.669,0,0,0-.352-2.11,16.291,16.291,0,0,0-.82-1.64,7.9,7.9,0,0,1-.762-1.81h5.918a3.372,3.372,0,0,0,2.491-1.03,3.245,3.245,0,0,0,1.025-2.37,3.987,3.987,0,0,0-.322-1.58,4.612,4.612,0,0,0-.791-1.29h-0.059a4.943,4.943,0,0,0,.352-2.4,6.165,6.165,0,0,1-.821-4.63,4.755,4.755,0,0,0-1-2.05,3.2,3.2,0,0,0-.41-2.64,4.09,4.09,0,0,0-2.812-1.47,23.127,23.127,0,0,0-3.809-.23h-0.176a12.513,12.513,0,0,0-3.867.64,30.284,30.284,0,0,0-3.193,1.26,8.311,8.311,0,0,1-3.018.91,0.671,0.671,0,0,0-.5.21,0.663,0.663,0,0,0-.205.5v12.53a0.545,0.545,0,0,0,.234.47,31.486,31.486,0,0,1,2.871,3.69,18.393,18.393,0,0,0,2.344,2.93,4.218,4.218,0,0,1,.938,1.59,13.559,13.559,0,0,1,.527,1.87v0.06a16.444,16.444,0,0,0,.644,2.05A1.725,1.725,0,0,0,715.281,2864.75Z" transform="translate(-697 -2834.75)"/>
</svg>
