<svg xmlns="http://www.w3.org/2000/svg" width="30" height="30" viewBox="0 0 30 30">
  <metadata><?xpacket begin="﻿" id="W5M0MpCehiHzreSzNTczkc9d"?>
<x:xmpmeta xmlns:x="adobe:ns:meta/" x:xmptk="Adobe XMP Core 5.6-c138 79.159824, 2016/09/14-01:09:01        ">
   <rdf:RDF xmlns:rdf="http://www.w3.org/1999/02/22-rdf-syntax-ns#">
      <rdf:Description rdf:about=""/>
   </rdf:RDF>
</x:xmpmeta>
                                                                                                    
                                                                                                    
                                                                                                    
                                                                                                    
                                                                                                    
                                                                                                    
                                                                                                    
                                                                                                    
                                                                                                    
                                                                                                    
                                                                                                    
                                                                                                    
                                                                                                    
                                                                                                    
                                                                                                    
                                                                                                    
                                                                                                    
                                                                                                    
                                                                                                    
                                                                                                    
                           
<?xpacket end="w"?></metadata>
<defs>
    <style>
      .cls-1 {
        fill: #afafaf;
        fill-rule: evenodd;
      }
    </style>
  </defs>
  <path id="thumbs-down" class="cls-1" d="M783.094,2836.87a1.417,1.417,0,0,1,1.406,1.41v14.06a1.4,1.4,0,0,1-1.406,1.41h-4.688a1.4,1.4,0,0,1-1.406-1.41v-14.06a1.417,1.417,0,0,1,1.406-1.41h4.688Zm-2.344,14.54a1.4,1.4,0,1,0-1-.41A1.368,1.368,0,0,0,780.75,2851.41Zm18.75-22.91q0-2.82-1.582-3.99a4.371,4.371,0,0,0-2.637-.76,1.725,1.725,0,0,0-1.348,1.29,16.444,16.444,0,0,0-.644,2.05v0.06a13.559,13.559,0,0,1-.527,1.87,4.218,4.218,0,0,1-.938,1.59,18.393,18.393,0,0,0-2.344,2.93,31.486,31.486,0,0,1-2.871,3.69,0.545,0.545,0,0,0-.234.47v12.53a0.663,0.663,0,0,0,.205.5,0.671,0.671,0,0,0,.5.21,8.311,8.311,0,0,1,3.018.91,30.284,30.284,0,0,0,3.193,1.26,12.816,12.816,0,0,0,3.867.64h0.176a23.127,23.127,0,0,0,3.809-.23,4.09,4.09,0,0,0,2.812-1.47,3.2,3.2,0,0,0,.41-2.64,4.755,4.755,0,0,0,1-2.05,6.165,6.165,0,0,1,.821-4.63,4.925,4.925,0,0,0-.352-2.4h0.059a4.612,4.612,0,0,0,.791-1.29,4.022,4.022,0,0,0,.322-1.58,3.245,3.245,0,0,0-1.025-2.37,3.372,3.372,0,0,0-2.491-1.03h-5.918a7.9,7.9,0,0,1,.762-1.81,16.291,16.291,0,0,0,.82-1.64A6.669,6.669,0,0,0,799.5,2828.5Z" transform="translate(-777 -2823.75)"/>
</svg>
