<svg id="Layer_1" data-name="Layer 1" xmlns="http://www.w3.org/2000/svg" viewBox="0 0 50 50"><defs><style>.cls-1{fill:none;}.cls-2{fill:#2d6cec;}</style></defs><title>translate</title><rect class="cls-1" x="0.08" width="50" height="50"/><path class="cls-2" d="M44.16,26.62a.82.82,0,0,0,0-.22l0-.08a.82.82,0,0,0-.16-.24l-5.83-5.83a.82.82,0,0,0-.24-.16l-.08,0a.82.82,0,0,0-.22,0H25.83V.83a.83.83,0,1,0-1.67,0v.83H12.45a.81.81,0,0,0-.22,0l-.07,0a.82.82,0,0,0-.25.16L6.08,7.74A.82.82,0,0,0,5.91,8l0,.08a.82.82,0,0,0,0,.21s0,0,0,.05v20A1.67,1.67,0,0,0,7.5,30H24.17V49.17a.83.83,0,1,0,1.67,0v-.83H42.5a1.67,1.67,0,0,0,1.67-1.67v-20S44.16,26.63,44.16,26.62ZM11.67,4.51v3h-3Zm12.5,16.32v7.5H7.5V9.17h4.17A1.67,1.67,0,0,0,13.33,7.5V3.33H24.17Zm14.17,2,3,3h-3ZM42.5,46.67H25.83v-25H36.67v4.17a1.67,1.67,0,0,0,1.67,1.67H42.5Z"/><path class="cls-2" d="M12.84,17.19l-1.1,2.47a.83.83,0,1,0,1.52.68l.89-2h3.36l.89,2a.83.83,0,0,0,1.52-.68l-1.1-2.47v0l-2.22-5-.07-.1a.56.56,0,0,0-.26-.26l-.09-.06h0l-.21,0-.11,0-.15,0-.17,0h0l-.1.07a.55.55,0,0,0-.26.25h0l-.07.1-2.22,5Zm3-2.64.94,2.12H14.89Z"/><path class="cls-2" d="M37.32,32.4A2.5,2.5,0,0,0,35,30.83H31.67a.83.83,0,0,0-.83.83v7.5a.83.83,0,0,0,.83.83h2.92a2.9,2.9,0,0,0,2.15-4.87A2.5,2.5,0,0,0,37.32,32.4Zm-2.74,5.94H32.5v-2.5h2.08a1.25,1.25,0,0,1,0,2.5ZM35,34.17H32.5V32.5H35a.83.83,0,0,1,0,1.67Z"/></svg>