<svg id="Layer_1" data-name="Layer 1" xmlns="http://www.w3.org/2000/svg" viewBox="0 0 50 50"><defs><style>.cls-1{fill:#2d6cec;}</style></defs><title>turntable</title><path class="cls-1" d="M40.87,8.38a.78.78,0,0,0-.83.83.83.83,0,0,0,1.66,0A.77.77,0,0,0,40.87,8.38Z"/><path class="cls-1" d="M37.38,5.63a5.13,5.13,0,0,0-1.27,4.85L32.69,13.9a14.94,14.94,0,1,0,.58,6.48L39.57,14a5,5,0,0,0,1.31.19,5,5,0,0,0,3.58-8.58A5.08,5.08,0,0,0,37.38,5.63ZM19.55,24.38h0a1,1,0,0,0,.17.25l2,2L17.55,28.3,15.3,26.05ZM31,22.63a13.34,13.34,0,1,1,.31-7.4l-3.9,3.9-7,3.79-.13-.13a.89.89,0,0,0-.92-.17L13.46,25a.86.86,0,0,0-.5.59,1.17,1.17,0,0,0,.25.75l3.5,3.5a.76.76,0,0,0,.59.25h.33l5.92-2.41A.86.86,0,0,0,24,27a1.3,1.3,0,0,0-.07-.42L30.71,23l.17-.17Zm.84-3.17h0L29.8,21.54l-7,3.76-1.17-1.17,6.75-3.5.17-.17,8.33-8.33a1.32,1.32,0,0,0,.5.66c.2.13.33.25.51.38l.16.12Zm11.41-7.83a3.32,3.32,0,0,1-3.3.87.73.73,0,0,0-.28-.21,2.82,2.82,0,0,1-1.16-.75,3.55,3.55,0,0,1-.75-1.16.7.7,0,0,0-.12-.21,3.39,3.39,0,0,1,3.2-4.3,3.62,3.62,0,0,1,2.41,1A3.34,3.34,0,0,1,43.29,11.63Z"/><path class="cls-1" d="M18.38,21.72A3.33,3.33,0,1,0,15,18.39,3.34,3.34,0,0,0,18.38,21.72Zm0-5a1.67,1.67,0,1,1-1.67,1.67A1.68,1.68,0,0,1,18.38,16.72Z"/><path class="cls-1" d="M7.55,46.71a3.33,3.33,0,0,0,2.86-5L11,41a.82.82,0,1,0-1.16-1.16l-.63.63a3.33,3.33,0,1,0-1.7,6.19Zm0-5a1.66,1.66,0,0,1,1.08.41l.08.09.1.09a1.67,1.67,0,1,1-1.26-.59Z"/><path class="cls-1" d="M17.55,46.71a3.34,3.34,0,0,0,3.22-2.5h.94a.83.83,0,0,0,0-1.66h-.94a3.33,3.33,0,1,0-3.22,4.16Zm0-5a1.67,1.67,0,1,1-1.67,1.67A1.68,1.68,0,0,1,17.55,41.71Z"/><path class="cls-1" d="M27.54,46.71a3.33,3.33,0,0,0,.83-6.55v-.94a.83.83,0,0,0-1.66,0v.94a3.33,3.33,0,0,0,.83,6.55Zm0-5a1.67,1.67,0,1,1-1.67,1.67A1.68,1.68,0,0,1,27.54,41.71Z"/><path class="cls-1" d="M45.87.05H4.22A4.13,4.13,0,0,0,.05,4.22V45.88a4.13,4.13,0,0,0,4.17,4.17H45.88a4.13,4.13,0,0,0,4.17-4.17V4.22A4.14,4.14,0,0,0,45.87.05ZM1.72,4.22a2.46,2.46,0,0,1,2.5-2.5H45.88a2.46,2.46,0,0,1,2.5,2.5V35H1.72ZM48.37,45.87a2.46,2.46,0,0,1-2.5,2.5H4.22a2.46,2.46,0,0,1-2.5-2.5V36.7H48.38v9.17Z"/><path class="cls-1" d="M37.54,41.71v4.17a.83.83,0,0,0,1.66,0V41.71a.83.83,0,0,0,0-1.66v-.83a.83.83,0,0,0-1.66,0v.83a.83.83,0,1,0,0,1.66Z"/><path class="cls-1" d="M43.37,45v.83a.83.83,0,1,0,1.66,0V45a.83.83,0,0,0,0-1.66V39.21a.83.83,0,0,0-1.66,0v4.17a.83.83,0,1,0,0,1.66Z"/><path class="cls-1" d="M41.71,25H40a2.46,2.46,0,0,0-2.5,2.5v3.33a2.46,2.46,0,0,0,2.5,2.5h1.67a2.46,2.46,0,0,0,2.5-2.5V27.54A2.46,2.46,0,0,0,41.71,25Zm.83,5.83a.78.78,0,0,1-.83.83H40a.78.78,0,0,1-.83-.83V27.54a.78.78,0,0,1,.83-.83h1.67a.78.78,0,0,1,.83.83v3.33Z"/></svg>