<svg xmlns="http://www.w3.org/2000/svg" width="12" height="9.75" viewBox="0 0 12 9.75">
  <metadata><?xpacket begin="﻿" id="W5M0MpCehiHzreSzNTczkc9d"?>
<x:xmpmeta xmlns:x="adobe:ns:meta/" x:xmptk="Adobe XMP Core 5.6-c138 79.159824, 2016/09/14-01:09:01        ">
   <rdf:RDF xmlns:rdf="http://www.w3.org/1999/02/22-rdf-syntax-ns#">
      <rdf:Description rdf:about=""/>
   </rdf:RDF>
</x:xmpmeta>
                                                                                                    
                                                                                                    
                                                                                                    
                                                                                                    
                                                                                                    
                                                                                                    
                                                                                                    
                                                                                                    
                                                                                                    
                                                                                                    
                                                                                                    
                                                                                                    
                                                                                                    
                                                                                                    
                                                                                                    
                                                                                                    
                                                                                                    
                                                                                                    
                                                                                                    
                                                                                                    
                           
<?xpacket end="w"?></metadata>
<defs>
    <style>
      .cls-1 {
        fill: #fff;
        fill-rule: evenodd;
      }
    </style>
  </defs>
  <path id="twitter" class="cls-1" d="M355.758,201.062A5.414,5.414,0,0,0,357,199.773a5.283,5.283,0,0,1-1.406.4,2.443,2.443,0,0,0,1.078-1.36,4.988,4.988,0,0,1-1.57.586,2.8,2.8,0,0,0-.809-0.562,2.344,2.344,0,0,0-1-.211,2.374,2.374,0,0,0-1.219.328,2.418,2.418,0,0,0-.891.9,2.449,2.449,0,0,0-.328,1.231,3.438,3.438,0,0,0,.047.562,6.884,6.884,0,0,1-5.062-2.578,2.385,2.385,0,0,0-.047,2.414,2.722,2.722,0,0,0,.8.891,2.324,2.324,0,0,1-1.1-.328v0.047a2.362,2.362,0,0,0,.563,1.547,2.478,2.478,0,0,0,1.406.867,3.12,3.12,0,0,1-.656.07c-0.141,0-.289-0.008-0.446-0.023a2.458,2.458,0,0,0,.856,1.207,2.289,2.289,0,0,0,1.441.48,4.88,4.88,0,0,1-3.07,1.055q-0.328,0-.586-0.024a7.092,7.092,0,0,0,7.594,0,6.7,6.7,0,0,0,2.367-2.648,6.949,6.949,0,0,0,.82-3.258A1.455,1.455,0,0,0,355.758,201.062Z" transform="translate(-345 -198.625)"/>
</svg>
