<svg id="Layer_1" data-name="Layer 1" xmlns="http://www.w3.org/2000/svg" viewBox="0 0 15 16.42"><defs><style>.cls-1{fill:#fff;}</style></defs><title>viber-hover</title><path class="cls-1" d="M3.61,16.37V16s0-1.64,0-2.47v-.05l0,0v0h0a.09.09,0,0,1-.07,0,1.62,1.62,0,0,0-.41-.16,3.33,3.33,0,0,1-.81-.35A4.49,4.49,0,0,1,.48,10.27a10.25,10.25,0,0,1-.34-4,15.86,15.86,0,0,1,.28-2A4.56,4.56,0,0,1,3.15.85,8.79,8.79,0,0,1,5.9.14c.53-.05,1-.09,1.45-.09h.49a17.38,17.38,0,0,1,1.9.18,7.5,7.5,0,0,1,3.19,1.09,4,4,0,0,1,1.64,2.33,13.68,13.68,0,0,1,.35,4.9,8,8,0,0,1-.76,2.84,3.66,3.66,0,0,1-2,1.83,9.28,9.28,0,0,1-3,.56c-.74,0-1.52.07-2.28.09H6.8l0,0,0,.05-.11.11c-.58.63-2.17,2.15-2.19,2.17l-.12.12H3.61ZM7.49.83A11.48,11.48,0,0,0,5.93.93a7.6,7.6,0,0,0-2.5.65A3.66,3.66,0,0,0,1.15,4.37C1,5.08.94,5.71.89,6.35a10.07,10.07,0,0,0,.32,3.7,3.5,3.5,0,0,0,1.48,2.15,6.09,6.09,0,0,0,.6.25l.55.21a1.41,1.41,0,0,1,.41.32.93.93,0,0,1,.16.53v1.64C4.82,14.76,5.62,14,6,13.55l0-.05a1.52,1.52,0,0,1,.23-.25.88.88,0,0,1,.55-.18C7.56,13.05,8.26,13,9,13h.09a8.17,8.17,0,0,0,2.75-.51A3,3,0,0,0,13.45,11a7.26,7.26,0,0,0,.69-2.56,12.55,12.55,0,0,0-.34-4.62,3.32,3.32,0,0,0-1.32-1.9A6.81,6.81,0,0,0,9.62,1,15.79,15.79,0,0,0,7.8.79,1,1,0,0,1,7.49.83Zm2.33,11a1.27,1.27,0,0,1-.51-.11,11.17,11.17,0,0,1-5.68-5c-.18-.35-.34-.72-.48-1.09C3.09,5.38,3,5.24,3,5.08a.56.56,0,0,1,0-.25.3.3,0,0,0,0-.12A1.55,1.55,0,0,1,4.24,3.23a.72.72,0,0,1,.19,0A1.39,1.39,0,0,1,5,3.42,5.45,5.45,0,0,1,6.18,5.1.65.65,0,0,1,6,5.87.48.48,0,0,1,5.86,6a.8.8,0,0,0-.3,1.2,4.07,4.07,0,0,0,2.2,2,.57.57,0,0,0,.67-.14s0,0,0-.05l0,0a.91.91,0,0,1,.78-.51,1.29,1.29,0,0,1,.76.28l.65.48c.12.09.25.18.37.28a.83.83,0,0,1,.21,1.31,2.19,2.19,0,0,1-1,.83A1,1,0,0,1,9.81,11.78Zm1.52-4.25a.22.22,0,0,1-.11,0,.4.4,0,0,1-.3-.48,3.08,3.08,0,0,0-3-3.74h0a2.79,2.79,0,0,0-.67.07l-.11,0A.41.41,0,0,1,6.75,3a.39.39,0,0,1,.32-.37,4.79,4.79,0,0,1,.86-.09,3.87,3.87,0,0,1,3.88,3.88,4.26,4.26,0,0,1-.09.83A.4.4,0,0,1,11.33,7.53Zm-1-.35A.42.42,0,0,1,10,7.09.37.37,0,0,1,9.9,6.7a1.94,1.94,0,0,0,0-.32,2,2,0,0,0-2-2h0a2.16,2.16,0,0,0-.34,0H7.5a.44.44,0,0,1-.32-.14.42.42,0,0,1-.05-.41.38.38,0,0,1,.32-.25,4,4,0,0,1,.46,0,2.86,2.86,0,0,1,2.82,2.79,3.43,3.43,0,0,1,0,.42v0a.42.42,0,0,1-.25.32A.25.25,0,0,1,10.29,7.18Zm-1-.32a.36.36,0,0,1-.19-.05.41.41,0,0,1-.19-.35,1,1,0,0,0-1-1,.41.41,0,0,1-.35-.19.34.34,0,0,1,0-.41.41.41,0,0,1,.35-.19A1.81,1.81,0,0,1,9.69,6.46h0a.41.41,0,0,1-.19.35Z"/><path class="cls-1" d="M7.82.09a17.38,17.38,0,0,1,1.9.18A7.35,7.35,0,0,1,12.9,1.36a4,4,0,0,1,1.62,2.31,13.83,13.83,0,0,1,.35,4.89,7.8,7.8,0,0,1-.76,2.82,3.72,3.72,0,0,1-2,1.82,8.93,8.93,0,0,1-3,.56c-.76,0-1.52.07-2.28.09-.11,0-.09,0-.11,0s-.07.07-.18.18c-.58.63-2.19,2.17-2.19,2.17l-.11.11H3.64V16s0-1.62,0-2.47c0-.07,0-.09,0-.09a.44.44,0,0,0-.11-.07,11.6,11.6,0,0,1-1.22-.51A4.38,4.38,0,0,1,.5,10.25a10.47,10.47,0,0,1-.34-4,15.86,15.86,0,0,1,.28-2A4.5,4.5,0,0,1,3.15.88,8.69,8.69,0,0,1,5.88.18,13.26,13.26,0,0,1,7.33.09h.49M4.33,15.26C4.79,14.83,5.62,14,6,13.58a1.33,1.33,0,0,1,.26-.28.88.88,0,0,1,.51-.16c.76,0,1.5-.05,2.26-.09a8.3,8.3,0,0,0,2.77-.51,3.13,3.13,0,0,0,1.64-1.48,7.25,7.25,0,0,0,.69-2.58,12.8,12.8,0,0,0-.34-4.64,3.31,3.31,0,0,0-1.34-1.92A6.71,6.71,0,0,0,9.6,1,15.45,15.45,0,0,0,7.79.79h-.3A11.74,11.74,0,0,0,5.92.9a8.31,8.31,0,0,0-2.52.65A3.68,3.68,0,0,0,1.1,4.37C1,5,.89,5.7.84,6.35a10.2,10.2,0,0,0,.32,3.72,3.51,3.51,0,0,0,1.5,2.17c.23.14.74.28,1.15.46a1.09,1.09,0,0,1,.39.3.9.9,0,0,1,.14.51v1.75m3.6-12.7a3.84,3.84,0,0,1,3.83,3.81,3.45,3.45,0,0,1-.09.85.38.38,0,0,1-.34.28.16.16,0,0,1-.09,0A.35.35,0,0,1,11,7.06h0A3,3,0,0,0,11,6.37a3.12,3.12,0,0,0-3.12-3.1h0a3,3,0,0,0-.69.07l-.09,0a.36.36,0,0,1-.34-.28.35.35,0,0,1,.26-.42h0a4.6,4.6,0,0,1,.85-.09m-3.51.71a1.43,1.43,0,0,1,.51.21,5.86,5.86,0,0,1,1.2,1.66A.58.58,0,0,1,6,5.86.48.48,0,0,1,5.83,6a.85.85,0,0,0-.32,1.25,4.14,4.14,0,0,0,2.22,2A.71.71,0,0,0,8,9.33a.59.59,0,0,0,.44-.21s.05-.05.07-.09a.85.85,0,0,1,.74-.49,1.28,1.28,0,0,1,.74.28c.35.25.69.51,1,.76.51.37.51.74.19,1.25a2,2,0,0,1-1,.81.8.8,0,0,1-.41.09,1.18,1.18,0,0,1-.49-.11,11.11,11.11,0,0,1-5.66-5c-.26-.49-.44-1-.65-1.53A1.22,1.22,0,0,1,3,4.71,1.51,1.51,0,0,1,4.24,3.28a.6.6,0,0,1,.18,0m3.51.35A2.78,2.78,0,0,1,10.7,6.37a4,4,0,0,1,0,.46.37.37,0,0,1-.23.28.42.42,0,0,1-.14,0,.33.33,0,0,1-.21-.09A.31.31,0,0,1,10,6.72a2.16,2.16,0,0,0,0-.34,2.06,2.06,0,0,0-2-2.06h0a2.16,2.16,0,0,0-.34,0H7.52a.35.35,0,0,1-.28-.12.33.33,0,0,1-.05-.35.37.37,0,0,1,.28-.23,4,4,0,0,1,.46,0M7.87,4.67A1.77,1.77,0,0,1,9.64,6.44a.39.39,0,0,1-.18.32.32.32,0,0,1-.35,0,.39.39,0,0,1-.18-.32A1.06,1.06,0,0,0,7.87,5.38a.39.39,0,0,1-.32-.18.32.32,0,0,1,0-.35.39.39,0,0,1,.32-.18M7.82,0H7.33c-.44,0-.93,0-1.46.09A9.41,9.41,0,0,0,3.09.79,4.59,4.59,0,0,0,.34,4.2,16.57,16.57,0,0,0,.06,6.26a10.65,10.65,0,0,0,.34,4,4.52,4.52,0,0,0,1.83,2.63,4.71,4.71,0,0,0,.81.35,1.62,1.62,0,0,1,.41.16l.05,0,0,0v0c0,.83,0,2.45,0,2.47v.44h.76l0,0,.11-.11S6,14.76,6.59,14.13c0,0,.07-.09.11-.11s0,0,0-.05,0,0,0,0H6.8c.76,0,1.53-.05,2.28-.09a9.47,9.47,0,0,0,3-.56,3.76,3.76,0,0,0,2-1.85,7.73,7.73,0,0,0,.76-2.86,14,14,0,0,0-.35-4.92A4,4,0,0,0,12.9,1.31,7.38,7.38,0,0,0,9.69.19,13.17,13.17,0,0,0,7.82,0ZM4.42,15.06V13.51a1.09,1.09,0,0,0-.16-.56,1.07,1.07,0,0,0-.42-.32l-.55-.21a6.09,6.09,0,0,1-.6-.25,3.41,3.41,0,0,1-1.46-2.12A10.4,10.4,0,0,1,.91,6.37c.05-.63.14-1.27.26-2A3.57,3.57,0,0,1,3.41,1.64,8.1,8.1,0,0,1,5.9,1,11.48,11.48,0,0,1,7.45.88h.3A15.48,15.48,0,0,1,9.55,1a6.7,6.7,0,0,1,2.84,1,3.21,3.21,0,0,1,1.31,1.87A12.45,12.45,0,0,1,14,8.47,7.07,7.07,0,0,1,13.34,11a3.1,3.1,0,0,1-1.59,1.45A8.62,8.62,0,0,1,9,13H8.93c-.74,0-1.43.07-2.15.09a.93.93,0,0,0-.56.18,1.63,1.63,0,0,0-.25.25l0,.05C5.58,14,4.86,14.64,4.42,15.06ZM7.93,2.47a4.79,4.79,0,0,0-.86.09.44.44,0,0,0-.34.51v0a.45.45,0,0,0,.42.34.22.22,0,0,0,.11,0,2.79,2.79,0,0,1,.67-.07,3,3,0,0,1,3,3,2.79,2.79,0,0,1-.07.67.44.44,0,0,0,.34.53h0a.22.22,0,0,0,.11,0,.45.45,0,0,0,.42-.34,2.88,2.88,0,0,0,.09-.86A3.91,3.91,0,0,0,7.93,2.47Zm-3.51.71h0a.86.86,0,0,0-.21,0A1.61,1.61,0,0,0,2.85,4.71h0s0,.07,0,.12a1.19,1.19,0,0,0,0,.25,3.53,3.53,0,0,1,.18.46c.14.37.3.74.48,1.09a11.17,11.17,0,0,0,5.7,5.06,1.92,1.92,0,0,0,.53.12,1,1,0,0,0,.44-.11,2.09,2.09,0,0,0,1-.85A.89.89,0,0,0,11,9.49l-.37-.26L10,8.73a1.47,1.47,0,0,0-.79-.3A.93.93,0,0,0,8.4,9s0,0,0,0L8.33,9A.5.5,0,0,1,8,9.23a.54.54,0,0,1-.23-.05,4,4,0,0,1-2.17-2c-.25-.55-.19-.78.3-1.15A.61.61,0,0,0,6,5.89a.65.65,0,0,0,.18-.81A6.47,6.47,0,0,0,5,3.39H5A1.69,1.69,0,0,0,4.42,3.17Zm3.51.35a4.32,4.32,0,0,0-.48,0,.42.42,0,0,0-.35.28.44.44,0,0,0,.42.6h.07A1.94,1.94,0,0,1,9.9,6.35v0a1.94,1.94,0,0,1,0,.32.39.39,0,0,0,.16.42.36.36,0,0,0,.26.11.63.63,0,0,0,.18,0,.42.42,0,0,0,.28-.35V6.79a3.43,3.43,0,0,0,0-.42A2.88,2.88,0,0,0,7.93,3.53ZM7.87,4.59a.48.48,0,0,0-.39.21.43.43,0,0,0,0,.46.44.44,0,0,0,.39.21,1,1,0,0,1,1,1,.48.48,0,0,0,.21.39.43.43,0,0,0,.46,0,.44.44,0,0,0,.21-.39A1.85,1.85,0,0,0,7.87,4.59Z"/></svg>