<svg id="Layer_1" data-name="Layer 1" xmlns="http://www.w3.org/2000/svg" viewBox="0 0 50 50"><defs><style>.cls-1{fill:none;}.cls-2{fill:#2d6cec;}</style></defs><title>video-track</title><rect class="cls-1" width="50" height="50"/><path class="cls-2" d="M45,11.67H25.33L18.92,5.25A.76.76,0,0,0,18.33,5H5a5,5,0,0,0-5,5V40a5,5,0,0,0,5,5H45a5,5,0,0,0,5-5V16.67A5,5,0,0,0,45,11.67ZM48.33,40A3.34,3.34,0,0,1,45,43.33H5A3.34,3.34,0,0,1,1.67,40V10A3.34,3.34,0,0,1,5,6.67H18l6.42,6.42a.76.76,0,0,0,.58.25H45a3.34,3.34,0,0,1,3.33,3.33V40Z"/><path class="cls-2" d="M30.42,26.75l-8.33-5a.76.76,0,0,0-.83,0,.88.88,0,0,0-.42.75v10a.88.88,0,0,0,.42.75.75.75,0,0,0,.42.08.62.62,0,0,0,.42-.08l8.33-5a.88.88,0,0,0,0-1.5ZM22.5,31.08V24l5.92,3.58Z"/></svg>