<svg id="Capa_1" data-name="Capa 1" xmlns="http://www.w3.org/2000/svg" viewBox="0 0 50 49.15"><defs><style>.cls-1{fill:#2d6cec;}</style></defs><title>vinyls</title><path class="cls-1" d="M49.79,12.82l-.3-.32H48l.34-2.78A1.26,1.26,0,0,0,47,8.33H45V5.41a1.24,1.24,0,0,0-1.24-1.24H41.68V1.24A1.24,1.24,0,0,0,40.44,0H9.6A1.24,1.24,0,0,0,8.36,1.24V4.17H6.27A1.24,1.24,0,0,0,5,5.41V8.33H3a1.26,1.26,0,0,0-1.25,1.4l.34,2.76H.95a.9.9,0,0,0-.69.32L0,13.16,5,48A1.36,1.36,0,0,0,6.3,49.15H43.74A1.36,1.36,0,0,0,45.08,48L50,13.55A.9.9,0,0,0,49.79,12.82ZM10,1.67H40v2.5H10ZM6.69,5.83H43.35v2.5H6.69ZM3.46,10H46.58l-.31,2.5H3.77Zm40,37.49H6.57L1.83,14.16H48.22Z"/><path class="cls-1" d="M24.61,16.66C15.19,16.66,7.53,23,7.53,30.82S15.19,45,24.61,45s17.08-6.35,17.08-14.16S34,16.66,24.61,16.66Zm0,26.66c-8.5,0-15.41-5.61-15.41-12.5s6.91-12.5,15.41-12.5S40,23.93,40,30.82,33.1,43.32,24.61,43.32Z"/><path class="cls-1" d="M25.44,20.78a.83.83,0,0,0-.83-.83,15.46,15.46,0,0,0-9.12,2.91.83.83,0,0,0,1,1.35,13.8,13.8,0,0,1,8.14-2.6A.83.83,0,0,0,25.44,20.78Z"/><path class="cls-1" d="M25.44,23.9a.83.83,0,0,0-.83-.83,12,12,0,0,0-7.09,2.27.83.83,0,0,0,1,1.35,10.36,10.36,0,0,1,6.11-2A.83.83,0,0,0,25.44,23.9Z"/><path class="cls-1" d="M25.44,27a.83.83,0,0,0-.83-.83,8.57,8.57,0,0,0-5.09,1.64.83.83,0,1,0,1,1.35,6.92,6.92,0,0,1,4.1-1.32A.83.83,0,0,0,25.44,27Z"/><path class="cls-1" d="M32.82,37.59a13.8,13.8,0,0,1-8.14,2.6.83.83,0,1,0,0,1.67,15.45,15.45,0,0,0,9.12-2.92.83.83,0,1,0-1-1.35Z"/><path class="cls-1" d="M23.85,37.9a.83.83,0,0,0,.83.83,12,12,0,0,0,7.09-2.27.83.83,0,1,0-1-1.35,10.35,10.35,0,0,1-6.11,2A.83.83,0,0,0,23.85,37.9Z"/><path class="cls-1" d="M23.85,34.78a.83.83,0,0,0,.83.83A8.56,8.56,0,0,0,29.77,34a.83.83,0,0,0-1-1.35,6.91,6.91,0,0,1-4.1,1.32A.83.83,0,0,0,23.85,34.78Z"/><ellipse class="cls-1" cx="24.94" cy="30.81" rx="1.94" ry="1.41"/></svg>