<svg xmlns="http://www.w3.org/2000/svg" width="12.593" height="7.5" viewBox="0 0 12.593 7.5">
  <metadata><?xpacket begin="﻿" id="W5M0MpCehiHzreSzNTczkc9d"?>
<x:xmpmeta xmlns:x="adobe:ns:meta/" x:xmptk="Adobe XMP Core 5.6-c138 79.159824, 2016/09/14-01:09:01        ">
   <rdf:RDF xmlns:rdf="http://www.w3.org/1999/02/22-rdf-syntax-ns#">
      <rdf:Description rdf:about=""/>
   </rdf:RDF>
</x:xmpmeta>
                                                                                                    
                                                                                                    
                                                                                                    
                                                                                                    
                                                                                                    
                                                                                                    
                                                                                                    
                                                                                                    
                                                                                                    
                                                                                                    
                                                                                                    
                                                                                                    
                                                                                                    
                                                                                                    
                                                                                                    
                                                                                                    
                                                                                                    
                                                                                                    
                                                                                                    
                                                                                                    
                           
<?xpacket end="w"?></metadata>
<defs>
    <style>
      .cls-1 {
        fill: #fff;
        fill-rule: evenodd;
      }
    </style>
  </defs>
  <path id="vk" class="cls-1" d="M286.773,200.266a4.485,4.485,0,0,1-.562,1.171q-0.351.587-.844,1.36c-0.281.406-.43,0.617-0.445,0.633a0.672,0.672,0,0,0-.141.328,0.471,0.471,0,0,0,.141.281l0.211,0.234a8.863,8.863,0,0,1,1.9,2.391,0.468,0.468,0,0,1-.058.434,0.512,0.512,0,0,1-.411.152H285.18a0.749,0.749,0,0,1-.469-0.164,3.6,3.6,0,0,1-.5-0.5q-0.363-.409-0.645-0.691A2.668,2.668,0,0,0,282.18,205a0.414,0.414,0,0,0-.27.07,0.406,0.406,0,0,0-.082.305,6.691,6.691,0,0,0-.023.727v0.609a0.412,0.412,0,0,1-.141.4,1.692,1.692,0,0,1-.844.141,4.4,4.4,0,0,1-2.226-.656,6.221,6.221,0,0,1-1.969-1.875,15.139,15.139,0,0,1-2.016-3.75,3.647,3.647,0,0,1-.164-0.821,0.387,0.387,0,0,1,.469-0.4H276.3a0.56,0.56,0,0,1,.387.117,0.956,0.956,0,0,1,.222.422,13.6,13.6,0,0,0,.8,1.828,7.647,7.647,0,0,0,.844,1.336,1.151,1.151,0,0,0,.656.516,0.208,0.208,0,0,0,.2-0.106,0.954,0.954,0,0,0,.059-0.41v-2.039a1.689,1.689,0,0,0-.164-0.656,1.518,1.518,0,0,0-.235-0.363,0.583,0.583,0,0,1-.164-0.329,0.288,0.288,0,0,1,.106-0.222,0.356,0.356,0,0,1,.246-0.094h2.18a0.335,0.335,0,0,1,.293.117,0.729,0.729,0,0,1,.082.4v2.718a0.514,0.514,0,0,0,.07.3,0.211,0.211,0,0,0,.176.094,0.515,0.515,0,0,0,.246-0.082,1.841,1.841,0,0,0,.375-0.34,8.117,8.117,0,0,0,.89-1.219,12.266,12.266,0,0,0,.586-1.125l0.235-.469a0.588,0.588,0,0,1,.586-0.4h1.382Q286.915,199.75,286.773,200.266Z" transform="translate(-274.438 -199.75)"/>
</svg>
