<svg id="Layer_1" data-name="Layer 1" xmlns="http://www.w3.org/2000/svg" viewBox="0 0 20 17.3"><defs><style>.cls-1{fill:#4582ff;}</style></defs><title>weixin</title><circle class="cls-1" cx="15.74" cy="9.36" r="0.85"/><circle class="cls-1" cx="11.91" cy="9.36" r="0.85"/><path class="cls-1" d="M6,4.47A1.06,1.06,0,1,0,4.89,5.53,1.05,1.05,0,0,0,6,4.47Z"/><path class="cls-1" d="M18.21,14.13A4.91,4.91,0,0,0,20,10.43c0-2.62-2.26-4.87-5.26-5.26C14.09,2.17,11,0,7.45,0,3.34,0,0,2.87,0,6.38a5.87,5.87,0,0,0,2.45,4.68L1.38,14.32l-.19.55.49-.32L5.13,12.4a7.77,7.77,0,0,0,2.32.36c.28,0,.53,0,.81,0a6.38,6.38,0,0,0,5.57,3,7.26,7.26,0,0,0,2-.3L18.68,17l.45.26L19,16.81Zm-1.34-.55-.13.09,0,.15.23.83-.94-.51-.09,0-.09,0-.17,0a6.43,6.43,0,0,1-1.91.3c-2.7,0-4.89-1.81-4.89-4s2.19-4,4.89-4,4.89,1.81,4.89,4a3.69,3.69,0,0,1-1.62,3ZM3.51,11.94l.38-1.19,0-.17-.15-.09-.26-.15a4.8,4.8,0,0,1-2.26-4C1.28,3.57,4,1.28,7.45,1.28c2.83,0,5.3,1.6,6,3.83-3.26.19-5.77,2.49-5.77,5.32a4.41,4.41,0,0,0,.13,1.06H7.45a7.17,7.17,0,0,1-2.21-.34L5,11.09l-.09,0-.09,0Z"/><path class="cls-1" d="M10,5.53A1.06,1.06,0,1,0,8.94,4.47,1.05,1.05,0,0,0,10,5.53Z"/></svg>