<svg id="Layer_1" data-name="Layer 1" xmlns="http://www.w3.org/2000/svg" viewBox="0 0 15 15.08"><defs><style>.cls-1{fill:#4582ff;}</style></defs><title>whatsapp</title><g id="surface1"><path class="cls-1" d="M12.82,2.19A7.46,7.46,0,0,0,.08,7.46a7.61,7.61,0,0,0,1,3.74L0,15.08l4-1A7.44,7.44,0,0,0,7.54,15h0A7.49,7.49,0,0,0,12.82,2.19ZM7.54,13.68h0a6.21,6.21,0,0,1-3.17-.87l-.23-.14-2.34.62L2.43,11l-.15-.24a6.21,6.21,0,1,1,5.26,2.91ZM10.95,9c-.18-.09-1.1-.54-1.28-.6s-.3-.09-.42.09-.48.6-.59.74-.21.14-.41,0a4.58,4.58,0,0,1-1.5-.93,5.76,5.76,0,0,1-1-1.29A.27.27,0,0,1,5.8,6.7h0a3,3,0,0,0,.29-.33,2.22,2.22,0,0,0,.2-.32.37.37,0,0,0,0-.33c0-.09-.42-1-.57-1.38S5.39,4,5.27,4H4.91a.63.63,0,0,0-.5.24,2.11,2.11,0,0,0-.65,1.56,3.67,3.67,0,0,0,.77,1.94,8.17,8.17,0,0,0,3.18,2.81c.45.2.8.3,1.07.39A2.8,2.8,0,0,0,10,11a2,2,0,0,0,1.26-.89,1.47,1.47,0,0,0,.11-.89C11.28,9.19,11.13,9.13,10.95,9Z"/></g></svg>