<svg id="Capa_1" data-name="Capa 1" xmlns="http://www.w3.org/2000/svg" viewBox="0 0 50 50"><defs><style>.cls-1{fill:#2d6cec;}</style></defs><title>workstation</title><path class="cls-1" d="M45.83,0H4.17A4.17,4.17,0,0,0,0,4.17V45.83A4.17,4.17,0,0,0,4.17,50H45.83A4.17,4.17,0,0,0,50,45.83V4.17A4.17,4.17,0,0,0,45.83,0Zm2.5,45.83a2.5,2.5,0,0,1-2.5,2.5H4.17a2.5,2.5,0,0,1-2.5-2.5V4.17a2.5,2.5,0,0,1,2.5-2.5H45.83a2.5,2.5,0,0,1,2.5,2.5Z"/><path class="cls-1" d="M14.17,25h5a.83.83,0,0,0,.83-.83v-5a.83.83,0,0,0-.83-.83H17.5V5.83a.83.83,0,0,0-1.67,0v12.5H14.17a.83.83,0,0,0-.83.83v5A.83.83,0,0,0,14.17,25ZM15,20h3.33v3.33H15Z"/><path class="cls-1" d="M22.5,19.17h1.67v5a.83.83,0,0,0,1.67,0v-5H27.5a.83.83,0,0,0,.83-.83v-5a.83.83,0,0,0-.83-.83H25.83V5.83a.83.83,0,1,0-1.67,0V12.5H22.5a.83.83,0,0,0-.83.83v5A.83.83,0,0,0,22.5,19.17Zm.83-5h3.33V17.5H23.33Z"/><path class="cls-1" d="M30.83,11.67H32.5v12.5a.83.83,0,0,0,1.67,0V11.67h1.67a.83.83,0,0,0,.83-.83v-5A.83.83,0,0,0,35.83,5h-5a.83.83,0,0,0-.83.83v5A.83.83,0,0,0,30.83,11.67Zm.83-5H35V10H31.67Z"/><path class="cls-1" d="M42.08,18.33a2.92,2.92,0,1,0-2.92-2.92A2.92,2.92,0,0,0,42.08,18.33Zm0-4.17a1.25,1.25,0,1,1-1.25,1.25A1.25,1.25,0,0,1,42.08,14.17Z"/><path class="cls-1" d="M42.08,25.83a2.92,2.92,0,1,0-2.92-2.92A2.92,2.92,0,0,0,42.08,25.83Zm0-4.17a1.25,1.25,0,1,1-1.25,1.25A1.25,1.25,0,0,1,42.08,21.67Z"/><path class="cls-1" d="M42.08,10.83a2.92,2.92,0,1,0-2.92-2.92A2.92,2.92,0,0,0,42.08,10.83Zm0-4.17a1.25,1.25,0,1,1-1.25,1.25A1.25,1.25,0,0,1,42.08,6.67Z"/><path class="cls-1" d="M5.83,11.67H7.5v12.5a.83.83,0,0,0,1.67,0V11.67h1.67a.83.83,0,0,0,.83-.83v-5A.83.83,0,0,0,10.83,5h-5A.83.83,0,0,0,5,5.83v5A.83.83,0,0,0,5.83,11.67Zm.83-5H10V10H6.67Z"/><path class="cls-1" d="M45,29.17H5a.83.83,0,0,0-.83.83V45a.83.83,0,0,0,.83.83H45a.83.83,0,0,0,.83-.83V30A.83.83,0,0,0,45,29.17ZM5.83,35.83H9.17v3.33H5.83Zm5,0h3.33v3.33H10.83Zm5,0h3.33v3.33H15.83Zm5,0h3.33v3.33H20.83Zm5,0h3.33v3.33H25.83Zm5,0h3.33v3.33H30.83Zm5,0h3.33v3.33H35.83Zm5,0h3.33v3.33H40.83Zm3.33-1.67H40.83V30.83h3.33Zm-5,0H35.83V30.83h3.33Zm-5,0H30.83V30.83h3.33Zm-5,0H25.83V30.83h3.33Zm-5,0H20.83V30.83h3.33Zm-5,0H15.83V30.83h3.33Zm-5,0H10.83V30.83h3.33ZM5.83,30.83H9.17v3.33H5.83Zm0,10H9.17v3.33H5.83Zm5,0h3.33v3.33H10.83Zm5,0h3.33v3.33H15.83Zm5,0h3.33v3.33H20.83Zm5,0h3.33v3.33H25.83Zm5,0h3.33v3.33H30.83Zm5,0h3.33v3.33H35.83Zm8.33,3.33H40.83V40.83h3.33Z"/></svg>