<svg xmlns="http://www.w3.org/2000/svg" width="12.812" height="9" viewBox="0 0 12.812 9">
  <metadata><?xpacket begin="﻿" id="W5M0MpCehiHzreSzNTczkc9d"?>
<x:xmpmeta xmlns:x="adobe:ns:meta/" x:xmptk="Adobe XMP Core 5.6-c138 79.159824, 2016/09/14-01:09:01        ">
   <rdf:RDF xmlns:rdf="http://www.w3.org/1999/02/22-rdf-syntax-ns#">
      <rdf:Description rdf:about=""/>
   </rdf:RDF>
</x:xmpmeta>
                                                                                                    
                                                                                                    
                                                                                                    
                                                                                                    
                                                                                                    
                                                                                                    
                                                                                                    
                                                                                                    
                                                                                                    
                                                                                                    
                                                                                                    
                                                                                                    
                                                                                                    
                                                                                                    
                                                                                                    
                                                                                                    
                                                                                                    
                                                                                                    
                                                                                                    
                                                                                                    
                           
<?xpacket end="w"?></metadata>
<defs>
    <style>
      .cls-1 {
        fill: #fff;
        fill-rule: evenodd;
      }
    </style>
  </defs>
  <path id="youtube" class="cls-1" d="M461.891,200.406a10.652,10.652,0,0,1,.234,1.922l0.023,1.172-0.023,1.172a10.766,10.766,0,0,1-.234,1.945,1.664,1.664,0,0,1-1.149,1.125,16.583,16.583,0,0,1-2.859.235L455.75,208l-2.133-.023a16.583,16.583,0,0,1-2.859-.235,1.664,1.664,0,0,1-1.149-1.125,10.766,10.766,0,0,1-.234-1.945l-0.023-1.172c0-.344.007-0.734,0.023-1.172a10.652,10.652,0,0,1,.234-1.922,1.639,1.639,0,0,1,1.149-1.148,16.583,16.583,0,0,1,2.859-.235L455.75,199l2.133,0.023a16.583,16.583,0,0,1,2.859.235A1.639,1.639,0,0,1,461.891,200.406Zm-7.454,5.016,3.352-1.922-3.352-1.9v3.82Z" transform="translate(-449.344 -199)"/>
</svg>
