<svg id="Layer_1" data-name="Layer 1" xmlns="http://www.w3.org/2000/svg" xmlns:xlink="http://www.w3.org/1999/xlink" viewBox="0 0 94.17 55"><defs><style>.cls-1{fill:url(#linear-gradient);}.cls-2{fill:url(#linear-gradient-2);}.cls-3{fill:url(#linear-gradient-3);}.cls-4{fill:url(#linear-gradient-4);}.cls-5{fill:url(#linear-gradient-5);}.cls-6{fill:url(#linear-gradient-6);}.cls-7{fill:url(#linear-gradient-7);}.cls-8{fill:url(#linear-gradient-8);}</style><linearGradient id="linear-gradient" x1="3617.38" y1="526.52" x2="3618.04" y2="526.52" gradientTransform="matrix(90.99, -90.99, -90.99, -90.99, -281230.9, 377129.14)" gradientUnits="userSpaceOnUse"><stop offset="0" stop-color="#0c6cb3"/><stop offset="0.29" stop-color="#1e84c4"/><stop offset="0.89" stop-color="#4cc0ef"/><stop offset="1" stop-color="#4cc0ef"/></linearGradient><linearGradient id="linear-gradient-2" x1="3617.38" y1="526.62" x2="3618.04" y2="526.62" xlink:href="#linear-gradient"/><linearGradient id="linear-gradient-3" x1="3617.38" y1="526.77" x2="3618.04" y2="526.77" xlink:href="#linear-gradient"/><linearGradient id="linear-gradient-4" x1="3617.38" y1="526.49" x2="3618.04" y2="526.49" xlink:href="#linear-gradient"/><linearGradient id="linear-gradient-5" x1="3617.38" y1="526.37" x2="3618.04" y2="526.37" xlink:href="#linear-gradient"/><linearGradient id="linear-gradient-6" x1="3617.38" y1="526.25" x2="3618.04" y2="526.25" xlink:href="#linear-gradient"/><linearGradient id="linear-gradient-7" x1="3617.38" y1="526.45" x2="3618.04" y2="526.45" xlink:href="#linear-gradient"/><linearGradient id="linear-gradient-8" x1="3617.38" y1="526.54" x2="3618.04" y2="526.54" xlink:href="#linear-gradient"/></defs><title>amazonmusic-logo</title><path class="cls-1" d="M62.67,23.85a4.89,4.89,0,0,1-2.81.74,15.16,15.16,0,0,1-5.17-.81,3.33,3.33,0,0,0-1-.22q-.44,0-.44.66v1a2.18,2.18,0,0,0,.15.74.91.91,0,0,0,.59.37,13.71,13.71,0,0,0,5.68,1A8.43,8.43,0,0,0,65,25.84a5.09,5.09,0,0,0,2-4.28,4.39,4.39,0,0,0-1-3,7.64,7.64,0,0,0-3.17-2.07L60,15.36a8.23,8.23,0,0,1-2.36-1.26,2.11,2.11,0,0,1-.59-1.55c0-1.62,1.18-2.44,3.62-2.44a15.43,15.43,0,0,1,4.06.59,3,3,0,0,0,.89.22c.3,0,.52-.22.52-.66v-1a1.25,1.25,0,0,0-.22-.74,1.13,1.13,0,0,0-.66-.37,15.32,15.32,0,0,0-4.8-.89,7.89,7.89,0,0,0-4.95,1.48,4.77,4.77,0,0,0-1.92,4c0,2.44,1.4,4.21,4.13,5.24l3.17,1.18A6.19,6.19,0,0,1,63,20.23a2.06,2.06,0,0,1,.59,1.48A2.39,2.39,0,0,1,62.67,23.85Z"/><path class="cls-2" d="M46.06,8.56v14a10,10,0,0,1-5.46,1.77,2.94,2.94,0,0,1-2.51-1,4.7,4.7,0,0,1-.81-3V8.56c0-.52-.22-.74-.74-.74H34.32c-.52,0-.74.22-.74.74V21.63A6.12,6.12,0,0,0,35,25.91a5.26,5.26,0,0,0,4.13,1.48,12,12,0,0,0,7.16-2.58l.22,1.33c.07.22.15.44.3.52a1.39,1.39,0,0,0,.59.15H49c.52,0,.74-.22.74-.74V8.56c0-.52-.22-.74-.74-.74H46.8A.66.66,0,0,0,46.06,8.56Z"/><path class="cls-3" d="M26,26.87h2.21c.52,0,.74-.22.74-.74V12.92a5.62,5.62,0,0,0-1.4-4.13,5.29,5.29,0,0,0-4-1.48A13,13,0,0,0,16.09,10c-.81-1.77-2.44-2.66-4.72-2.66a12.59,12.59,0,0,0-7,2.44L4.2,8.56c-.07-.22-.15-.44-.3-.52a1.39,1.39,0,0,0-.59-.15H1.62c-.52,0-.74.22-.74.74V26.21c0,.52.22.74.74.74H3.83c.52,0,.74-.22.74-.74V12A10,10,0,0,1,10,10.34a2.84,2.84,0,0,1,2.29.89A4.47,4.47,0,0,1,13.06,14V26.13c0,.52.22.74.74.74H16c.52,0,.74-.22.74-.74V12.55a1.09,1.09,0,0,0-.07-.52,10.74,10.74,0,0,1,5.54-1.7,2.84,2.84,0,0,1,2.29.89A4.47,4.47,0,0,1,25.24,14V26.13C25.17,26.65,25.46,26.87,26,26.87Z"/><path class="cls-4" d="M83.64,41a91.82,91.82,0,0,1-35.58,7.23A93.05,93.05,0,0,1,1.47,35.88a1.19,1.19,0,0,0-.66-.22c-.74,0-1.18.89-.37,1.62A68.94,68.94,0,0,0,47,55c12.92,0,27.83-4.06,38.09-11.66C86.88,42.15,85.33,40.31,83.64,41Z"/><path class="cls-5" d="M83.27,12.11c.89-1,2.44-1.62,4.58-1.62a10.86,10.86,0,0,1,3.1.44,1.83,1.83,0,0,0,.59.07c.3,0,.52-.22.52-.74v-1a1.59,1.59,0,0,0-.15-.74.91.91,0,0,0-.59-.37,12.29,12.29,0,0,0-4-.74A9.07,9.07,0,0,0,80.46,10C78.84,11.81,78,14.25,78,17.42s.81,5.68,2.36,7.31a8.79,8.79,0,0,0,6.79,2.58,9.86,9.86,0,0,0,4.28-.81.91.91,0,0,0,.59-.37,1.59,1.59,0,0,0,.15-.74v-1c0-.52-.15-.74-.52-.74a4.16,4.16,0,0,1-.52.07,11.17,11.17,0,0,1-3.4.52c-2,0-3.54-.52-4.43-1.62a7.83,7.83,0,0,1-1.4-5v-.52C81.86,14.84,82.31,13.14,83.27,12.11Z"/><path class="cls-6" d="M88,50.87c5.54-4.58,6.94-14.32,5.83-15.72-.52-.66-3-1.33-6.2-1.33-3.4,0-7.46.74-10.48,2.88-.89.66-.74,1.48.22,1.4,3.32-.37,10.7-1.33,12,.37S87.92,47.1,86.66,50.2C86.29,51.23,87.18,51.53,88,50.87Z"/><path class="cls-7" d="M73.3,7.83H71.09c-.52,0-.74.22-.74.74V26.13c0,.52.22.74.74.74H73.3c.52,0,.74-.22.74-.74V8.56C74.11,8.12,73.82,7.83,73.3,7.83Z"/><path class="cls-8" d="M74,.59A2.49,2.49,0,0,0,72.27,0a2.36,2.36,0,0,0-1.7.59A2.3,2.3,0,0,0,70,2.21a2.43,2.43,0,0,0,.59,1.62,2.49,2.49,0,0,0,1.7.59A2.36,2.36,0,0,0,74,3.84a2.3,2.3,0,0,0,.59-1.62A2.43,2.43,0,0,0,74,.59Z"/></svg>