<svg id="Layer_1" data-name="Layer 1" xmlns="http://www.w3.org/2000/svg" viewBox="0 0 143.92 42"><defs><style>.cls-1{fill:#c1d82f;}</style></defs><title>beatport-logo</title><g id="_Group_" data-name="&lt;Group&gt;"><path id="_Path_" data-name="&lt;Path&gt;" class="cls-1" d="M12.55,4.45H6.2a1,1,0,0,0-1.11,1V7.62c0,.34.14.89,1.1.91h6.36c2.27,0,2.45.95,2.45,3.87v4.95c0,1.81-3.68,5.53-5.47,5.53h-3c-1.84,0-2.46-.6-2.46-2.39V.94A1,1,0,0,0,3.11,0H.94A1,1,0,0,0,0,.94V20.49c0,4,2.45,6.44,6.53,6.44h3c4,0,9.53-5.55,9.53-9.58V12.4C19.06,8.47,18.28,4.45,12.55,4.45Z"/><path id="_Path_2" data-name="&lt;Path&gt;" class="cls-1" d="M51.36,4.45H41.29a1,1,0,0,0-1.11,1V7.62c0,.34.14.9,1.1.92H51.36c2.27,0,2.45.93,2.45,3.86v4.95c0,1.81-3.68,5.53-5.47,5.53h-3c-1.84,0-2.47-.6-2.47-2.39V18.93c.09-1.15.2-2.35,2.34-2.35h6.65a1,1,0,0,0,.89-.92V13.45a1,1,0,0,0-1-.93H45.17c-4,0-6.23,2.38-6.34,6.66v1.3c0,4,2.43,6.44,6.51,6.44h3c4,0,9.53-5.55,9.53-9.58V12.4C57.87,8.47,57.09,4.45,51.36,4.45Z"/><path id="_Path_3" data-name="&lt;Path&gt;" class="cls-1" d="M36.69,22.83H26.61c-2.27,0-2.46-.95-2.46-3.87l0-4.94c0-1.81,3.68-5.53,5.47-5.53h3c1.84,0,2.46.6,2.46,2.4v1.56c-.09,1.15-.2,2.35-2.34,2.35H26.07a1,1,0,0,0-.89.92v2.21a1,1,0,0,0,1,.93h6.59c4,0,6.23-2.38,6.34-6.66v-1.3c0-4-2.43-6.44-6.51-6.44h-3c-4,0-9.53,5.55-9.53,9.58V19c0,3.93.77,8,6.51,8H36.68a1,1,0,0,0,1.11-1V23.76C37.79,23.42,37.65,22.85,36.69,22.83Z"/><path id="_Path_4" data-name="&lt;Path&gt;" class="cls-1" d="M81,4.46H78C74,4.46,71.53,6.89,71.53,11l0,19.36c0,.58.29.94.75.94h2.37a1,1,0,0,0,.94-.94V11c0-1.8.64-2.44,2.46-2.44h3c1.78,0,5.46,3.75,5.46,5.58,0,0,0,5.38,0,5.56,0,1.15,0,2.14-.52,2.69a2.64,2.64,0,0,1-1.92.55H77.55a1,1,0,0,0-.94.94V26a1,1,0,0,0,.94.94h6.51c5.72,0,6.51-3.79,6.51-7.88V14.09C90.57,10,85,4.46,81,4.46Z"/><path id="_Path_5" data-name="&lt;Path&gt;" class="cls-1" d="M70.35,4.44H63V.94A1,1,0,0,0,62,0H59.84a.94.94,0,0,0-.92.94V17.59a9.71,9.71,0,0,0,2.37,5.1c1.54,1.93,4.37,4.09,6.92,4.23H69.5c1-.08.94-.65,1-.81V23.79a1,1,0,0,0-1-.92h0l-1.06,0c-1.49-.17-3.21-1.92-3.7-2.45a6.31,6.31,0,0,1-1.73-3V8.54h7.39a1,1,0,0,0,.88-.84V5.35C71.23,5.07,70.9,4.44,70.35,4.44Z"/><path id="_Path_6" data-name="&lt;Path&gt;" class="cls-1" d="M138.47,4.44h-7.39V.94a1,1,0,0,0-.95-.94H128a.94.94,0,0,0-.92.94V17.59a9.72,9.72,0,0,0,2.37,5.1c1.55,1.93,4.37,4.09,6.92,4.23h1.29a1,1,0,0,0,1-.81V23.79a1,1,0,0,0-1-.92h0l-1.06,0c-1.49-.17-3.21-1.92-3.7-2.45a6.31,6.31,0,0,1-1.73-3V8.54h7.39a1,1,0,0,0,.88-.84V5.35C139.35,5.07,139,4.44,138.47,4.44Z"/><path id="_Compound_Path_" data-name="&lt;Compound Path&gt;" class="cls-1" d="M104.14,4.45H98.06c-4.18,0-6.29,2.23-6.45,6.71v9.33c0,4,2.43,6.44,6.51,6.44h3c4,0,9.53-5.55,9.53-9.58V12.4C110.66,8.47,109.88,4.45,104.14,4.45Zm-3,18.43h-3c-1.84,0-2.46-.6-2.46-2.39V10.93c0-2.25,1.15-2.32,2.05-2.38l6.43,0c2.27,0,2.46.95,2.46,3.87l0,4.95C106.59,19.16,102.92,22.88,101.13,22.88Z"/><path id="_Compound_Path_2" data-name="&lt;Compound Path&gt;" class="cls-1" d="M141.78,22.68a2.13,2.13,0,1,0,2.13,2.12A2.12,2.12,0,0,0,141.78,22.68Zm0,3.69a1.43,1.43,0,0,1-1.51-1.57,1.51,1.51,0,1,1,3,0A1.44,1.44,0,0,1,141.78,26.36Z"/><path id="_Compound_Path_3" data-name="&lt;Compound Path&gt;" class="cls-1" d="M141.94,23.85h-1v2h.43V25h.34l.46.81h.49l-.49-.81c.36,0,.56-.18.56-.56S142.48,23.85,141.94,23.85Zm0,.87h-.56v-.56h.46c.2,0,.49,0,.49.26S142.18,24.73,141.95,24.73Z"/><path id="_Path_7" data-name="&lt;Path&gt;" class="cls-1" d="M126,5.19a.86.86,0,0,0-.87-.74h-3.88c-4,0-9.56,5.55-9.56,9.58V26c0,.58.29.94.75.94h2.5a.86.86,0,0,0,.81-.94V14c0-1.81,3.7-5.53,5.49-5.53h3.82A1,1,0,0,0,126,7.6C126,7.07,126,5.56,126,5.19Z"/><path id="_Path_8" data-name="&lt;Path&gt;" class="cls-1" d="M124.06,31.43s-1.13-1.33-1.54-1.75l0,0,0,0a1,1,0,0,0-.51-.15,1.12,1.12,0,0,0-.79.38l-5.42,5.36V29.1h0a.84.84,0,0,0-.81-.87h-2.5c-.46,0-.73.36-.73.94v6.05l-5.45-5.45a.91.91,0,0,0-.65-.25,1,1,0,0,0-.59.17c-.42.38-.74.67-1.6,1.49a1,1,0,0,0-.05,1.28h0l8.73,8.73a2.4,2.4,0,0,0,1.65.79,1.56,1.56,0,0,0,.86-.25,3,3,0,0,0,.88-.62l8.4-8.4A.93.93,0,0,0,124.06,31.43Z"/></g></svg>