<svg id="Layer_1" data-name="Layer 1" xmlns="http://www.w3.org/2000/svg" viewBox="0 0 153.14 34"><defs><style>.cls-1{fill:#e30613;}.cls-2{fill:#f3997b;}.cls-3{fill:#ffed00;}.cls-4{fill:#e6007e;}.cls-5{fill:#f29fc5;}.cls-6{fill:#c8d400;}.cls-7{fill:#e5e99b;}.cls-8{fill:#41c0f0;}.cls-9{fill:#bce4fa;}.cls-10{fill:#1d1d1b;}</style></defs><title>deezer-logo</title><rect class="cls-1" y="30.93" width="10.11" height="3.06"/><rect class="cls-1" y="26.95" width="10.11" height="3.06"/><rect class="cls-1" y="22.97" width="10.11" height="3.06"/><rect class="cls-2" y="18.99" width="10.11" height="3.06"/><rect class="cls-2" y="15.01" width="10.11" height="3.06"/><rect class="cls-3" x="11.33" y="30.93" width="10.11" height="3.06"/><rect class="cls-3" x="11.33" y="26.95" width="10.11" height="3.06"/><rect class="cls-3" x="11.33" y="22.97" width="10.11" height="3.06"/><rect class="cls-4" x="22.67" y="30.93" width="10.11" height="3.06"/><rect class="cls-4" x="22.67" y="26.95" width="10.11" height="3.06"/><rect class="cls-4" x="22.67" y="22.97" width="10.11" height="3.06"/><rect class="cls-5" x="22.67" y="18.99" width="10.11" height="3.06"/><rect class="cls-5" x="22.67" y="15.01" width="10.11" height="3.06"/><rect class="cls-5" x="22.67" y="11.03" width="10.11" height="3.06"/><rect class="cls-5" x="22.67" y="7.05" width="10.11" height="3.06"/><rect class="cls-6" x="34" y="30.93" width="10.11" height="3.06"/><rect class="cls-6" x="34" y="26.95" width="10.11" height="3.06"/><rect class="cls-6" x="34" y="22.97" width="10.11" height="3.06"/><rect class="cls-7" x="34" y="18.99" width="10.11" height="3.06"/><rect class="cls-7" x="34" y="15.01" width="10.11" height="3.06"/><rect class="cls-8" x="45.33" y="30.93" width="10.11" height="3.06"/><rect class="cls-8" x="45.33" y="26.95" width="10.11" height="3.06"/><rect class="cls-8" x="45.33" y="22.97" width="10.11" height="3.06"/><rect class="cls-9" x="45.33" y="18.99" width="10.11" height="3.06"/><rect class="cls-9" x="45.33" y="15.01" width="10.11" height="3.06"/><rect class="cls-9" x="45.33" y="11.03" width="10.11" height="3.06"/><rect class="cls-9" x="45.33" y="7.04" width="10.11" height="3.06"/><rect class="cls-9" x="45.33" y="3.06" width="10.11" height="3.06"/><path class="cls-10" d="M64,30h2.37c3.49,0,4.06-1.84,4.06-7.68V10.69C70.44,5.65,70,4,66,4H64ZM59.42,0H67c7.63,0,8.35,2.67,8.35,12.56V22.67c0,8.71-1.75,11.33-9.19,11.33H59.42Z"/><polygon class="cls-10" points="77.18 0 90.05 0 90.05 4.04 81.78 4.04 81.78 14.7 89.43 14.7 89.43 18.68 81.78 18.68 81.78 29.96 90.05 29.96 90.05 34 77.18 34 77.18 0"/><polygon class="cls-10" points="91.89 0 104.75 0 104.75 4.04 96.48 4.04 96.48 14.7 104.14 14.7 104.14 18.68 96.48 18.68 96.48 29.96 104.75 29.96 104.75 34 91.89 34 91.89 0"/><polygon class="cls-10" points="123.43 0 136.3 0 136.3 4.04 128.03 4.04 128.03 14.7 135.68 14.7 135.68 18.68 128.03 18.68 128.03 29.96 136.3 29.96 136.3 34 123.43 34 123.43 0"/><polygon class="cls-10" points="106.59 30.02 117.17 3.98 106.59 3.98 106.59 0 121.59 0 121.59 3.98 111.19 30.02 121.59 30.02 121.59 34 106.59 34 106.59 30.02"/><path class="cls-10" d="M142.73,15h1.42c3.72,0,4.29-.46,4.29-5.54S148,4,145.07,4h-2.34ZM138.13,0h7.35c6.88,0,7.36,1.75,7.36,9.19,0,4.57-.43,6.8-4.29,8,3.2.33,4.3,2,4.3,5.2v7.39a22,22,0,0,0,.3,4.24h-4.6c-.47-.85-.3-1.68-.3-3V23.27c0-3.2-.61-4-3.72-4h-1.8V34h-4.59Z"/></svg>