<svg id="Layer_1" data-name="Layer 1" xmlns="http://www.w3.org/2000/svg" xmlns:xlink="http://www.w3.org/1999/xlink" viewBox="0 0 61.94 69"><defs><style>.cls-1{fill:#f4481e;}.cls-2{fill:url(#linear-gradient);}.cls-3,.cls-8{fill:#fff;isolation:isolate;}.cls-3{opacity:0.1;}.cls-4{fill:#ffd119;}.cls-5{fill:#ff8c00;}.cls-6{fill:url(#linear-gradient-2);}.cls-7{fill:#fafafa;}.cls-8{opacity:0.3;}</style><linearGradient id="linear-gradient" x1="30.99" y1="234.89" x2="30.99" y2="165.99" gradientTransform="translate(0 -166)" gradientUnits="userSpaceOnUse"><stop offset="0" stop-color="#fff" stop-opacity="0"/><stop offset="1" stop-color="#fff" stop-opacity="0.1"/></linearGradient><linearGradient id="linear-gradient-2" x1="33.05" y1="206.17" x2="38.9" y2="216.3" gradientTransform="translate(0 -166)" gradientUnits="userSpaceOnUse"><stop offset="0" stop-color="#991700" stop-opacity="0"/><stop offset="1" stop-color="#991700" stop-opacity="0.1"/></linearGradient></defs><title>googleplaymusic-logo</title><path class="cls-1" d="M59.12,30.64,6.82.92C4.59-.33,2.59-.22,1.37,1h0A5.22,5.22,0,0,0,0,4.84V64.16A5.38,5.38,0,0,0,1.37,68h0c1.25,1.22,3.21,1.33,5.45,0l52.3-29.72C62.88,36.24,62.88,32.79,59.12,30.64Z"/><path class="cls-2" d="M59.12,30.64,6.82.92C4.59-.33,2.59-.22,1.37,1h0A5.22,5.22,0,0,0,0,4.84V64.16A5.38,5.38,0,0,0,1.37,68h0c1.25,1.22,3.21,1.33,5.45,0l52.3-29.72C62.88,36.24,62.88,32.79,59.12,30.64Z"/><path class="cls-3" d="M59.12,31,6.82,1.31C3.06-.8,0,1,0,5.23V4.84C0,.53,3.06-1.24,6.82.92l52.3,29.72c2,1.1,2.9,2.59,2.78,4.08C61.83,33.38,60.92,32,59.12,31Z"/><path class="cls-4" d="M53.95,41.34a24.5,24.5,0,0,0,.94-6.82,25.09,25.09,0,1,0-31.6,24.23Z"/><circle class="cls-5" cx="29.8" cy="34.52" r="15.68"/><path class="cls-6" d="M29.8,9.43a25.09,25.09,0,0,0-6.51,49.32L53.95,41.34a24.5,24.5,0,0,0,.94-6.82A25.11,25.11,0,0,0,29.8,9.43Z"/><path class="cls-7" d="M29.8,26.29v9.64A3.71,3.71,0,0,0,28,35.42a3.65,3.65,0,1,0,0,7.29,3.78,3.78,0,0,0,3.8-3.65V30.21h3.53V26.29Z"/><path class="cls-8" d="M29.8,9.82A25.08,25.08,0,0,1,54.89,34.75v-.24a25.09,25.09,0,0,0-50.18,0v.2A25.1,25.1,0,0,1,29.8,9.82Z"/></svg>