<svg id="Layer_1" data-name="Layer 1" xmlns="http://www.w3.org/2000/svg" viewBox="0 0 172 39.77"><defs><style>.cls-1{fill:#fff;}.cls-2{fill:#f96600;opacity:0.94;}</style></defs><title>inaweb</title><path class="cls-1" d="M16.77,22.9l2-3.81H26l2.19,3.81h4L26.56,12q-.45-.87-.85-1.56a5.92,5.92,0,0,0-.85-1.16,3.26,3.26,0,0,0-1-.73,3.31,3.31,0,0,0-1.36-.26,3.7,3.7,0,0,0-1.41.25A3.26,3.26,0,0,0,20,9.3a6,6,0,0,0-.88,1.14q-.4.67-.84,1.5l-5.66,11Zm3.91-7.52,1.74-3.1,1.72,3.1Z"/><polygon class="cls-2" points="27.57 25.31 22.28 31.82 16.61 25.31 21.12 25.31 22.28 27.15 23.57 25.31 27.57 25.31"/><path class="cls-1" d="M54.94,32.27h2.21a3.24,3.24,0,0,1,1.52.34,2.53,2.53,0,0,1,1,1,2.9,2.9,0,0,1,0,2.81,2.51,2.51,0,0,1-1,1,3.22,3.22,0,0,1-1.52.35H54.94Zm2.18,4.93a2.63,2.63,0,0,0,1.25-.28,2.06,2.06,0,0,0,.83-.78,2.4,2.4,0,0,0,0-2.3,2.06,2.06,0,0,0-.83-.78,2.64,2.64,0,0,0-1.25-.28h-1.6v4.43Z"/><path class="cls-1" d="M61.45,32.27H62v5.42h-.57Z"/><path class="cls-1" d="M67.73,35h.55V37a2.64,2.64,0,0,1-.9.51,3.35,3.35,0,0,1-1.09.18,3,3,0,0,1-1.46-.36,2.63,2.63,0,0,1-1-1,2.88,2.88,0,0,1,0-2.83,2.63,2.63,0,0,1,1-1,3,3,0,0,1,1.47-.36,3.16,3.16,0,0,1,1.14.2,2.26,2.26,0,0,1,.88.58l-.36.36a2.23,2.23,0,0,0-1.63-.64,2.44,2.44,0,0,0-1.19.29,2.15,2.15,0,0,0-.83.81,2.34,2.34,0,0,0,0,2.3,2.18,2.18,0,0,0,.83.81,2.39,2.39,0,0,0,1.19.29,2.36,2.36,0,0,0,1.42-.42Z"/><path class="cls-1" d="M70,32.27h.57v5.42H70Z"/><path class="cls-1" d="M73.53,32.76H71.62v-.5H76v.5H74.1v4.93h-.57Z"/><path class="cls-1" d="M80.17,36.24h-3l-.65,1.45h-.6l2.48-5.42h.57l2.48,5.42h-.6ZM80,35.78l-1.3-2.91-1.3,2.91Z"/><path class="cls-1" d="M82.44,32.27H83v4.93h3v.5H82.44Z"/><path class="cls-1" d="M94.9,32.27v5.42h-.55V33.35L92.22,37h-.27l-2.13-3.63v4.32h-.55V32.27h.47l2.35,4,2.33-4Z"/><path class="cls-1" d="M100.18,36.24h-3l-.65,1.45h-.6l2.48-5.42H99l2.48,5.42h-.6Zm-.21-.46-1.3-2.91-1.3,2.91Z"/><path class="cls-1" d="M106.16,37.69l-1.24-1.74-.43,0H103v1.72h-.57V32.27h2a2.45,2.45,0,0,1,1.63.5,1.69,1.69,0,0,1,.59,1.36,1.68,1.68,0,0,1-1.24,1.7l1.33,1.86Zm-.46-2.56a1.4,1.4,0,0,0,0-2,1.88,1.88,0,0,0-1.23-.35H103v2.72h1.44A1.88,1.88,0,0,0,105.7,35.13Z"/><path class="cls-1" d="M109.85,35.14l-1.11,1.12v1.43h-.57V32.27h.57v3.28l3.18-3.28h.66l-2.35,2.46,2.51,3h-.68Z"/><path class="cls-1" d="M117.63,37.19v.5H113.8V32.27h3.72v.5h-3.15v1.93h2.8v.49h-2.8v2Z"/><path class="cls-1" d="M120.15,32.76h-1.91v-.5h4.39v.5h-1.91v4.93h-.57Z"/><path class="cls-1" d="M123.66,32.27h.57v5.42h-.57Z"/><path class="cls-1" d="M130.65,32.27v5.42h-.47l-3.49-4.4v4.4h-.57V32.27h.47l3.49,4.4v-4.4Z"/><path class="cls-1" d="M136.35,35h.55V37a2.63,2.63,0,0,1-.9.51,3.35,3.35,0,0,1-1.09.18,3,3,0,0,1-1.46-.36,2.63,2.63,0,0,1-1-1,2.87,2.87,0,0,1,0-2.83,2.62,2.62,0,0,1,1-1,3,3,0,0,1,1.47-.36,3.16,3.16,0,0,1,1.14.2,2.26,2.26,0,0,1,.88.58l-.36.36a2.23,2.23,0,0,0-1.63-.64,2.44,2.44,0,0,0-1.19.29,2.14,2.14,0,0,0-.83.81,2.34,2.34,0,0,0,0,2.3,2.18,2.18,0,0,0,.83.81,2.39,2.39,0,0,0,1.19.29,2.36,2.36,0,0,0,1.42-.42Z"/><path class="cls-1" d="M141.12,37.54a2.13,2.13,0,0,1-.86-.51l.23-.44a2.14,2.14,0,0,0,.78.48,2.87,2.87,0,0,0,1,.18,1.84,1.84,0,0,0,1.09-.27.82.82,0,0,0,.36-.69.69.69,0,0,0-.2-.52,1.33,1.33,0,0,0-.48-.3,7.7,7.7,0,0,0-.8-.23,8.46,8.46,0,0,1-1-.3,1.6,1.6,0,0,1-.62-.44,1.16,1.16,0,0,1-.26-.8,1.36,1.36,0,0,1,.22-.75,1.49,1.49,0,0,1,.67-.54,2.73,2.73,0,0,1,1.12-.2,3.29,3.29,0,0,1,.91.13,2.61,2.61,0,0,1,.77.35l-.19.46a2.76,2.76,0,0,0-1.49-.45,1.75,1.75,0,0,0-1.07.28.85.85,0,0,0-.36.71.7.7,0,0,0,.2.52,1.28,1.28,0,0,0,.5.3q.3.1.8.23a8.23,8.23,0,0,1,1,.29,1.6,1.6,0,0,1,.62.43,1.15,1.15,0,0,1,.26.79,1.34,1.34,0,0,1-.22.75,1.49,1.49,0,0,1-.68.54,2.85,2.85,0,0,1-1.12.2A3.48,3.48,0,0,1,141.12,37.54Z"/><path class="cls-1" d="M146.64,32.76h-1.91v-.5h4.39v.5h-1.91v4.93h-.57Z"/><path class="cls-1" d="M150.59,37.13a2.42,2.42,0,0,1-.59-1.76V32.27h.57v3.08a2,2,0,0,0,.43,1.41,1.88,1.88,0,0,0,2.47,0,2,2,0,0,0,.43-1.41V32.27h.56v3.11a2.43,2.43,0,0,1-.59,1.76,2.53,2.53,0,0,1-3.28,0Z"/><path class="cls-1" d="M156.3,32.27h2.21a3.23,3.23,0,0,1,1.52.34,2.52,2.52,0,0,1,1,1,2.9,2.9,0,0,1,0,2.81,2.51,2.51,0,0,1-1,1,3.21,3.21,0,0,1-1.52.35H156.3Zm2.18,4.93a2.63,2.63,0,0,0,1.25-.28,2.05,2.05,0,0,0,.83-.78,2.4,2.4,0,0,0,0-2.3,2.06,2.06,0,0,0-.83-.78,2.64,2.64,0,0,0-1.25-.28h-1.6v4.43Z"/><path class="cls-1" d="M162.81,32.27h.57v5.42h-.57Z"/><path class="cls-1" d="M166.18,37.38a2.63,2.63,0,0,1-1-1,2.88,2.88,0,0,1,0-2.82,2.63,2.63,0,0,1,1-1,3.14,3.14,0,0,1,2.91,0,2.63,2.63,0,0,1,1,1,2.87,2.87,0,0,1,0,2.83,2.64,2.64,0,0,1-1,1,3.14,3.14,0,0,1-2.91,0Zm2.62-.44a2.1,2.1,0,0,0,.81-.81,2.4,2.4,0,0,0,0-2.3,2.11,2.11,0,0,0-.81-.81,2.48,2.48,0,0,0-2.33,0,2.13,2.13,0,0,0-.82.81,2.37,2.37,0,0,0,0,2.3,2.12,2.12,0,0,0,.82.81,2.47,2.47,0,0,0,2.33,0Z"/><path class="cls-1" d="M43.08,17l-8-13.85a5.94,5.94,0,0,0-5.14-3h-16a5.94,5.94,0,0,0-5.14,3L.8,17a5.94,5.94,0,0,0,0,5.94l8,13.85a5.94,5.94,0,0,0,5.14,3h16a5.94,5.94,0,0,0,5.14-3l8-13.85A5.94,5.94,0,0,0,43.08,17Zm-3.45,4.16L31.81,34.7a2.38,2.38,0,0,1-2.06,1.19H14.12a2.38,2.38,0,0,1-2.06-1.19L4.25,21.16a2.38,2.38,0,0,1,0-2.38L12.06,5.25a2.38,2.38,0,0,1,2.06-1.19H29.75a2.38,2.38,0,0,1,2.06,1.19l7.82,13.54A2.38,2.38,0,0,1,39.62,21.16Z"/><path class="cls-1" d="M87,14.57l2-3.81h7.22l2.19,3.81h4L96.82,3.71q-.45-.87-.85-1.56A5.92,5.92,0,0,0,95.12,1a3.26,3.26,0,0,0-1-.73A3.31,3.31,0,0,0,92.73,0a3.7,3.7,0,0,0-1.41.25A3.26,3.26,0,0,0,90.25,1a6,6,0,0,0-.88,1.14q-.4.67-.84,1.5l-5.66,11ZM90.94,7l1.74-3.1L94.39,7Z"/><polygon class="cls-2" points="97.84 17.82 92.55 24.33 86.87 17.82 91.39 17.82 92.55 19.66 93.84 17.82 97.84 17.82"/><path class="cls-1" d="M59.22,4.57H55.14V19.25h4.09V4.57Zm2,3.22V19.13h3.69V8.24l9.93,9.69q.47.38.86.64a6.12,6.12,0,0,0,.74.44,3.09,3.09,0,0,0,.71.26,3.55,3.55,0,0,0,.77.08A3.48,3.48,0,0,0,79.43,19a3.4,3.4,0,0,0,1.13-.88,3.9,3.9,0,0,0,.71-1.3,5,5,0,0,0,.25-1.58V4.63H77.82V15.48L67.89,5.71a4.35,4.35,0,0,0-3-1.42,3.35,3.35,0,0,0-1.36.29,4.19,4.19,0,0,0-1.16.76,3.66,3.66,0,0,0-.82,1.11,3,3,0,0,0-.31,1.34Z"/><path class="cls-1" d="M106.73,4.66h-3.87L105,16.12a4.15,4.15,0,0,0,.42,1.24,3.93,3.93,0,0,0,.75,1,3.35,3.35,0,0,0,1,.67,3.3,3.3,0,0,0,1.28.25,3.79,3.79,0,0,0,2.44-.81,4.29,4.29,0,0,0,1.43-2.19l2.41-7.91,2.23,8a5.15,5.15,0,0,0,1.43,2.21,3.47,3.47,0,0,0,4.59-.11,4.11,4.11,0,0,0,.78-1,5.3,5.3,0,0,0,.5-1.27l2.19-11.51h-3.71L120.74,15.2,118.29,7a4.11,4.11,0,0,0-1.23-2,3.11,3.11,0,0,0-2.1-.74,3.84,3.84,0,0,0-2.42.77,4,4,0,0,0-1.39,2.13l-2.45,8.23-2-10.76Zm26.94,0a6.3,6.3,0,0,0-2,.32,4.87,4.87,0,0,0-1.64.92,4.31,4.31,0,0,0-1.11,1.47,4.62,4.62,0,0,0-.4,2v5.29a4.24,4.24,0,0,0,.42,1.9A4.73,4.73,0,0,0,130.06,18a5.24,5.24,0,0,0,1.64,1,5.5,5.5,0,0,0,1.93.35h15.32V15.41H132.21V13.84h16.74V10.07H132.21V8.37h16.74V4.62Zm32.77,0H150.92V19.22h16.17a4.78,4.78,0,0,0,1.84-.37,5.07,5.07,0,0,0,2.66-2.51,4.23,4.23,0,0,0,.41-1.87,2.69,2.69,0,0,0-.11-.79,4,4,0,0,0-.27-.66,4.63,4.63,0,0,0-.37-.59l-.4-.58a4.93,4.93,0,0,0,.83-2.72,4.64,4.64,0,0,0-.39-2,3.83,3.83,0,0,0-1.09-1.4,4.63,4.63,0,0,0-1.65-.83,7.66,7.66,0,0,0-2.11-.28Zm1.38,10.8h-13V13.78h13v1.68Zm0-5.45h-13V8.37h13V10Z"/></svg>