<svg id="Layer_1" data-name="Layer 1" xmlns="http://www.w3.org/2000/svg" viewBox="0 0 127.95 37"><defs><style>.cls-1,.cls-2{fill:#1d1d1b;}.cls-1{fill-rule:evenodd;}</style></defs><title>itunes_logo</title><path class="cls-1" d="M31.8,27.14a26.51,26.51,0,0,1-2.4,4.49C27.84,34,25.64,37,22.91,37c-2.42,0-3-1.58-6.33-1.56S12.6,37,10.18,37c-2.73,0-4.81-2.7-6.37-5.07C-.56,25.28-1,17.48,1.67,13.34A9.66,9.66,0,0,1,9.44,8.67c2.89,0,4.71,1.58,7.1,1.58s3.73-1.59,7.07-1.59a9.44,9.44,0,0,1,7.11,3.75A8.13,8.13,0,0,0,31.8,27.14Z"/><path class="cls-1" d="M21.08,6a8.11,8.11,0,0,0,1.8-6,8.77,8.77,0,0,0-5.66,3A7.53,7.53,0,0,0,15.37,8.9,7.4,7.4,0,0,0,21.08,6Z"/><path class="cls-2" d="M42.89,16.58A2.45,2.45,0,0,1,40.25,19a2.46,2.46,0,1,1,0-4.91A2.45,2.45,0,0,1,42.89,16.58Zm-5,20.06V20.95h4.88v15.7Z"/><path class="cls-2" d="M51,19.12H45.17V15H61.8v4.11H55.89V36.65H51Z"/><path class="cls-2" d="M77.3,31.61c0,2.05.06,3.72.13,5H73.19L73,34.43h-.1A5.6,5.6,0,0,1,68,37c-3.18,0-5.52-2-5.52-6.84V20.95h4.91v8.44c0,2.28.74,3.66,2.44,3.66a2.63,2.63,0,0,0,2.44-1.7,2.72,2.72,0,0,0,.16-1.06V20.95H77.3Z"/><path class="cls-2" d="M81.21,26c0-2-.06-3.63-.13-5h4.24l.22,2.15h.1a5.74,5.74,0,0,1,4.85-2.5c3.21,0,5.62,2.12,5.62,6.74v9.31H91.23v-8.7c0-2-.71-3.4-2.47-3.4a2.61,2.61,0,0,0-2.47,1.83,3.49,3.49,0,0,0-.19,1.22v9.05H81.21Z"/><path class="cls-2" d="M103.78,30.35c.16,2,2.15,3,4.43,3a13.83,13.83,0,0,0,4.33-.64l.64,3.31a15.48,15.48,0,0,1-5.68,1c-5.33,0-8.38-3.11-8.38-8,0-4,2.47-8.38,7.93-8.38,5.07,0,7,3.95,7,7.83a11.62,11.62,0,0,1-.16,1.93ZM109.53,27c0-1.19-.51-3.18-2.76-3.18-2.05,0-2.89,1.86-3,3.18Z"/><path class="cls-2" d="M116.94,32.38a9.54,9.54,0,0,0,4.21,1.19c1.48,0,2.09-.51,2.09-1.32s-.48-1.19-2.31-1.8c-3.24-1.09-4.49-2.86-4.46-4.69,0-3,2.5-5.17,6.39-5.17a10.54,10.54,0,0,1,4.43.9l-.87,3.37A7.7,7.7,0,0,0,123,24c-1.19,0-1.86.48-1.86,1.28s.61,1.12,2.54,1.8c3,1,4.24,2.54,4.27,4.85,0,2.92-2.31,5.1-6.81,5.1a11.09,11.09,0,0,1-5.07-1.12Z"/></svg>