<svg id="Ebene_1" data-name="Ebene 1" xmlns="http://www.w3.org/2000/svg" viewBox="0 0 163.79 53"><defs><style>.cls-1{fill:#ff0f50;}.cls-2{fill:#fff;}</style></defs><title>musically-logo</title><path class="cls-1" d="M26.5,0A26.5,26.5,0,1,0,53,26.5h0A26.5,26.5,0,0,0,26.5,0Z"/><path class="cls-2" d="M41.22,31.36l-.15.07v.07H35.2A3.52,3.52,0,0,1,31.69,28V24.06a.83.83,0,0,0-1.66,0v9.63a3.51,3.51,0,1,1-7,0V19.31a.83.83,0,1,0-1.66,0V28a3.52,3.52,0,0,1-3.51,3.51h-5.9l-.15-.15V29l.15-.15h5.88a.83.83,0,0,0,.83-.83V19.31a3.51,3.51,0,0,1,7,0V33.69a.83.83,0,0,0,1.66,0V24.06a3.51,3.51,0,0,1,7,0h0V28a.83.83,0,0,0,.83.83H41v.07l.15.07Z"/><path d="M78.91,29.16V24.8c0-2.93-1.33-4.24-3.65-4.24a4.31,4.31,0,0,0-3.81,2.29h0a3.11,3.11,0,0,0-3.26-2.29,4.16,4.16,0,0,0-3.61,2.32h0v-.81c0-.79-.48-1.25-1.46-1.25H60.49v2.36h.87a.43.43,0,0,1,.48.38.42.42,0,0,1,0,.11V32H64.6v-4.9a5.7,5.7,0,0,1,.17-1.4,3,3,0,0,1,2.69-2.58c1.4,0,1.51,1,1.51,2.23V32h2.78v-4.9a4.88,4.88,0,0,1,.17-1.42,2.93,2.93,0,0,1,2.67-2.56c1.29,0,1.53,1,1.53,2.23V30.5c0,1,.44,1.49,1.49,1.49h2.63V29.65h-.83a.44.44,0,0,1-.51-.37A.44.44,0,0,1,78.91,29.16Z"/><path d="M92.6,29.16V20.84H89.82V26c0,2-1.11,3.76-3.13,3.76-1.38,0-1.73-.91-1.73-2.28V22.31c0-1-.44-1.46-1.46-1.46H80.86V23.2h.87a.43.43,0,0,1,.48.38.42.42,0,0,1,0,.11V28c0,3,1.46,4.24,3.85,4.24a4.22,4.22,0,0,0,3.85-2.32h0v.81c0,.79.51,1.25,1.46,1.25H94V29.65h-.9a.44.44,0,0,1-.48-.4A.43.43,0,0,1,92.6,29.16Z"/><path d="M97.72,23.71c0-.66.68-1,1.66-1,.62,0,1.4.27,1.4.79V24h2.45V22.89c0-1.81-2.4-2.32-3.92-2.32-2.32,0-4.33,1-4.33,3.26,0,3.61,5.89,3.58,5.89,5.16,0,.74-.66,1.1-1.51,1.1A5,5,0,0,1,96,28.42l-1.31,1.79a6.12,6.12,0,0,0,4.64,2c2.43,0,4.29-1.31,4.29-3.41C103.62,25.11,97.72,25.46,97.72,23.71Z"/><path d="M108.85,29.16V22.31c0-1-.44-1.49-1.46-1.49h-2.64v2.36h.87a.43.43,0,0,1,.48.38.45.45,0,0,1,0,.11v6.83c0,1,.44,1.49,1.46,1.49h2.64V29.64h-.87a.44.44,0,0,1-.48-.39A.47.47,0,0,1,108.85,29.16Z"/><rect x="106.22" y="16.45" width="2.4" height="2.56"/><path d="M117.48,29.81a3.46,3.46,0,0,1-.17-6.91c.68,0,1.6.27,1.6.87v.62h2.45V23.08c0-1.93-2.6-2.49-4-2.49a5.83,5.83,0,1,0-.47,11.65h.41a6.38,6.38,0,0,0,4.66-2l-1.16-1.93A5,5,0,0,1,117.48,29.81Z"/><path d="M132.53,29.16V25c0-2.49-1.1-4.44-4.81-4.44-1.16,0-4.09.22-4.09,2.29V24h2.58v-.59c0-.61,1-.74,1.49-.74,1.42,0,2.05.59,2.05,2.19V25h-.36c-1.81,0-6.65.28-6.65,3.78a3.52,3.52,0,0,0,3.81,3.47,3.63,3.63,0,0,0,3.37-2h0a4.68,4.68,0,0,0,0,.48c0,.66.39,1.22,1.42,1.22h2.49V29.63H133a.44.44,0,0,1-.47-.41A.36.36,0,0,1,132.53,29.16Zm-2.74-2a2.87,2.87,0,0,1-2.54,2.93,1.49,1.49,0,0,1-1.65-1.3s0-.1,0-.14c0-1.55,2.29-1.75,3.74-1.75h.48Z"/><path d="M138.62,29.16V17.93c0-1-.46-1.49-1.49-1.49h-2.64v2.36h.87a.43.43,0,0,1,.48.38.42.42,0,0,1,0,.11v11.2c0,1,.44,1.49,1.49,1.49H140V29.63h-.83a.44.44,0,0,1-.5-.37A.43.43,0,0,1,138.62,29.16Z"/><path d="M150.34,29.16V17.93c0-1-.46-1.49-1.49-1.49h-2.64v2.36h.87a.43.43,0,0,1,.48.48v11.2c0,1,.44,1.49,1.49,1.49h2.63V29.63h-.83a.44.44,0,0,1-.5-.37A.43.43,0,0,1,150.34,29.16Z"/><path d="M161.9,20.82a1.38,1.38,0,0,0-1.49,1l-1.93,5.59a13.5,13.5,0,0,0-.37,1.49h0a10.92,10.92,0,0,0-.39-1.49l-2.16-5.55a1.35,1.35,0,0,0-1.46-1h-1.84v2.36h.32a.52.52,0,0,1,.59.39L156.82,32l-.37.83a2,2,0,0,1-1.84,1.42,2.4,2.4,0,0,1-1.6-.76l-1.07,2a4.16,4.16,0,0,0,2.82,1.14,4.22,4.22,0,0,0,4-2.91l4-10.08a.56.56,0,0,1,.63-.39h.33V20.82H161.9Z"/><circle cx="143.82" cy="29.84" r="2.14"/></svg>