<svg id="Layer_1" data-name="Layer 1" xmlns="http://www.w3.org/2000/svg" viewBox="0 0 195.37 50"><defs><style>.cls-1{fill:#111;}</style></defs><title>napster-logo</title><path class="cls-1" d="M98.7,16.84c.84,1,1,2.51.43,4.45L95.62,33.7H90.46l0-1.32a11.92,11.92,0,0,1-6,1.64c-2.37,0-4.06-.57-5-1.72a3.91,3.91,0,0,1-.77-2.82A7.94,7.94,0,0,1,79,27.9c1.11-3.92,4.82-6,10.67-6h3.28l.32-1.15a2.88,2.88,0,0,0,.11-.57.8.8,0,0,0-.12-.57c-.32-.4-1.4-.44-2.54-.44a38.62,38.62,0,0,0-6.68.9l-.9.2,1.19-4.21.36-.09a36.19,36.19,0,0,1,7.78-1C94.66,15,97.4,15.23,98.7,16.84Zm-8.2,8.34c-3.64.07-4.94.75-5.51,2.74a4.15,4.15,0,0,0-.16.82,1.21,1.21,0,0,0,.19.86c.24.3.79.46,1.78.46A10.17,10.17,0,0,0,91,28.92L92,25.16Z"/><path class="cls-1" d="M120.37,17.06c1.28,1.59,1.43,4.11.48,7.48C119.12,30.65,114.66,34,108.3,34a12.21,12.21,0,0,1-3.51-.55L103,39.88H97l6.94-24.52h4.68l.22,1.3a11.26,11.26,0,0,1,5.7-1.62C116.3,15,118.91,15.24,120.37,17.06Zm-5.48,7.26c.7-2.49.75-4,.19-4.7-.41-.5-1.19-.62-2.28-.62a10.92,10.92,0,0,0-4.22,1.06l-2.73,9.65a14,14,0,0,0,3.06.39C111.05,30.12,113.44,29.44,114.89,24.32Z"/><path class="cls-1" d="M171.69,17.24a5.83,5.83,0,0,1,1,4.11,14.38,14.38,0,0,1-.68,3.3l-.52,1.63H158.87a6.33,6.33,0,0,0-.13.86,2.49,2.49,0,0,0,.43,1.79c.66.81,2,.92,3.11.92a27.47,27.47,0,0,0,4.12-.43c1.29-.21,2.27-.43,2.29-.43l.91-.2-1.21,4.27-.36.09c-.07,0-.92.23-2.16.45a27.75,27.75,0,0,1-4.54.42c-2.54,0-5.7-.26-7.38-2.35-1.29-1.6-1.47-4-.56-7.26,2.31-8.17,8.66-9.39,12.23-9.39C168.49,15,170.54,15.77,171.69,17.24Zm-11.76,5.49h6.73A10.55,10.55,0,0,0,167,21a2.44,2.44,0,0,0-.35-1.73,2.19,2.19,0,0,0-1.8-.58C162.39,18.74,160.91,19.95,159.93,22.73Z"/><path id="_Path_" data-name="&lt;Path&gt;" class="cls-1" d="M78.28,16.72c.79,1,.92,2.4.41,4.2L75,33.78H69l3.68-13c.14-.48.12-.8,0-1-.27-.33-1.12-.38-2-.38a15.91,15.91,0,0,0-5.52,1.32l-3.69,13h-6l5.19-18.34h4.81l.24,1.67a18.28,18.28,0,0,1,7.58-2C75.77,15.11,77.41,15.63,78.28,16.72Z"/><path id="_Path_2" data-name="&lt;Path&gt;" class="cls-1" d="M138.67,15.81l.48.16L138,20l-.59-.14s-.74-.18-1.7-.35a19.19,19.19,0,0,0-3.16-.35c-2.8,0-3.33.78-3.51,1.41s.3,1,1.77,1.5l.22.07,2,.62a9.91,9.91,0,0,1,1.19.45,5.35,5.35,0,0,1,1.43.94,3.85,3.85,0,0,1,.91,4.16C135.1,33.44,129.9,34,126.16,34a25.14,25.14,0,0,1-5.57-.77l-.52-.14,1.19-4.21.59.15s.85.21,1.9.42a18.65,18.65,0,0,0,3.13.41c2.47,0,3.5-.48,3.83-1.63.25-.87-.19-1.11-1.86-1.67l-1.92-.65a11.92,11.92,0,0,1-1.26-.5,5.86,5.86,0,0,1-1.45-.95,3.61,3.61,0,0,1-1-3.93c1-3.52,4.64-5.52,10-5.52A18.79,18.79,0,0,1,138.67,15.81Z"/><path id="_Path_3" data-name="&lt;Path&gt;" class="cls-1" d="M189.39,15.35,188,20.18l-.58-.12a16.36,16.36,0,0,0-2.83-.31,6.31,6.31,0,0,0-3,.79L177.94,33.7h-6l5.19-18.34h4.82l0,1.31A7.56,7.56,0,0,1,186.6,15a13,13,0,0,1,2.22.21Z"/><path id="_Path_4" data-name="&lt;Path&gt;" class="cls-1" d="M150.22,15.36h5.21l-1.78,3.75h-4.49l-2.83,10a2,2,0,0,0-.07.38c0,.17,0,.23,0,.24a.74.74,0,0,0,.42.12,5.06,5.06,0,0,0,.51,0,17.66,17.66,0,0,0,2.37-.28c.84-.14,1.55-.29,1.56-.29l.89-.18-1.17,4.13-.36.09a24.29,24.29,0,0,1-5.29.67c-1.43,0-3.49-.14-4.5-1.39a3.17,3.17,0,0,1-.61-2.3,7.24,7.24,0,0,1,.27-1.46l2.76-9.77h-3.22L141,15.36h3.25a25.64,25.64,0,0,0,1.18-3.64l6-1.14,0,.09C150.95,12.76,150.41,14.68,150.22,15.36Z"/><path id="_Path_5" data-name="&lt;Path&gt;" class="cls-1" d="M31.71,36.34a14.3,14.3,0,0,1-5.35,3.24A14.29,14.29,0,0,1,21,36.34Z"/><path class="cls-1" d="M16.32,15.11a19.16,19.16,0,0,0-7.39-3.87v17.2a17.44,17.44,0,0,0,34.87,0V11.25a19,19,0,0,0-7.4,3.85,17.44,17.44,0,0,0-20.08,0Zm0-5a21.74,21.74,0,0,1,20,0,23.47,23.47,0,0,1,2.19-1.22,17.87,17.87,0,0,0-24.33,0C14.88,9.22,15.7,9.67,16.36,10.09ZM10,7.31a22,22,0,0,1,32.69,0,23.19,23.19,0,0,1,5.32-.78v7.36a9.9,9.9,0,0,1,0,16.83l0,.18a21.82,21.82,0,0,1-43.33-.16A10,10,0,0,1,0,22.28a9.89,9.89,0,0,1,4.66-8.4V6.51A23.12,23.12,0,0,1,10,7.31Z"/><path id="_Path_6" data-name="&lt;Path&gt;" class="cls-1" d="M31.78,28.45c2.91-.33,7.78-.29,7.78-.29a5.54,5.54,0,0,1-2.79,5,7.07,7.07,0,0,1-2.71.69c-2.69.12-6.52.16-6.52.16C28.23,31,29.35,28.72,31.78,28.45Z"/><path id="_Path_7" data-name="&lt;Path&gt;" class="cls-1" d="M20.93,28.45c2.43.28,3.55,2.55,4.23,5.6,0,0-3.83,0-6.52-.16a7.07,7.07,0,0,1-2.71-.69,5.54,5.54,0,0,1-2.79-5S18,28.12,20.93,28.45Z"/><path id="_Path_8" data-name="&lt;Path&gt;" class="cls-1" d="M31.47,42.22a10,10,0,0,1-10.23,0,2.92,2.92,0,0,1,.4-1,2.12,2.12,0,0,1,.68-.7,14.68,14.68,0,0,0,8.07,0,2.21,2.21,0,0,1,.73.77A2.31,2.31,0,0,1,31.47,42.22Z"/><path class="cls-1" d="M193.32,11.09a2,2,0,1,1-2,2A2,2,0,0,1,193.32,11.09Zm0,3.56a1.57,1.57,0,1,0-1.5-1.57A1.51,1.51,0,0,0,193.32,14.65ZM192.53,12h.84c.56,0,.87.18.87.66a.56.56,0,0,1-.59.6l.6,1h-.46l-.54-1H193v1h-.44Zm.44.93h.39c.25,0,.44,0,.44-.31s-.26-.28-.46-.28H193Z"/></svg>