<svg id="Layer_1" data-name="Layer 1" xmlns="http://www.w3.org/2000/svg" viewBox="0 0 164.16 33"><defs><style>.cls-1{fill:#02a0ed;}</style></defs><title>pandora-logo</title><path class="cls-1" d="M94.44,0c0,.38,0,.76,0,1.14q0,12.32,0,24.65v.76h-4V24.89a10.82,10.82,0,0,1-9.94,1.88,10.37,10.37,0,0,1-5.76-4.26A10.78,10.78,0,0,1,90.37,8c0-.2,0-.36,0-.53,0-1.62,0-3.24,0-4.86A2.53,2.53,0,0,1,91.8,0ZM77.26,16.46a6.65,6.65,0,0,0,6.63,6.7,6.66,6.66,0,1,0,0-13.32A6.65,6.65,0,0,0,77.26,16.46Z"/><path class="cls-1" d="M0,6.36l2,0h2V8.13A10.78,10.78,0,0,1,12.49,5.9a10.4,10.4,0,0,1,7.31,4.85,10.8,10.8,0,0,1-1.23,13.13A11,11,0,0,1,4,24.93v1.82c0,1.26-.05,2.52,0,3.78A2.28,2.28,0,0,1,2.52,33H0ZM10.51,9.84a6.66,6.66,0,1,0,6.65,6.69A6.67,6.67,0,0,0,10.51,9.84Z"/><path class="cls-1" d="M164.16,4.68a4.58,4.58,0,0,0-.23.44A3.77,3.77,0,1,1,159,.23a4.58,4.58,0,0,0,.44-.23h1.68a14.63,14.63,0,0,1,1.47.7A4,4,0,0,1,164.16,3Zm-.48-.93A3.26,3.26,0,1,0,160.39,7,3.26,3.26,0,0,0,163.68,3.75Z"/><path class="cls-1" d="M41.43,8.06V6.45h4v20.1h-4V24.9A10.77,10.77,0,0,1,32.18,27a10.41,10.41,0,0,1-6.09-4A10.78,10.78,0,0,1,41.43,8.06Zm.15,8.53a6.65,6.65,0,1,0-6.83,6.57A6.68,6.68,0,0,0,41.57,16.59Z"/><path class="cls-1" d="M154.66,6.45V26.56h-4V24.88a10.81,10.81,0,0,1-9.7,2,10.39,10.39,0,0,1-5.72-3.94A10.76,10.76,0,0,1,138.88,7a10.56,10.56,0,0,1,3.93-1.19,9.12,9.12,0,0,1,4.14.4c1.27.48,2.49,1.12,3.74,1.69V6.45ZM144.14,9.84a6.66,6.66,0,1,0,6.68,6.61A6.68,6.68,0,0,0,144.14,9.84Z"/><path class="cls-1" d="M118.74,16.56A10.75,10.75,0,1,1,108.58,5.78,10.69,10.69,0,0,1,118.74,16.56Zm-4.34-.05a6.43,6.43,0,1,0-6.47,6.41A6.44,6.44,0,0,0,114.4,16.51Z"/><path class="cls-1" d="M70.06,26.56h-4.3V25.9q0-4.65,0-9.3a6.42,6.42,0,1,0-12.84,0q0,4.62,0,9.24v.7H48.6V25.9q0-4.68,0-9.36a10.75,10.75,0,0,1,21.32-2,8.39,8.39,0,0,1,.15,1.49c0,3.4,0,6.8,0,10.2C70.08,26.34,70.07,26.42,70.06,26.56Z"/><path class="cls-1" d="M125.76,26.56h-4.32v-.67q0-4.83,0-9.65c0-5.54,3.3-9.38,8.8-10.23.76-.12,1.53-.18,2.34-.27V10c-.86.15-1.7.23-2.5.45a5.6,5.6,0,0,0-4.32,5.74c0,3.22,0,6.44,0,9.65Z"/><path class="cls-1" d="M161,4.25l1,1.57c-.42.15-.68.09-.88-.27s-.39-.56-.54-.86a.78.78,0,0,0-1.1-.4c0,.38,0,.77,0,1.16s-.16.52-.55.39V1.6c.67,0,1.32,0,2,0a1.16,1.16,0,0,1,1.08,1,1.28,1.28,0,0,1-.66,1.41Zm-1.44-2.13V3.69a3.68,3.68,0,0,0,1.19,0,1.22,1.22,0,0,0,.7-.74.68.68,0,0,0-.69-.8C160.4,2.09,160,2.12,159.58,2.12Z"/></svg>