<svg xmlns="http://www.w3.org/2000/svg" viewBox="0 0 154.18 40"><defs><style>.cls-1{fill:#32aa4b;fill-rule:evenodd;}</style></defs><title>saavn-logo</title><g id="White_on_Green" data-name="White on Green"><g id="Logo"><path class="cls-1" d="M33.76,27.17c-4,1.33-8.13,2.57-11.47,6.16a.61.61,0,0,0,.41,1h6.51a5,5,0,0,0,5.16-5.3V27.71C34.37,27.56,34.28,27,33.76,27.17Zm-27.49,1c-.53-.1-.64.43-.64.57v.35c0,3.37,2.09,5.3,5.21,5.3h4a.61.61,0,0,0,.45-1C12.82,30.11,9.43,29.13,6.27,28.15ZM29.21,5.63h-6a.57.57,0,0,0-.55.66c2,12.3-3.06,24.31-4.13,26.66-.15.38-.19.26-.2,0-1.52-13-4-18.4-7.92-27a.68.68,0,0,0-.64-.33c-1.3,0-4.12,1-4.12,5.2v3.79a.59.59,0,0,0,.27.55A26.64,26.64,0,0,1,17,33.7c.08.52.16.67.53.67h1.84c.38,0,.46-.26.58-.61A28.13,28.13,0,0,1,34,16.7a.57.57,0,0,0,.32-.53V10.84A4.93,4.93,0,0,0,29.21,5.63Zm5-4.95C32.08,0,30.07,0,26.06,0H13.95c-4,0-6,0-8.19.68A8.5,8.5,0,0,0,.68,5.76C0,7.92,0,9.93,0,13.95V26.05c0,4,0,6,.68,8.18a8.5,8.5,0,0,0,5.08,5.08c2.16.68,4.17.68,8.19.68H26.06c4,0,6,0,8.19-.68a8.5,8.5,0,0,0,5.08-5.08c.68-2.16.68-4.17.68-8.18V13.95c0-4,0-6-.68-8.18A8.5,8.5,0,0,0,34.24.68Zm3,24.55c0,3.47,0,5.67-.59,7.54a5.94,5.94,0,0,1-3.92,3.92c-1.87.59-4.07.59-7.54.59H14.77c-3.47,0-5.67,0-7.54-.59a5.94,5.94,0,0,1-3.92-3.92c-.59-1.87-.59-4.07-.59-7.54V14.77c0-3.47,0-5.67.59-7.54A5.94,5.94,0,0,1,7.23,3.31c1.87-.59,4.07-.59,7.54-.59H25.23c3.47,0,5.67,0,7.54.59a5.94,5.94,0,0,1,3.92,3.92c.59,1.87.59,4.07.59,7.54ZM151.94,9.4c-1.5-1.44-3.26-2.17-6.23-2.17a10.39,10.39,0,0,0-4.61,1,7.65,7.65,0,0,0-3.22,2.85h-.18s-.35-1.9-.52-2.82a.6.6,0,0,0-.66-.49h-1.85a.56.56,0,0,0-.63.63V31.86c0,.81.61.76.61.76h2.49s.62.06.62-.75V19.51c0-3.24.64-5.56,1.84-7s3.09-2.11,5.67-2.11a4.49,4.49,0,0,1,3.82,1.5,6.53,6.53,0,0,1,1.37,4.54V31.85c0,.84.6.77.6.77h2.5s.62.08.62-.77V16.33C154.18,13.16,153.44,10.85,151.94,9.4ZM132,7.77h-2.67s-.53-.09-.78.6c-2.94,8.14-4.84,13.32-5.69,15.78a51.19,51.19,0,0,0-1.57,5h-.18A70.54,70.54,0,0,0,119,22.42s-4.12-11.34-5.11-14.07a.78.78,0,0,0-.81-.58h-2.79s-.67-.11-.37.64L118.84,32a1,1,0,0,0,.62.63H123a1,1,0,0,0,.69-.62l8.89-23.57C132.9,7.66,132,7.77,132,7.77ZM57,18.39a36.2,36.2,0,0,1-4.32-1.84,5,5,0,0,1-1.63-1.34,2.84,2.84,0,0,1-.51-1.71,2.61,2.61,0,0,1,1.35-2.32,7.68,7.68,0,0,1,4-.84,16.76,16.76,0,0,1,5.8,1.18c1,.41,1.23-.34,1.23-.34l.66-1.52a.81.81,0,0,0-.53-1.21,19.36,19.36,0,0,0-6.89-1.28,11.35,11.35,0,0,0-6.73,1.76A5.61,5.61,0,0,0,47,13.75a5.77,5.77,0,0,0,.71,2.93,6.72,6.72,0,0,0,2.16,2.19,26.29,26.29,0,0,0,4.9,2.26,19.59,19.59,0,0,1,4.87,2.44A3.27,3.27,0,0,1,59.3,29a8.83,8.83,0,0,1-4.5.94,15.77,15.77,0,0,1-3.93-.52c-.49-.13-1.2-.37-1.76-.56-1-.37-1.17.49-1.17.49l-.52,1.27a.84.84,0,0,0,.39,1.26A17,17,0,0,0,54.71,33q4.64,0,7.2-1.89a6.26,6.26,0,0,0,2.57-5.37,5.77,5.77,0,0,0-1.54-4.12Q61.39,20,57,18.39ZM100.16,7.23a17.15,17.15,0,0,0-4.36.57A17.81,17.81,0,0,0,92.46,9c-.84.33-.41.93-.41.93l.65,1.64s.11.7,1.15.24a15.26,15.26,0,0,1,6.09-1.5,5.85,5.85,0,0,1,4.3,1.4,6.36,6.36,0,0,1,1.25,4.33v1.55l-4.49.14q-12,.36-12,7.91a7,7,0,0,0,2.08,5.43A8.19,8.19,0,0,0,96.88,33a13.06,13.06,0,0,0,4.89-.58,10.84,10.84,0,0,0,4-3.11h.33s.07,2,.11,2.85a.46.46,0,0,0,.44.46h2.16a.44.44,0,0,0,.46-.45V15.55c0-2.91-.83-5-2.25-6.34S103.11,7.23,100.16,7.23Zm5.23,15.32a7.19,7.19,0,0,1-2,5.41,8.31,8.31,0,0,1-5.78,1.93,5.06,5.06,0,0,1-3.43-1.07A3.91,3.91,0,0,1,93,25.71a4.23,4.23,0,0,1,2-3.85q2-1.24,6.43-1.4l4-.16ZM77.4,7.23A17.15,17.15,0,0,0,73,7.8,17.8,17.8,0,0,0,69.69,9c-.85.33-.41.93-.41.93l.65,1.64s.11.7,1.15.24a15.26,15.26,0,0,1,6.09-1.5,5.85,5.85,0,0,1,4.3,1.4,6.36,6.36,0,0,1,1.25,4.33v1.55l-4.49.14q-12,.36-12,7.91a7,7,0,0,0,2.08,5.43A8.19,8.19,0,0,0,74.11,33,13.06,13.06,0,0,0,79,32.43a10.84,10.84,0,0,0,4-3.11h.33s.07,2,.11,2.85a.46.46,0,0,0,.44.46H86a.44.44,0,0,0,.46-.45V15.55c0-2.91-.83-5-2.25-6.34S80.34,7.23,77.4,7.23Zm5.23,15.32a7.19,7.19,0,0,1-2,5.41,8.31,8.31,0,0,1-5.78,1.93,5.06,5.06,0,0,1-3.43-1.07,3.91,3.91,0,0,1-1.23-3.11,4.23,4.23,0,0,1,2-3.85q2-1.24,6.43-1.4l4-.16Z"/></g></g></svg>