<svg id="Layer_1" data-name="Layer 1" xmlns="http://www.w3.org/2000/svg" xmlns:xlink="http://www.w3.org/1999/xlink" viewBox="0 0 105.25 60"><defs><style>.cls-1{fill:url(#linear-gradient);}</style><linearGradient id="linear-gradient" x1="52.63" x2="52.63" y2="60" gradientUnits="userSpaceOnUse"><stop offset="0" stop-color="#f79810"/><stop offset="1" stop-color="#f8310e"/></linearGradient></defs><title>soundcloud_logo</title><path class="cls-1" d="M1.19,27.34a.44.44,0,0,0-.42.41L0,33.6l.77,5.75a.43.43,0,0,0,.42.41.44.44,0,0,0,.42-.41h0l.91-5.75-.91-5.85A.44.44,0,0,0,1.19,27.34Zm4.33-3.19a.44.44,0,0,0-.88,0l-1,9.45,1,9.24a.44.44,0,0,0,.87,0L6.7,33.6Zm16.31-8.72a.81.81,0,0,0-.8.79l-.82,17.39L21,44.85a.8.8,0,0,0,1.59,0h0l.93-11.24-.93-17.39A.82.82,0,0,0,21.83,15.42Zm-8.44,6a.63.63,0,0,0-.62.61L11.84,33.6l.93,11.15a.62.62,0,0,0,1.23,0L15.06,33.6,14,22.08A.64.64,0,0,0,13.39,21.47Zm17,24.16a1,1,0,0,0,1-1l.81-11.05-.81-23.15a1,1,0,0,0-2,0l-.72,23.15.72,11.05A1,1,0,0,0,30.4,45.63ZM48,45.68a1.35,1.35,0,0,0,1.34-1.33h0l.56-10.73L49.29,6.88a1.34,1.34,0,0,0-2.67,0l-.5,26.73s.5,10.75.5,10.75A1.35,1.35,0,0,0,48,45.68Zm-8.85,0a1.16,1.16,0,0,0,1.16-1.15h0L41,33.61l-.69-23.32a1.16,1.16,0,0,0-2.31,0l-.61,23.32L38,44.49A1.16,1.16,0,0,0,39.11,45.64Zm-21.52-.1a.72.72,0,0,0,.71-.7l1-11.24-1-10.69a.71.71,0,0,0-1.41,0L16,33.6l.88,11.24A.72.72,0,0,0,17.59,45.54Zm-8.37-.62a.54.54,0,0,0,.53-.52L10.86,33.6,9.75,22.38a.55.55,0,0,0-.53-.52.54.54,0,0,0-.53.52l-1,11.22,1,10.8A.54.54,0,0,0,9.22,44.92Zm34.3-35a1.25,1.25,0,0,0-1.25,1.24l-.56,22.47.56,10.81a1.25,1.25,0,0,0,2.49,0h0l.62-10.81-.62-22.47A1.25,1.25,0,0,0,43.52,9.9ZM26.1,45.65a.9.9,0,0,0,.89-.88l.87-11.17L27,12.24a.89.89,0,0,0-1.77,0l-.77,21.37.77,11.17A.9.9,0,0,0,26.1,45.65ZM35.8,44.6h0l.75-11L35.8,9.68a1.07,1.07,0,0,0-2.13,0L33,33.61l.66,11a1.07,1.07,0,0,0,2.13,0Zm56.5-24.78a12.94,12.94,0,0,0-5,1A22.85,22.85,0,0,0,64.55,0a23.14,23.14,0,0,0-8.28,1.55c-1,.38-1.24.77-1.25,1.52V44.16a1.56,1.56,0,0,0,1.4,1.53l35.89,0a12.95,12.95,0,0,0,0-25.89ZM52.38,3A1.44,1.44,0,0,0,51,4.46l-.58,29.16L51,44.2a1.43,1.43,0,0,0,2.85,0h0l.63-10.59L53.8,4.45A1.44,1.44,0,0,0,52.38,3ZM10.45,53.94c-1.53-.36-1.95-.55-1.95-1.16,0-.43.35-.87,1.38-.87a2.94,2.94,0,0,1,2.2,1l1.39-1.35A4.62,4.62,0,0,0,10,50c-1.91,0-3.45,1.08-3.45,2.83,0,1.9,1.24,2.47,3,2.88s2.15.69,2.15,1.31-.54,1-1.68,1A3.13,3.13,0,0,1,7.53,57l-1.4,1.24A4.48,4.48,0,0,0,9.89,60c2.64,0,3.8-1.24,3.8-3.08C13.69,54.82,12,54.3,10.45,53.94ZM19.34,50c-2.64,0-4.19,2-4.19,5s1.56,5,4.19,5,4.2-2,4.2-5S22,50,19.34,50Zm0,8c-1.56,0-2.21-1.34-2.21-3.06S17.79,52,19.34,52s2.21,1.34,2.21,3.06S20.91,58.08,19.34,58.08Zm12-2.47c0,1.55-.76,2.5-2,2.5s-2-1-2-2.53v-5.4H25.44v5.43C25.44,58.43,27,60,29.35,60s3.92-1.62,3.92-4.42v-5.4H31.34Zm10.27-1.34c0,.54,0,1.75,0,2.11-.12-.25-.44-.73-.67-1.09l-3.43-5.11H35.68v9.66h1.9V55.6c0-.54,0-1.75,0-2.11.12.25.44.73.68,1.09l3.55,5.27h1.72V50.19h-1.9ZM49,50.19H46v9.66h2.88c2.48,0,4.94-1.44,4.94-4.83S51.78,50.19,49,50.19ZM48.88,58h-1V52.07h1c2,0,2.89,1,2.89,3A2.67,2.67,0,0,1,48.88,58Zm10.92-6a1.84,1.84,0,0,1,1.77,1l1.79-.83A3.65,3.65,0,0,0,59.82,50c-2.52,0-4.29,2-4.29,5s1.7,5,4.22,5a3.69,3.69,0,0,0,3.58-2.18l-1.63-1a2,2,0,0,1-1.89,1.23c-1.45,0-2.29-1.33-2.29-3.06S58.35,52,59.79,52ZM67,50.19H65v9.66h5.81V57.94H67Zm9-.15c-2.64,0-4.2,2-4.2,5s1.56,5,4.2,5,4.2-2,4.2-5S78.56,50,75.93,50Zm0,8c-1.56,0-2.21-1.34-2.21-3.06S74.37,52,75.93,52s2.21,1.34,2.21,3.06S77.48,58.08,75.93,58.08Zm12-2.47c0,1.55-.76,2.5-2,2.5s-2-1-2-2.53v-5.4H82v5.43C82,58.43,83.6,60,85.93,60s3.92-1.62,3.92-4.42v-5.4H87.92Zm7.37-5.43h-3v9.66h2.88c2.49,0,4.94-1.44,4.94-4.83S98,50.19,95.29,50.19ZM95.15,58h-1V52.07h1c2,0,2.88,1,2.88,3A2.67,2.67,0,0,1,95.15,58Z"/></svg>