<svg id="Layer_1" data-name="Layer 1" xmlns="http://www.w3.org/2000/svg" viewBox="0 0 146.7 44"><defs><style>.cls-1{fill:#2ebd59;}</style></defs><title>spotify-logo</title><path class="cls-1" d="M22,0A22,22,0,1,0,44,22,22,22,0,0,0,22,0ZM32.09,31.73a1.37,1.37,0,0,1-1.89.46C25,29,18.53,28.32,10.88,30.06a1.37,1.37,0,1,1-.61-2.67c8.38-1.92,15.57-1.09,21.37,2.45a1.37,1.37,0,0,1,.45,1.89Zm2.69-6a1.72,1.72,0,0,1-2.36.56c-5.91-3.63-14.93-4.69-21.92-2.56a1.72,1.72,0,1,1-1-3.28c8-2.42,17.92-1.25,24.71,2.92a1.71,1.71,0,0,1,.56,2.36h0ZM35,19.5C27.92,15.29,16.22,14.9,9.45,17A2.06,2.06,0,1,1,8.26,13C16,10.66,28.95,11.12,37.11,16A2.06,2.06,0,0,1,35,19.5Zm24.84.81c-3.8-.91-4.47-1.54-4.47-2.88s1.19-2.11,3-2.11a8.63,8.63,0,0,1,5.19,2,.25.25,0,0,0,.19,0,.25.25,0,0,0,.16-.1l1.85-2.61a.25.25,0,0,0,0-.34,11.22,11.22,0,0,0-7.3-2.53c-4.1,0-7,2.46-7,6,0,3.78,2.47,5.11,6.74,6.15,3.63.84,4.25,1.54,4.25,2.79s-1.24,2.25-3.24,2.25a8.72,8.72,0,0,1-6-2.5.26.26,0,0,0-.18-.06.25.25,0,0,0-.17.09L50.7,28.94a.25.25,0,0,0,0,.34,12.4,12.4,0,0,0,8.37,3.21c4.42,0,7.28-2.41,7.28-6.15,0-3.16-1.88-4.9-6.51-6h0Zm16.51-3.75a6,6,0,0,0-4.78,2.3V17.12a.25.25,0,0,0-.25-.25h-3.4a.25.25,0,0,0-.25.25V36.46a.25.25,0,0,0,.25.25h3.4a.25.25,0,0,0,.25-.25v-6.1a6.11,6.11,0,0,0,4.78,2.16c3.56,0,7.16-2.74,7.16-8s-3.6-8-7.16-8h0Zm3.21,8c0,2.67-1.64,4.53-4,4.53a4.23,4.23,0,0,1-4.08-4.53A4.23,4.23,0,0,1,75.58,20c2.31,0,4,1.9,4,4.53h0Zm13.19-8a8,8,0,1,0,8.15,8,8,8,0,0,0-8.15-8h0Zm0,12.53a4.33,4.33,0,0,1-4.28-4.56A4.22,4.22,0,0,1,92.71,20,4.34,4.34,0,0,1,97,24.6a4.23,4.23,0,0,1-4.25,4.5h0ZM110.7,16.87H107V13a.25.25,0,0,0-.25-.25h-3.4a.25.25,0,0,0-.25.25v3.83h-1.64a.25.25,0,0,0-.25.25V20a.25.25,0,0,0,.25.25h1.64v7.56c0,3.06,1.52,4.61,4.52,4.61a6.2,6.2,0,0,0,3.19-.79.25.25,0,0,0,.13-.22V28.67a.25.25,0,0,0-.36-.22,4.29,4.29,0,0,1-2,.48c-1.09,0-1.58-.5-1.58-1.61v-7h3.74a.25.25,0,0,0,.25-.25V17.13a.24.24,0,0,0-.24-.25Zm13,0v-.47c0-1.38.53-2,1.72-2a5.74,5.74,0,0,1,1.92.35.25.25,0,0,0,.33-.24V11.67a.25.25,0,0,0-.18-.24A9.34,9.34,0,0,0,124.7,11c-3.14,0-4.8,1.77-4.8,5.11v.72h-1.63a.25.25,0,0,0-.25.25V20a.25.25,0,0,0,.25.25h1.63V32a.25.25,0,0,0,.25.25h3.4a.25.25,0,0,0,.25-.25V20.3H127L131.84,32c-.55,1.23-1.1,1.47-1.84,1.47a3.92,3.92,0,0,1-1.88-.53.26.26,0,0,0-.2,0,.25.25,0,0,0-.15.13l-1.15,2.53a.25.25,0,0,0,.11.32,7.16,7.16,0,0,0,3.63.93c2.51,0,3.9-1.17,5.12-4.32l5.9-15.25a.25.25,0,0,0-.23-.34h-3.54a.25.25,0,0,0-.24.17l-3.63,10.36-4-10.37a.25.25,0,0,0-.23-.16h-5.81Zm-7.56,0h-3.4a.25.25,0,0,0-.25.25V32a.25.25,0,0,0,.25.25h3.4a.25.25,0,0,0,.25-.25V17.12a.25.25,0,0,0-.25-.25h0Zm-1.68-6.76a2.44,2.44,0,1,0,2.44,2.44,2.44,2.44,0,0,0-2.44-2.44h0Zm29.8,11.53a2.4,2.4,0,1,1,2.41-2.41,2.38,2.38,0,0,1-2.41,2.41Zm0-4.56a2.16,2.16,0,1,0,2.14,2.15,2.14,2.14,0,0,0-2.14-2.15h0Zm.53,2.4.68.95h-.57l-.61-.87h-.52v.87h-.48V17.92h1.12c.58,0,1,.3,1,.8a.75.75,0,0,1-.58.76h0Zm-.4-1.13h-.62v.79h.62c.31,0,.5-.15.5-.4s-.19-.4-.5-.4h0Z"/></svg>