<svg id="Layer_1" data-name="Layer 1" xmlns="http://www.w3.org/2000/svg" viewBox="0 0 226.67 30"><defs><style>.cls-1{fill:#282828;}</style></defs><title>tidal-logo</title><polygon class="cls-1" points="82.47 29.39 76.66 29.39 76.66 8.75 69.13 8.75 69.13 3.77 90 3.77 90 8.75 82.47 8.75 82.47 29.39"/><rect class="cls-1" x="107.41" y="3.76" width="5.85" height="25.62"/><polygon class="cls-1" points="216.54 24.33 226.66 24.33 226.66 29.39 210.69 29.39 210.69 3.77 216.54 3.77 216.54 24.33"/><path class="cls-1" d="M138.42,24.37h3.63c4.88,0,8.14-3,8.14-7.89,0-4.61-3.29-7.72-8-7.72h-3.77Zm-5.68-20.6h9.48c7,0,14,3.71,14,12.74,0,8.52-6.82,12.88-13.61,12.88h-9.83Z"/><path class="cls-1" d="M177.55,19.78l3.86-10,3.82,10Zm11.11,9.61h6.43L184.54,3.76h-6L167.84,29.39h6.26L176,24.33h10.81Z"/><rect class="cls-1" x="17.2" y="2.2" width="10.61" height="10.61" transform="translate(1.29 18.11) rotate(-45.01)"/><rect class="cls-1" x="17.2" y="17.2" width="10.61" height="10.61" transform="translate(-9.32 22.5) rotate(-45)"/><rect class="cls-1" x="2.2" y="2.2" width="10.61" height="10.61" transform="translate(-3.11 7.5) rotate(-45)"/><rect class="cls-1" x="32.2" y="2.2" width="10.61" height="10.61" transform="translate(5.68 28.72) rotate(-45.01)"/></svg>