<svg id="Livello_1" data-name="Livello 1" xmlns="http://www.w3.org/2000/svg" viewBox="0 0 166.17 37"><defs><style>.cls-1{fill:#e52721;}.cls-2{fill:#2b2b2b;}.cls-3{fill:#fefefe;}</style></defs><title>youtube-logo</title><g id="_Group_" data-name="&lt;Group&gt;"><path id="_Compound_Path_" data-name="&lt;Compound Path&gt;" class="cls-1" d="M35.21,0c.22.31.54.14.81.16,3.1.14,6.21.25,9.3.63,4.17.52,6.29,2.52,6.91,6.67a80.86,80.86,0,0,1,.55,16.34,49,49,0,0,1-.69,6.44,6.78,6.78,0,0,1-6.33,5.93A163,163,0,0,1,28.37,37q-8.92.1-17.83-.48a34.77,34.77,0,0,1-4-.48A6.65,6.65,0,0,1,1,30.69a50.76,50.76,0,0,1-.82-6.92c0-.24.14-.55-.17-.73V14c.31-.18.15-.49.17-.73.16-2,.31-4.09.65-6.12C1.46,3.32,3.61,1.28,7.43.79c3-.39,6.08-.48,9.13-.63.27,0,.6.16.81-.16ZM21.28,10.62V26.38L35,18.5Z"/><path id="_Compound_Path_2" data-name="&lt;Compound Path&gt;" class="cls-2" d="M166.17,29c-.31.24-.15.6-.21.89a5.27,5.27,0,0,1-4.4,4.48,9.65,9.65,0,0,1-4.65-.07c-2.36-.64-3.47-2.42-4-4.64a11.83,11.83,0,0,1-.41-2.47c-.11-3.86-.47-7.73.39-11.55.76-3.35,2.65-4.86,6.11-5a10,10,0,0,1,2.26.1c2.68.49,4.07,2,4.59,4.74a3.85,3.85,0,0,0,.33,1.52V24.5l-8.35-.06c-.25,0-.41.06-.4.36a24.66,24.66,0,0,0,.31,5,1.57,1.57,0,0,0,1.67,1.35,1.64,1.64,0,0,0,1.75-1.26,6.26,6.26,0,0,0,.31-2.07c0-.42.07-.64.58-.59,1.18.1,2.37.16,3.56.19.3,0,.39.21.56.34Zm-8.75-10.27c0,.64,0,1.4,0,2.15,0,.31,0,.5.42.49,1,0,2,0,3,0,.23,0,.43,0,.43-.33a29.45,29.45,0,0,0-.3-5.48,1.56,1.56,0,0,0-1.76-1.33c-.79,0-1.24.41-1.48,1.33A18.35,18.35,0,0,0,157.42,18.78Z"/><path id="_Compound_Path_3" data-name="&lt;Compound Path&gt;" class="cls-2" d="M140.42,13.62a5.79,5.79,0,0,1,3.57-2.8,4.15,4.15,0,0,1,5.15,2.66,12.88,12.88,0,0,1,.75,4.12,66.65,66.65,0,0,1-.12,11.09,11.61,11.61,0,0,1-.79,3.12,4.16,4.16,0,0,1-3.49,2.88,5.14,5.14,0,0,1-4.85-2c-.11-.15-.21-.3-.36-.52-.08.2-.15.34-.18.48-.45,1.72-.45,1.72-2.18,1.72-.62,0-1.25,0-1.86,0s-.71-.17-.71-.72c0-4.95,0-9.89,0-14.84,0-5.51,0-11,0-16.54,0-.75.22-.89.9-.86a27.09,27.09,0,0,0,3.32,0c.79-.06.9.25.89.94C140.4,6,140.42,9.71,140.42,13.62ZM144.74,23c0-1.3,0-2.59,0-3.89a11.68,11.68,0,0,0-.5-3.59,1.52,1.52,0,0,0-2.41-.83,2.64,2.64,0,0,0-1.34,2.34c0,4,0,8,0,12a1.88,1.88,0,0,0,3.61.71,5.41,5.41,0,0,0,.33-1.16A35.82,35.82,0,0,0,144.74,23Z"/><path id="_Path_" data-name="&lt;Path&gt;" class="cls-2" d="M100.81,31.46a5.8,5.8,0,0,1-3.75,3.19,4.31,4.31,0,0,1-5.7-3.87,18.34,18.34,0,0,1-.16-2.5c0-5.43,0-10.87,0-16.3,0-.61.12-.83.78-.8,1.27.06,2.54,0,3.81,0,.58,0,.71.17.71.73q0,7.91,0,15.81a8,8,0,0,0,.23,2.41A1.18,1.18,0,0,0,98,31a2.11,2.11,0,0,0,2.18-2.17c0-5.65,0-11.3,0-16.95,0-.62.16-.77.76-.75,1.32,0,2.65,0,4,0,.47,0,.58.15.58.6q0,11,0,22.06c0,.39-.06.59-.52.58q-1.58,0-3.16,0c-.4,0-.5-.14-.54-.5C101.11,33.17,101,32.44,100.81,31.46Z"/><path id="_Path_2" data-name="&lt;Path&gt;" class="cls-2" d="M127.63,31.46a5.86,5.86,0,0,1-3.35,3.08c-3.26,1-5.8-.68-6.15-4.08a45.34,45.34,0,0,1-.13-4.54c0-4.65,0-9.3,0-14,0-.64.17-.82.8-.8,1.27.05,2.54,0,3.81,0,.57,0,.72.14.71.71,0,5.33,0,10.65,0,16a7.38,7.38,0,0,0,.17,2.09A1.24,1.24,0,0,0,125,31a2,2,0,0,0,1.92-2.08c0-5.65,0-11.3,0-17,0-.61.1-.85.78-.82,1.3.06,2.6,0,3.89,0,.48,0,.65.09.64.61q0,11,0,22c0,.49-.1.66-.62.64-1,0-2,0-3,0-.38,0-.57-.06-.61-.51C128,33.15,127.79,32.42,127.63,31.46Z"/><path id="_Compound_Path_4" data-name="&lt;Compound Path&gt;" class="cls-2" d="M88.54,23.36a33.14,33.14,0,0,1-.41,5.85c-.78,3.89-2.87,5.61-6.82,5.57a11.34,11.34,0,0,1-2.49-.28c-2.56-.6-3.79-2.39-4.32-4.81a16.76,16.76,0,0,1-.4-3.13,45.67,45.67,0,0,1,.36-10.26c.88-4.45,3.8-5.91,8-5.52,3.28.31,5.13,2,5.8,6.46A40,40,0,0,1,88.54,23.36Zm-9.17-.63c0,1.49,0,3,0,4.46a8.29,8.29,0,0,0,.47,2.94,1.51,1.51,0,0,0,1.42,1,1.46,1.46,0,0,0,1.45-1,4.81,4.81,0,0,0,.39-1.64c.27-3.48.12-7,.1-10.44a7.12,7.12,0,0,0-.47-2.78,1.54,1.54,0,0,0-2.87,0,6.14,6.14,0,0,0-.37,1.57A55,55,0,0,0,79.37,22.73Z"/><path id="_Path_3" data-name="&lt;Path&gt;" class="cls-2" d="M58.26,2.6c1.63,0,3.23,0,4.82,0,.46,0,.45.32.5.58,1,5,2.24,10,3.11,15a1.12,1.12,0,0,0,.08.19c.52-2.52,1-5,1.56-7.48s1.18-5.2,1.74-7.8c.07-.33.13-.53.54-.52,1.56,0,3.13,0,4.79,0L73.9,7.94q-2.19,7.81-4.39,15.62a4.07,4.07,0,0,0-.12,1.12c0,2.95,0,5.89,0,8.84,0,.65-.12.9-.83.87-1.19-.06-2.38-.05-3.57,0-.62,0-.84-.13-.82-.79.05-1.73-.07-3.46,0-5.19a24.45,24.45,0,0,0-1.15-8.35c-1.65-5.66-3.16-11.35-4.73-17C58.32,2.91,58.3,2.78,58.26,2.6Z"/><path id="_Path_4" data-name="&lt;Path&gt;" class="cls-2" d="M114.42,20.62c0,4.33,0,8.65,0,13,0,.65-.18.82-.81.79-1.16-.05-2.33-.06-3.49,0-.68,0-.85-.17-.85-.84,0-7.25,0-14.49,0-21.74,0-1.43,0-2.87,0-4.3,0-.51-.11-.71-.67-.69-1.3,0-2.6,0-3.89,0-.47,0-.68-.07-.65-.61,0-1,0-2,0-3,0-.48.09-.65.61-.65q7.14,0,14.28,0c.51,0,.64.14.62.63,0,1,0,2.06,0,3.08,0,.43-.13.55-.55.54-1.24,0-2.49,0-3.73,0-.71,0-1,.13-.94.9C114.44,12,114.42,16.32,114.42,20.62Z"/><path id="_Path_5" data-name="&lt;Path&gt;" class="cls-3" d="M21.28,10.62,35,18.5,21.28,26.38Z"/></g></svg>