<svg id="objects" xmlns="http://www.w3.org/2000/svg" viewBox="0 0 204.17 67.15"><defs><style>.cls-1{fill:#2d6cec;}</style></defs><title>gistogram</title><path class="cls-1" d="M7.24,27.66A.25.25,0,0,1,7,27.41v-.5a.25.25,0,1,1,.5,0v.5a.25.25,0,0,1-.25.25Z" transform="translate(0 0)"/><path class="cls-1" d="M7.24,37.75A.25.25,0,0,1,7,37.5V36.38a.25.25,0,0,1,.5,0V37.5a.25.25,0,0,1-.25.25Zm0-3.36A.25.25,0,0,1,7,34.13H7V33a.25.25,0,0,1,.5,0v1.12a.25.25,0,0,1-.24.26h0Zm0-3.36A.25.25,0,0,1,7,30.77H7V29.65a.25.25,0,0,1,.5,0v1.12a.25.25,0,0,1-.26.23Z" transform="translate(0 0)"/><path class="cls-1" d="M7.24,40.49A.25.25,0,0,1,7,40.24v-.5a.25.25,0,0,1,.5,0v.5a.25.25,0,0,1-.25.25Z" transform="translate(0 0)"/><path class="cls-1" d="M10.33,36.25a.25.25,0,0,1-.25-.25v-.5a.25.25,0,0,1,.5,0V36A.25.25,0,0,1,10.33,36.25Z" transform="translate(0 0)"/><path class="cls-1" d="M10.33,34.21a.25.25,0,0,1-.25-.25v-.77a.25.25,0,0,1,.5,0V34A.25.25,0,0,1,10.33,34.21Z" transform="translate(0 0)"/><path class="cls-1" d="M10.33,31.9a.25.25,0,0,1-.25-.25v-.5a.25.25,0,0,1,.5,0v.5A.25.25,0,0,1,10.33,31.9Z" transform="translate(0 0)"/><path class="cls-1" d="M13.41,35.64a.25.25,0,0,1-.25-.25v-.5a.25.25,0,0,1,.5,0v.5A.25.25,0,0,1,13.41,35.64Z" transform="translate(0 0)"/><path class="cls-1" d="M13.41,34.09a.25.25,0,0,1-.25-.25v-.53a.25.25,0,0,1,.5,0v.53A.25.25,0,0,1,13.41,34.09Z" transform="translate(0 0)"/><path class="cls-1" d="M13.41,32.5a.25.25,0,0,1-.25-.25v-.5a.25.25,0,0,1,.5,0v.5A.25.25,0,0,1,13.41,32.5Z" transform="translate(0 0)"/><path class="cls-1" d="M41,35.64a.25.25,0,0,1-.25-.25v-.5a.25.25,0,1,1,.5,0v.5A.25.25,0,0,1,41,35.64Z" transform="translate(0 0)"/><path class="cls-1" d="M41,34.09a.25.25,0,0,1-.25-.25v-.53a.25.25,0,1,1,.5,0v.53A.25.25,0,0,1,41,34.09Z" transform="translate(0 0)"/><path class="cls-1" d="M41,32.5a.25.25,0,0,1-.25-.25v-.5a.25.25,0,0,1,.5,0v.5A.25.25,0,0,1,41,32.5Z" transform="translate(0 0)"/><path class="cls-1" d="M16.49,35a.25.25,0,0,1-.25-.25v-.5a.25.25,0,0,1,.5,0v.5A.25.25,0,0,1,16.49,35Z" transform="translate(0 0)"/><path class="cls-1" d="M16.49,33.11a.25.25,0,0,1-.25-.25v-.5a.25.25,0,0,1,.5,0v.5A.25.25,0,0,1,16.49,33.11Z" transform="translate(0 0)"/><path class="cls-1" d="M19.57,40.73a.25.25,0,0,1-.25-.25V40a.25.25,0,0,1,.5,0v.5A.25.25,0,0,1,19.57,40.73Z" transform="translate(0 0)"/><path class="cls-1" d="M19.57,38.4a.25.25,0,0,1-.25-.25v-.92a.25.25,0,0,1,.5,0v.92A.25.25,0,0,1,19.57,38.4Zm0-2.75a.25.25,0,0,1-.25-.25v-.92a.25.25,0,0,1,.5,0v.92A.25.25,0,0,1,19.57,35.65Zm0-2.75a.25.25,0,0,1-.25-.25v-.92a.25.25,0,0,1,.5,0v.92a.25.25,0,0,1-.24.26h0Zm0-2.75a.25.25,0,0,1-.25-.25V29a.25.25,0,0,1,.5,0v.92a.25.25,0,0,1-.25.24Z" transform="translate(0 0)"/><path class="cls-1" d="M19.57,27.42a.25.25,0,0,1-.25-.25v-.5a.25.25,0,0,1,.5,0v.5A.25.25,0,0,1,19.57,27.42Z" transform="translate(0 0)"/><path class="cls-1" d="M22.65,47.76a.25.25,0,0,1-.25-.25V47a.25.25,0,0,1,.5,0v.5a.25.25,0,0,1-.24.26Z" transform="translate(0 0)"/><path class="cls-1" d="M22.65,45.19a.25.25,0,0,1-.25-.25v-1a.25.25,0,0,1,.5,0v1A.25.25,0,0,1,22.65,45.19Zm0-3.1a.25.25,0,0,1-.25-.25v-1a.25.25,0,0,1,.5,0v1A.25.25,0,0,1,22.65,42.09Zm0-3.1a.25.25,0,0,1-.25-.25v-1a.25.25,0,0,1,.5,0v1a.25.25,0,0,1-.24.26h0Zm0-3.1a.25.25,0,0,1-.25-.25v-1a.25.25,0,0,1,.5,0v1A.25.25,0,0,1,22.65,35.89Zm0-3.1a.25.25,0,0,1-.25-.25v-1a.25.25,0,0,1,.5,0v1A.25.25,0,0,1,22.65,32.79Zm0-3.1a.25.25,0,0,1-.25-.25v-1a.25.25,0,0,1,.5,0v1A.25.25,0,0,1,22.65,29.69Zm0-3.1a.25.25,0,0,1-.25-.25v-1a.25.25,0,0,1,.5,0v1A.25.25,0,0,1,22.65,26.59Zm0-3.1a.25.25,0,0,1-.25-.25v-1a.25.25,0,0,1,.5,0v1A.25.25,0,0,1,22.65,23.49Z" transform="translate(0 0)"/><path class="cls-1" d="M22.65,20.39a.25.25,0,0,1-.25-.25v-.5a.25.25,0,0,1,.5,0v.5A.25.25,0,0,1,22.65,20.39Z" transform="translate(0 0)"/><path class="cls-1" d="M25.73,64.12a.25.25,0,0,1-.25-.25v-.5a.25.25,0,0,1,.5,0v.5A.25.25,0,0,1,25.73,64.12Z" transform="translate(0 0)"/><path class="cls-1" d="M25.73,61.6a.25.25,0,0,1-.25-.25v-1a.25.25,0,0,1,.5,0v1A.25.25,0,0,1,25.73,61.6Zm0-3a.25.25,0,0,1-.25-.25v-1a.25.25,0,0,1,.5,0v1a.25.25,0,0,1-.25.22Zm0-3a.25.25,0,0,1-.25-.25v-1a.25.25,0,0,1,.5,0v1a.25.25,0,0,1-.25.19Zm0-3a.25.25,0,0,1-.25-.25v-1a.25.25,0,0,1,.5,0v1a.25.25,0,0,1-.25.16Zm0-3a.25.25,0,0,1-.25-.25v-1a.25.25,0,0,1,.5,0v1a.25.25,0,0,1-.25.13Zm0-3a.25.25,0,0,1-.25-.25v-1a.25.25,0,0,1,.5,0v1a.25.25,0,0,1-.25.1Zm0-3a.25.25,0,0,1-.25-.25v-1a.25.25,0,0,1,.5,0v1a.25.25,0,0,1-.25.07Zm0-3a.25.25,0,0,1-.25-.25v-1a.25.25,0,0,1,.5,0v1a.25.25,0,0,1-.25,0Zm0-3a.25.25,0,0,1-.25-.25v-1a.25.25,0,0,1,.5,0v1a.25.25,0,0,1-.25,0Zm0-3a.25.25,0,0,1-.25-.25v-1a.25.25,0,0,1,.5,0v1a.25.25,0,0,1-.25,0Zm0-3a.25.25,0,0,1-.25-.25V30a.25.25,0,0,1,.5,0v1a.25.25,0,0,1-.19.29h-.06Zm0-3a.25.25,0,0,1-.25-.25V27a.25.25,0,0,1,.5,0v1a.25.25,0,0,1-.23.27h0Zm0-3a.25.25,0,0,1-.25-.25V24a.25.25,0,0,1,.5,0v1a.25.25,0,0,1-.25.24Zm0-3a.25.25,0,0,1-.25-.25v-1a.25.25,0,1,1,.5,0v1a.25.25,0,0,1-.25-.14Zm0-3a.25.25,0,0,1-.25-.25v-1a.25.25,0,1,1,.5,0v1a.25.25,0,0,1-.25-.17Zm0-3a.25.25,0,0,1-.25-.25v-1a.25.25,0,0,1,.5,0v1a.25.25,0,0,1-.25-.2Zm0-3a.25.25,0,0,1-.25-.25v-1a.25.25,0,0,1,.5,0v1a.25.25,0,0,1-.25-.23Zm0-3a.25.25,0,0,1-.25-.25v-1a.25.25,0,1,1,.5,0v1a.25.25,0,0,1-.25-.25h0Zm0-3a.25.25,0,0,1-.25-.25v-1a.25.25,0,1,1,.5,0v1a.25.25,0,0,1-.25-.29Z" transform="translate(0 0)"/><path class="cls-1" d="M25.73,4a.25.25,0,0,1-.25-.25v-.5a.25.25,0,1,1,.5,0v.5A.25.25,0,0,1,25.73,4Z" transform="translate(0 0)"/><path class="cls-1" d="M28.82,45.33a.25.25,0,0,1-.25-.25v-.5a.25.25,0,0,1,.5,0v.5A.25.25,0,0,1,28.82,45.33Z" transform="translate(0 0)"/><path class="cls-1" d="M28.82,42.92a.25.25,0,0,1-.25-.25v-1a.25.25,0,0,1,.5,0v1A.25.25,0,0,1,28.82,42.92Zm0-2.87a.25.25,0,0,1-.25-.25v-1a.25.25,0,0,1,.5,0v1a.25.25,0,0,1-.25.2Zm0-2.87a.25.25,0,0,1-.25-.25V36a.25.25,0,0,1,.5,0v1a.25.25,0,0,1-.25.17Zm0-2.87a.25.25,0,0,1-.25-.25v-1a.25.25,0,0,1,.5,0v1a.25.25,0,0,1-.25.24Zm0-2.87a.25.25,0,0,1-.25-.25v-1a.25.25,0,0,1,.5,0v1a.25.25,0,0,1-.25.24Zm0-2.87a.25.25,0,0,1-.25-.25v-1a.25.25,0,0,1,.5,0v1a.25.25,0,0,1-.25.24Zm0-2.87a.25.25,0,0,1-.25-.25v-1a.25.25,0,0,1,.5,0v1a.25.25,0,0,1-.25.23Z" transform="translate(0 0)"/><path class="cls-1" d="M28.82,22.81a.25.25,0,0,1-.25-.25v-.5a.25.25,0,0,1,.5,0v.5A.25.25,0,0,1,28.82,22.81Z" transform="translate(0 0)"/><path class="cls-1" d="M31.9,39.88a.25.25,0,0,1-.25-.25v-.5a.25.25,0,0,1,.5,0v.5a.25.25,0,0,1-.25.25Z" transform="translate(0 0)"/><path class="cls-1" d="M31.9,37.36a.25.25,0,0,1-.25-.25v-1a.25.25,0,0,1,.5,0v1a.25.25,0,0,1-.25.25Zm0-3a.25.25,0,0,1-.25-.25v-1a.25.25,0,0,1,.5,0v1a.25.25,0,0,1-.25.22Zm0-3a.25.25,0,0,1-.25-.25V30a.25.25,0,0,1,.5,0v1a.25.25,0,0,1-.19.29H31.9Z" transform="translate(0 0)"/><path class="cls-1" d="M31.9,28.26a.25.25,0,0,1-.25-.25v-.5a.25.25,0,1,1,.5,0V28a.25.25,0,0,1-.24.26Z" transform="translate(0 0)"/><path class="cls-1" d="M35,45.33a.25.25,0,0,1-.25-.25v-.5a.25.25,0,1,1,.5,0v.5A.25.25,0,0,1,35,45.33Z" transform="translate(0 0)"/><path class="cls-1" d="M35,42.92a.25.25,0,0,1-.25-.25v-1a.25.25,0,1,1,.5,0v1A.25.25,0,0,1,35,42.92ZM35,40a.25.25,0,0,1-.25-.25v-1a.25.25,0,0,1,.5,0v1A.25.25,0,0,1,35,40Zm0-2.87a.25.25,0,0,1-.25-.25V36a.25.25,0,0,1,.5,0v1a.25.25,0,0,1-.25.17Zm0-2.87a.25.25,0,0,1-.25-.25V33a.25.25,0,0,1,.5,0v1a.25.25,0,0,1-.21.29h0Zm0-2.87a.25.25,0,0,1-.25-.25v-1a.25.25,0,1,1,.5,0v1a.25.25,0,0,1-.21.29h0Zm0-2.87a.25.25,0,0,1-.25-.25v-1a.25.25,0,0,1,.5,0v1a.25.25,0,0,1-.21.29h0Zm0-2.87a.25.25,0,0,1-.25-.25v-1a.25.25,0,0,1,.5,0v1a.25.25,0,0,1-.22.28h0Z" transform="translate(0 0)"/><path class="cls-1" d="M35,22.81a.25.25,0,0,1-.25-.25v-.5a.25.25,0,0,1,.5,0v.5A.25.25,0,0,1,35,22.81Z" transform="translate(0 0)"/><path class="cls-1" d="M38.06,37.46a.25.25,0,0,1-.25-.25v-.5a.25.25,0,0,1,.5,0v.5A.25.25,0,0,1,38.06,37.46Z" transform="translate(0 0)"/><path class="cls-1" d="M38.06,34.45a.25.25,0,0,1-.25-.25V32.95a.25.25,0,0,1,.5,0V34.2A.25.25,0,0,1,38.06,34.45Z" transform="translate(0 0)"/><path class="cls-1" d="M38.06,30.69a.25.25,0,0,1-.25-.25v-.5a.25.25,0,0,1,.5,0v.5A.25.25,0,0,1,38.06,30.69Z" transform="translate(0 0)"/><path class="cls-1" d="M44.23,37.46a.25.25,0,0,1-.25-.25v-.5a.25.25,0,0,1,.5,0v.5A.25.25,0,0,1,44.23,37.46Z" transform="translate(0 0)"/><path class="cls-1" d="M44.23,34.45A.25.25,0,0,1,44,34.2V32.95a.25.25,0,0,1,.5,0V34.2a.25.25,0,0,1-.25.25Z" transform="translate(0 0)"/><path class="cls-1" d="M44.23,30.69a.25.25,0,0,1-.25-.25v-.5a.25.25,0,0,1,.5,0v.5A.25.25,0,0,1,44.23,30.69Z" transform="translate(0 0)"/><path class="cls-1" d="M47.31,44.73a.25.25,0,0,1-.25-.25V44a.25.25,0,0,1,.5,0v.5A.25.25,0,0,1,47.31,44.73Z" transform="translate(0 0)"/><path class="cls-1" d="M47.31,42.15a.25.25,0,0,1-.25-.25v-1a.25.25,0,0,1,.5,0v1A.25.25,0,0,1,47.31,42.15Zm0-3.12a.25.25,0,0,1-.25-.25v-1a.25.25,0,0,1,.5,0v1a.25.25,0,0,1-.25.22Zm0-3.12a.25.25,0,0,1-.25-.25v-1a.25.25,0,0,1,.5,0v1a.25.25,0,0,1-.25.24Zm0-3.12a.25.25,0,0,1-.25-.25v-1a.25.25,0,0,1,.5,0v1a.25.25,0,0,1-.25.24Zm0-3.12a.25.25,0,0,1-.25-.25v-1a.25.25,0,1,1,.5,0v1a.25.25,0,0,1-.25.24Zm0-3.12a.25.25,0,0,1-.25-.25v-1a.25.25,0,0,1,.5,0v1a.25.25,0,0,1-.25.24Z" transform="translate(0 0)"/><path class="cls-1" d="M47.31,23.42a.25.25,0,0,1-.25-.25v-.5a.25.25,0,0,1,.5,0v.5A.25.25,0,0,1,47.31,23.42Z" transform="translate(0 0)"/><path class="cls-1" d="M69,35.64a.25.25,0,0,1-.25-.25v-.5a.25.25,0,1,1,.5,0v.5A.25.25,0,0,1,69,35.64Z" transform="translate(0 0)"/><path class="cls-1" d="M69,34.09a.25.25,0,0,1-.25-.25v-.53a.25.25,0,1,1,.5,0v.53A.25.25,0,0,1,69,34.09Z" transform="translate(0 0)"/><path class="cls-1" d="M69,32.5a.25.25,0,0,1-.25-.25v-.5a.25.25,0,0,1,.5,0v.5A.25.25,0,0,1,69,32.5Z" transform="translate(0 0)"/><path class="cls-1" d="M72.26,37.46a.25.25,0,0,1-.25-.25v-.5a.25.25,0,0,1,.5,0v.5A.25.25,0,0,1,72.26,37.46Z" transform="translate(0 0)"/><path class="cls-1" d="M72.26,34.45a.25.25,0,0,1-.26-.24h0V32.95a.25.25,0,0,1,.5,0V34.2A.25.25,0,0,1,72.26,34.45Z" transform="translate(0 0)"/><path class="cls-1" d="M72.26,30.69a.25.25,0,0,1-.25-.25v-.5a.25.25,0,1,1,.5,0v.5A.25.25,0,0,1,72.26,30.69Z" transform="translate(0 0)"/><path class="cls-1" d="M75.34,33.72a.25.25,0,0,1-.25-.25V33a.25.25,0,0,1,.5,0v.5A.25.25,0,0,1,75.34,33.72Z" transform="translate(0 0)"/><path class="cls-1" d="M75.34,34.43a.25.25,0,0,1-.25-.25v-.5a.25.25,0,0,1,.5,0v.5A.25.25,0,0,1,75.34,34.43Z" transform="translate(0 0)"/><path class="cls-1" d="M50.39,53.82a.25.25,0,0,1-.25-.25v-.5a.25.25,0,0,1,.5,0v.5A.25.25,0,0,1,50.39,53.82Z" transform="translate(0 0)"/><path class="cls-1" d="M50.39,51.26a.25.25,0,0,1-.25-.25V50a.25.25,0,1,1,.5,0v1a.25.25,0,0,1-.24.26Zm0-3.08a.25.25,0,0,1-.25-.25v-1a.25.25,0,0,1,.5,0v1a.25.25,0,0,1-.24.26h0Zm0-3.08a.25.25,0,0,1-.25-.25v-1a.25.25,0,0,1,.5,0v1a.25.25,0,0,1-.24.26h0Zm0-3.08a.25.25,0,0,1-.25-.25v-1a.25.25,0,0,1,.5,0v1a.25.25,0,0,1-.25.23Zm0-3.08a.25.25,0,0,1-.25-.25v-1a.25.25,0,0,1,.5,0v1a.25.25,0,0,1-.18.3h-.07Zm0-3.08a.25.25,0,0,1-.25-.25v-1a.25.25,0,0,1,.5,0v1a.25.25,0,0,1-.23.27h0Zm0-3.08a.25.25,0,0,1-.25-.25v-1a.25.25,0,1,1,.5,0v1a.25.25,0,0,1-.23.27h0Zm0-3.08a.25.25,0,0,1-.25-.25v-1a.25.25,0,0,1,.5,0v1a.25.25,0,0,1-.23.27h0Zm0-3.08a.25.25,0,0,1-.25-.25v-1a.25.25,0,1,1,.5,0v1a.25.25,0,0,1-.23.27h0Zm0-3.08a.25.25,0,0,1-.25-.25v-1a.25.25,0,1,1,.5,0v1a.25.25,0,0,1-.23.27h0Zm0-3.08a.25.25,0,0,1-.25-.25v-1a.25.25,0,0,1,.5,0v1a.25.25,0,0,1-.22.28h0Zm0-3.08a.25.25,0,0,1-.25-.25v-1a.25.25,0,0,1,.5,0v1a.25.25,0,0,1-.22.28h0Z" transform="translate(0 0)"/><path class="cls-1" d="M50.39,14.33a.25.25,0,0,1-.25-.25v-.5a.25.25,0,1,1,.5,0v.5A.25.25,0,0,1,50.39,14.33Z" transform="translate(0 0)"/><path class="cls-1" d="M53.47,41.7a.25.25,0,0,1-.25-.25v-.5a.25.25,0,0,1,.5,0v.5A.25.25,0,0,1,53.47,41.7Z" transform="translate(0 0)"/><path class="cls-1" d="M53.47,39.09a.25.25,0,0,1-.25-.25v-1a.25.25,0,0,1,.5,0v1A.25.25,0,0,1,53.47,39.09Zm0-3.16a.25.25,0,0,1-.25-.25v-1a.25.25,0,0,1,.5,0v1A.25.25,0,0,1,53.47,35.93Zm0-3.16a.25.25,0,0,1-.25-.25V31.46a.25.25,0,0,1,.5,0v1a.25.25,0,0,1-.24.26Zm0-3.16a.25.25,0,0,1-.25-.25V28.3a.25.25,0,1,1,.5,0v1a.25.25,0,0,1-.24.26Z" transform="translate(0 0)"/><path class="cls-1" d="M53.47,26.45a.25.25,0,0,1-.25-.25v-.5a.25.25,0,0,1,.5,0v.5A.25.25,0,0,1,53.47,26.45Z" transform="translate(0 0)"/><path class="cls-1" d="M56.55,37.46a.25.25,0,0,1-.25-.25v-.5a.25.25,0,0,1,.5,0v.5A.25.25,0,0,1,56.55,37.46Z" transform="translate(0 0)"/><path class="cls-1" d="M56.55,34.45a.25.25,0,0,1-.25-.25V32.95a.25.25,0,0,1,.5,0V34.2A.25.25,0,0,1,56.55,34.45Z" transform="translate(0 0)"/><path class="cls-1" d="M56.55,30.69a.25.25,0,0,1-.25-.25v-.5a.25.25,0,0,1,.5,0v.5A.25.25,0,0,1,56.55,30.69Z" transform="translate(0 0)"/><path class="cls-1" d="M59.63,35.64a.25.25,0,0,1-.25-.25v-.5a.25.25,0,0,1,.5,0v.5A.25.25,0,0,1,59.63,35.64Z" transform="translate(0 0)"/><path class="cls-1" d="M59.63,34.09a.25.25,0,0,1-.25-.25v-.53a.25.25,0,0,1,.5,0v.53A.25.25,0,0,1,59.63,34.09Z" transform="translate(0 0)"/><path class="cls-1" d="M59.63,32.5a.25.25,0,0,1-.25-.25v-.5a.25.25,0,0,1,.5,0v.5A.25.25,0,0,1,59.63,32.5Z" transform="translate(0 0)"/><path class="cls-1" d="M78.55,37.46a.25.25,0,0,1-.25-.25v-.5a.25.25,0,0,1,.5,0v.5A.25.25,0,0,1,78.55,37.46Z" transform="translate(0 0)"/><path class="cls-1" d="M78.55,34.45a.25.25,0,0,1-.25-.25V32.95a.25.25,0,1,1,.5,0V34.2A.25.25,0,0,1,78.55,34.45Z" transform="translate(0 0)"/><path class="cls-1" d="M78.55,30.69a.25.25,0,0,1-.25-.25v-.5a.25.25,0,1,1,.5,0v.5A.25.25,0,0,1,78.55,30.69Z" transform="translate(0 0)"/><path class="cls-1" d="M81.63,44.73a.25.25,0,0,1-.25-.25V44a.25.25,0,0,1,.5,0v.5A.25.25,0,0,1,81.63,44.73Z" transform="translate(0 0)"/><path class="cls-1" d="M81.63,42.15a.25.25,0,0,1-.25-.25v-1a.25.25,0,0,1,.5,0v1A.25.25,0,0,1,81.63,42.15Zm0-3.12a.25.25,0,0,1-.25-.25v-1a.25.25,0,1,1,.5,0v1a.25.25,0,0,1-.25.22Zm0-3.12a.25.25,0,0,1-.25-.25v-1a.25.25,0,0,1,.5,0v1a.25.25,0,0,1-.25.24Zm0-3.12a.25.25,0,0,1-.25-.25v-1a.25.25,0,0,1,.5,0v1a.25.25,0,0,1-.25.24Zm0-3.12a.25.25,0,0,1-.25-.25v-1a.25.25,0,0,1,.5,0v1a.25.25,0,0,1-.25.24Zm0-3.12a.25.25,0,0,1-.25-.25v-1a.25.25,0,1,1,.5,0v1a.25.25,0,0,1-.25.24Z" transform="translate(0 0)"/><path class="cls-1" d="M81.63,23.42a.25.25,0,0,1-.25-.25v-.5a.25.25,0,0,1,.5,0v.5A.25.25,0,0,1,81.63,23.42Z" transform="translate(0 0)"/><path class="cls-1" d="M84.71,38.06a.25.25,0,0,1-.25-.25v-.5a.25.25,0,0,1,.5,0v.5A.25.25,0,0,1,84.71,38.06Z" transform="translate(0 0)"/><path class="cls-1" d="M84.71,35.69a.25.25,0,0,1-.25-.25V34.5a.25.25,0,1,1,.5,0v.94A.25.25,0,0,1,84.71,35.69Zm0-2.81a.25.25,0,0,1-.25-.25V31.7a.25.25,0,1,1,.5,0v.94a.25.25,0,0,1-.25.25Z" transform="translate(0 0)"/><path class="cls-1" d="M84.71,30.08a.25.25,0,0,1-.25-.25v-.5a.25.25,0,0,1,.5,0v.5A.25.25,0,0,1,84.71,30.08Z" transform="translate(0 0)"/><path class="cls-1" d="M87.79,41.7a.25.25,0,0,1-.25-.25v-.5a.25.25,0,1,1,.5,0v.5A.25.25,0,0,1,87.79,41.7Z" transform="translate(0 0)"/><path class="cls-1" d="M87.79,39.09a.25.25,0,0,1-.25-.25v-1a.25.25,0,0,1,.5,0v1A.25.25,0,0,1,87.79,39.09Zm0-3.16a.25.25,0,0,1-.25-.25v-1a.25.25,0,0,1,.5,0v1A.25.25,0,0,1,87.79,35.93Zm0-3.16a.25.25,0,0,1-.25-.25V31.46a.25.25,0,0,1,.5,0v1a.25.25,0,0,1-.24.26Zm0-3.16a.25.25,0,0,1-.25-.25V28.3a.25.25,0,1,1,.5,0v1a.25.25,0,0,1-.24.26Z" transform="translate(0 0)"/><path class="cls-1" d="M87.79,26.45a.25.25,0,0,1-.25-.25v-.5a.25.25,0,1,1,.5,0v.5A.25.25,0,0,1,87.79,26.45Z" transform="translate(0 0)"/><path class="cls-1" d="M90.88,37.46a.25.25,0,0,1-.25-.25v-.5a.25.25,0,0,1,.5,0v.5A.25.25,0,0,1,90.88,37.46Z" transform="translate(0 0)"/><path class="cls-1" d="M90.88,34.45a.25.25,0,0,1-.25-.25V32.95a.25.25,0,0,1,.5,0V34.2A.25.25,0,0,1,90.88,34.45Z" transform="translate(0 0)"/><path class="cls-1" d="M90.88,30.69a.25.25,0,0,1-.25-.25v-.5a.25.25,0,0,1,.5,0v.5A.25.25,0,0,1,90.88,30.69Z" transform="translate(0 0)"/><path class="cls-1" d="M94,35.64a.25.25,0,0,1-.25-.25v-.5a.25.25,0,1,1,.5,0v.5A.25.25,0,0,1,94,35.64Z" transform="translate(0 0)"/><path class="cls-1" d="M94,34.09a.25.25,0,0,1-.25-.25v-.53a.25.25,0,1,1,.5,0v.53A.25.25,0,0,1,94,34.09Z" transform="translate(0 0)"/><path class="cls-1" d="M94,32.5a.25.25,0,0,1-.25-.25v-.5a.25.25,0,0,1,.5,0v.5A.25.25,0,0,1,94,32.5Z" transform="translate(0 0)"/><path class="cls-1" d="M62.72,44.73a.25.25,0,0,1-.25-.25V44a.25.25,0,0,1,.5,0v.5A.25.25,0,0,1,62.72,44.73Z" transform="translate(0 0)"/><path class="cls-1" d="M62.72,42.15a.25.25,0,0,1-.25-.25v-1a.25.25,0,0,1,.5,0v1A.25.25,0,0,1,62.72,42.15Zm0-3.12a.25.25,0,0,1-.25-.25v-1a.25.25,0,1,1,.5,0v1a.25.25,0,0,1-.25.22Zm0-3.12a.25.25,0,0,1-.25-.25v-1a.25.25,0,0,1,.5,0v1a.25.25,0,0,1-.25.24Zm0-3.12a.25.25,0,0,1-.25-.25v-1a.25.25,0,0,1,.5,0v1a.25.25,0,0,1-.25.24Zm0-3.12a.25.25,0,0,1-.25-.25v-1a.25.25,0,0,1,.5,0v1a.25.25,0,0,1-.25.24Zm0-3.12a.25.25,0,0,1-.25-.25v-1a.25.25,0,1,1,.5,0v1a.25.25,0,0,1-.25.24Z" transform="translate(0 0)"/><path class="cls-1" d="M62.72,23.42a.25.25,0,0,1-.25-.25v-.5a.25.25,0,0,1,.5,0v.5A.25.25,0,0,1,62.72,23.42Z" transform="translate(0 0)"/><path class="cls-1" d="M65.8,38.67a.25.25,0,0,1-.25-.25v-.5a.25.25,0,0,1,.5,0v.5A.25.25,0,0,1,65.8,38.67Z" transform="translate(0 0)"/><path class="cls-1" d="M65.8,36a.25.25,0,0,1-.25-.25V34.66a.25.25,0,0,1,.5,0v1.09A.25.25,0,0,1,65.8,36Zm0-3.26a.25.25,0,0,1-.25-.25V31.4a.25.25,0,0,1,.5,0v1.09a.25.25,0,0,1-.25.25Z" transform="translate(0 0)"/><path class="cls-1" d="M65.8,29.48a.25.25,0,0,1-.25-.25v-.5a.25.25,0,1,1,.5,0v.5A.25.25,0,0,1,65.8,29.48Z" transform="translate(0 0)"/><path class="cls-1" d="M97.63,27.66a.25.25,0,0,1-.25-.25v-.5a.25.25,0,1,1,.5,0v.5A.25.25,0,0,1,97.63,27.66Z" transform="translate(0 0)"/><path class="cls-1" d="M97.63,37.75a.25.25,0,0,1-.25-.25V36.38a.25.25,0,0,1,.5,0V37.5A.25.25,0,0,1,97.63,37.75Zm0-3.36a.25.25,0,0,1-.25-.25V33a.25.25,0,0,1,.5,0v1.12a.25.25,0,0,1-.24.26h0Zm0-3.36a.25.25,0,0,1-.25-.25V29.65a.25.25,0,1,1,.5,0v1.12a.25.25,0,0,1-.25.23Z" transform="translate(0 0)"/><path class="cls-1" d="M97.63,40.49a.25.25,0,0,1-.25-.25v-.5a.25.25,0,0,1,.5,0v.5A.25.25,0,0,1,97.63,40.49Z" transform="translate(0 0)"/><path class="cls-1" d="M100.71,36.25a.25.25,0,0,1-.25-.25v-.5a.25.25,0,0,1,.5,0V36A.25.25,0,0,1,100.71,36.25Z" transform="translate(0 0)"/><path class="cls-1" d="M100.71,34.21a.25.25,0,0,1-.25-.25v-.77a.25.25,0,0,1,.5,0V34A.25.25,0,0,1,100.71,34.21Z" transform="translate(0 0)"/><path class="cls-1" d="M100.71,31.9a.25.25,0,0,1-.25-.25v-.5a.25.25,0,1,1,.5,0v.5A.25.25,0,0,1,100.71,31.9Z" transform="translate(0 0)"/><path class="cls-1" d="M103.79,35.64a.25.25,0,0,1-.25-.25v-.5a.25.25,0,1,1,.5,0v.5A.25.25,0,0,1,103.79,35.64Z" transform="translate(0 0)"/><path class="cls-1" d="M103.79,34.09a.25.25,0,0,1-.25-.25v-.53a.25.25,0,1,1,.5,0v.53A.25.25,0,0,1,103.79,34.09Z" transform="translate(0 0)"/><path class="cls-1" d="M103.79,32.5a.25.25,0,0,1-.25-.25v-.5a.25.25,0,0,1,.5,0v.5A.25.25,0,0,1,103.79,32.5Z" transform="translate(0 0)"/><path class="cls-1" d="M131.38,39.88a.25.25,0,0,1-.25-.25v-.5a.25.25,0,0,1,.5,0v.5A.25.25,0,0,1,131.38,39.88Z" transform="translate(0 0)"/><path class="cls-1" d="M131.38,37.36a.25.25,0,0,1-.25-.25v-1a.25.25,0,1,1,.5,0v1A.25.25,0,0,1,131.38,37.36Zm0-3a.25.25,0,0,1-.25-.25v-1a.25.25,0,1,1,.5,0v1a.25.25,0,0,1-.25.22Zm0-3a.25.25,0,0,1-.25-.25V30a.25.25,0,0,1,.5,0v1a.25.25,0,0,1-.19.29h-.06Z" transform="translate(0 0)"/><path class="cls-1" d="M131.38,28.26a.25.25,0,0,1-.25-.25v-.5a.25.25,0,0,1,.5,0V28a.25.25,0,0,1-.24.26Z" transform="translate(0 0)"/><path class="cls-1" d="M106.88,35a.25.25,0,0,1-.25-.25v-.5a.25.25,0,1,1,.5,0v.5A.25.25,0,0,1,106.88,35Z" transform="translate(0 0)"/><path class="cls-1" d="M106.88,33.11a.25.25,0,0,1-.25-.25v-.5a.25.25,0,0,1,.5,0v.5A.25.25,0,0,1,106.88,33.11Z" transform="translate(0 0)"/><path class="cls-1" d="M200.47,32.5a.25.25,0,0,1-.25-.25v-.5a.25.25,0,0,1,.5,0v.5A.25.25,0,0,1,200.47,32.5Z" transform="translate(0 0)"/><path class="cls-1" d="M200.47,34.09a.25.25,0,0,1-.25-.25v-.53a.25.25,0,1,1,.5,0v.53A.25.25,0,0,1,200.47,34.09Z" transform="translate(0 0)"/><path class="cls-1" d="M200.47,35.64a.25.25,0,0,1-.25-.25v-.5a.25.25,0,1,1,.5,0v.5A.25.25,0,0,1,200.47,35.64Z" transform="translate(0 0)"/><path class="cls-1" d="M196.8,26.45a.25.25,0,0,1-.25-.25v-.5a.25.25,0,0,1,.5,0v.5A.25.25,0,0,1,196.8,26.45Z" transform="translate(0 0)"/><path class="cls-1" d="M196.8,39.09a.25.25,0,0,1-.25-.25v-1a.25.25,0,1,1,.5,0v1A.25.25,0,0,1,196.8,39.09Zm0-3.16a.25.25,0,0,1-.25-.25v-1a.25.25,0,0,1,.5,0v1A.25.25,0,0,1,196.8,35.93Zm0-3.16a.25.25,0,0,1-.25-.25V31.46a.25.25,0,0,1,.5,0v1a.25.25,0,0,1-.24.26Zm0-3.16a.25.25,0,0,1-.25-.25V28.3a.25.25,0,0,1,.5,0v1a.25.25,0,0,1-.24.26Z" transform="translate(0 0)"/><path class="cls-1" d="M196.8,41.7a.25.25,0,0,1-.25-.25v-.5a.25.25,0,0,1,.5,0v.5A.25.25,0,0,1,196.8,41.7Z" transform="translate(0 0)"/><path class="cls-1" d="M190.64,32.5a.25.25,0,0,1-.25-.25v-.5a.25.25,0,0,1,.5,0v.5A.25.25,0,0,1,190.64,32.5Z" transform="translate(0 0)"/><path class="cls-1" d="M190.64,34.09a.25.25,0,0,1-.25-.25v-.53a.25.25,0,1,1,.5,0v.53A.25.25,0,0,1,190.64,34.09Z" transform="translate(0 0)"/><path class="cls-1" d="M190.64,35.64a.25.25,0,0,1-.25-.25v-.5a.25.25,0,1,1,.5,0v.5A.25.25,0,0,1,190.64,35.64Z" transform="translate(0 0)"/><path class="cls-1" d="M110,40.73a.25.25,0,0,1-.25-.25V40a.25.25,0,0,1,.5,0v.5A.25.25,0,0,1,110,40.73Z" transform="translate(0 0)"/><path class="cls-1" d="M110,38.4a.25.25,0,0,1-.25-.25v-.92a.25.25,0,0,1,.5,0v.92A.25.25,0,0,1,110,38.4Zm0-2.75a.25.25,0,0,1-.25-.25v-.92a.25.25,0,0,1,.5,0v.92A.25.25,0,0,1,110,35.65Zm0-2.75a.25.25,0,0,1-.25-.25v-.92a.25.25,0,0,1,.5,0v.92a.25.25,0,0,1-.24.26h0Zm0-2.75a.25.25,0,0,1-.25-.25V29a.25.25,0,0,1,.5,0v.92a.25.25,0,0,1-.25.24Z" transform="translate(0 0)"/><path class="cls-1" d="M110,27.42a.25.25,0,0,1-.25-.25v-.5a.25.25,0,0,1,.5,0v.5A.25.25,0,0,1,110,27.42Z" transform="translate(0 0)"/><path class="cls-1" d="M113,47.76a.25.25,0,0,1-.25-.25V47a.25.25,0,0,1,.5,0v.5a.25.25,0,0,1-.24.26Z" transform="translate(0 0)"/><path class="cls-1" d="M113,45.19a.25.25,0,0,1-.25-.25v-1a.25.25,0,0,1,.5,0v1A.25.25,0,0,1,113,45.19Zm0-3.1a.25.25,0,0,1-.25-.25v-1a.25.25,0,1,1,.5,0v1A.25.25,0,0,1,113,42.09Zm0-3.1a.25.25,0,0,1-.25-.25v-1a.25.25,0,1,1,.5,0v1A.25.25,0,0,1,113,39h0Zm0-3.1a.25.25,0,0,1-.25-.25v-1a.25.25,0,0,1,.5,0v1A.25.25,0,0,1,113,35.89Zm0-3.1a.25.25,0,0,1-.25-.25v-1a.25.25,0,0,1,.5,0v1A.25.25,0,0,1,113,32.79Zm0-3.1a.25.25,0,0,1-.25-.25v-1a.25.25,0,1,1,.5,0v1A.25.25,0,0,1,113,29.69Zm0-3.1a.25.25,0,0,1-.25-.25v-1a.25.25,0,0,1,.5,0v1A.25.25,0,0,1,113,26.59Zm0-3.1a.25.25,0,0,1-.25-.25v-1a.25.25,0,1,1,.5,0v1A.25.25,0,0,1,113,23.49Z" transform="translate(0 0)"/><path class="cls-1" d="M113,20.39a.25.25,0,0,1-.25-.25v-.5a.25.25,0,1,1,.5,0v.5A.25.25,0,0,1,113,20.39Z" transform="translate(0 0)"/><path class="cls-1" d="M116.12,41.7a.25.25,0,0,1-.25-.25v-.5a.25.25,0,1,1,.5,0v.5A.25.25,0,0,1,116.12,41.7Z" transform="translate(0 0)"/><path class="cls-1" d="M116.12,39.09a.25.25,0,0,1-.25-.25v-1a.25.25,0,0,1,.5,0v1A.25.25,0,0,1,116.12,39.09Zm0-3.16a.25.25,0,0,1-.25-.25v-1a.25.25,0,1,1,.5,0v1A.25.25,0,0,1,116.12,35.93Zm0-3.16a.25.25,0,0,1-.25-.25V31.46a.25.25,0,1,1,.5,0v1a.25.25,0,0,1-.24.26Zm0-3.16a.25.25,0,0,1-.25-.25V28.3a.25.25,0,1,1,.5,0v1a.25.25,0,0,1-.24.26Z" transform="translate(0 0)"/><path class="cls-1" d="M116.12,26.45a.25.25,0,0,1-.25-.25v-.5a.25.25,0,1,1,.5,0v.5A.25.25,0,0,1,116.12,26.45Z" transform="translate(0 0)"/><path class="cls-1" d="M119.2,45.33a.25.25,0,0,1-.25-.25v-.5a.25.25,0,1,1,.5,0v.5A.25.25,0,0,1,119.2,45.33Z" transform="translate(0 0)"/><path class="cls-1" d="M119.2,42.92a.25.25,0,0,1-.25-.25v-1a.25.25,0,1,1,.5,0v1A.25.25,0,0,1,119.2,42.92Zm0-2.87a.25.25,0,0,1-.25-.25v-1a.25.25,0,0,1,.5,0v1a.25.25,0,0,1-.25.2Zm0-2.87a.25.25,0,0,1-.25-.25V36a.25.25,0,0,1,.5,0v1a.25.25,0,0,1-.25.17Zm0-2.87a.25.25,0,0,1-.25-.25v-1a.25.25,0,1,1,.5,0v1a.25.25,0,0,1-.25.24Zm0-2.87a.25.25,0,0,1-.25-.25v-1a.25.25,0,0,1,.5,0v1a.25.25,0,0,1-.25.24Zm0-2.87a.25.25,0,0,1-.25-.25v-1a.25.25,0,1,1,.5,0v1a.25.25,0,0,1-.25.24Zm0-2.87a.25.25,0,0,1-.25-.25v-1a.25.25,0,1,1,.5,0v1a.25.25,0,0,1-.25.23Z" transform="translate(0 0)"/><path class="cls-1" d="M119.2,22.81a.25.25,0,0,1-.25-.25v-.5a.25.25,0,0,1,.5,0v.5A.25.25,0,0,1,119.2,22.81Z" transform="translate(0 0)"/><path class="cls-1" d="M122.28,53.82a.25.25,0,0,1-.25-.25v-.5a.25.25,0,0,1,.5,0v.5A.25.25,0,0,1,122.28,53.82Z" transform="translate(0 0)"/><path class="cls-1" d="M122.28,51.26A.25.25,0,0,1,122,51V50a.25.25,0,0,1,.5,0v1A.25.25,0,0,1,122.28,51.26Zm0-3.08a.25.25,0,0,1-.25-.25v-1a.25.25,0,0,1,.5,0v1a.25.25,0,0,1-.24.26h0Zm0-3.08a.25.25,0,0,1-.25-.25v-1a.25.25,0,0,1,.5,0v1a.25.25,0,0,1-.24.26h0Zm0-3.08a.25.25,0,0,1-.25-.25v-1a.25.25,0,1,1,.5,0v1a.25.25,0,0,1-.25.23Zm0-3.08a.25.25,0,0,1-.25-.25v-1a.25.25,0,0,1,.5,0v1a.25.25,0,0,1-.18.3h-.07Zm0-3.08a.25.25,0,0,1-.25-.25v-1a.25.25,0,0,1,.5,0v1a.25.25,0,0,1-.23.27h0Zm0-3.08a.25.25,0,0,1-.25-.25v-1a.25.25,0,1,1,.5,0v1a.25.25,0,0,1-.23.27h0Zm0-3.08a.25.25,0,0,1-.25-.25v-1a.25.25,0,0,1,.5,0v1a.25.25,0,0,1-.23.27h0Zm0-3.08a.25.25,0,0,1-.25-.25v-1a.25.25,0,0,1,.5,0v1a.25.25,0,0,1-.23.27h0Zm0-3.08a.25.25,0,0,1-.25-.25v-1a.25.25,0,1,1,.5,0v1a.25.25,0,0,1-.23.27h0Zm0-3.08a.25.25,0,0,1-.25-.25v-1a.25.25,0,1,1,.5,0v1a.25.25,0,0,1-.22.28h0Zm0-3.08a.25.25,0,0,1-.25-.25v-1a.25.25,0,0,1,.5,0v1a.25.25,0,0,1-.22.28h0Z" transform="translate(0 0)"/><path class="cls-1" d="M122.28,14.33a.25.25,0,0,1-.25-.25v-.5a.25.25,0,0,1,.5,0v.5A.25.25,0,0,1,122.28,14.33Z" transform="translate(0 0)"/><path class="cls-1" d="M125.37,51.39a.25.25,0,0,1-.25-.25v-.5a.25.25,0,0,1,.5,0v.5A.25.25,0,0,1,125.37,51.39Z" transform="translate(0 0)"/><path class="cls-1" d="M125.37,48.94a.25.25,0,0,1-.25-.25v-1a.25.25,0,1,1,.5,0v1A.25.25,0,0,1,125.37,48.94Zm0-2.93a.25.25,0,0,1-.25-.25v-1a.25.25,0,0,1,.5,0v1a.25.25,0,0,1-.25.24Zm0-2.93a.25.25,0,0,1-.25-.25v-1a.25.25,0,0,1,.5,0v1a.25.25,0,0,1-.24.26h0Zm0-2.93a.25.25,0,0,1-.25-.25v-1a.25.25,0,0,1,.5,0v1a.25.25,0,0,1-.24.26h0Zm0-2.93a.25.25,0,0,1-.25-.25V36a.25.25,0,1,1,.5,0v1a.25.25,0,0,1-.25.24Zm0-2.93a.25.25,0,0,1-.25-.25V33a.25.25,0,1,1,.5,0v1a.25.25,0,0,1-.23.27h0Zm0-2.93a.25.25,0,0,1-.25-.25v-1a.25.25,0,1,1,.5,0v1a.25.25,0,0,1-.23.27h0Zm0-2.93a.25.25,0,0,1-.25-.25v-1a.25.25,0,0,1,.5,0v1a.25.25,0,0,1-.22.28h0Zm0-2.93a.25.25,0,0,1-.25-.25v-1a.25.25,0,0,1,.5,0v1a.25.25,0,0,1-.22.28h0Zm0-2.93a.25.25,0,0,1-.25-.25v-1a.25.25,0,0,1,.5,0v1a.25.25,0,0,1-.22.28h0Zm0-2.93a.25.25,0,0,1-.25-.25v-1a.25.25,0,1,1,.5,0v1a.25.25,0,0,1-.21.29h0Z" transform="translate(0 0)"/><path class="cls-1" d="M125.37,16.75a.25.25,0,0,1-.25-.25V16a.25.25,0,1,1,.5,0v.5A.25.25,0,0,1,125.37,16.75Z" transform="translate(0 0)"/><path class="cls-1" d="M128.45,47.76a.25.25,0,0,1-.25-.25V47a.25.25,0,0,1,.5,0v.5a.25.25,0,0,1-.24.26Z" transform="translate(0 0)"/><path class="cls-1" d="M128.45,45.19a.25.25,0,0,1-.25-.25v-1a.25.25,0,0,1,.5,0v1A.25.25,0,0,1,128.45,45.19Zm0-3.1a.25.25,0,0,1-.25-.25v-1a.25.25,0,1,1,.5,0v1A.25.25,0,0,1,128.45,42.09Zm0-3.1a.25.25,0,0,1-.25-.25v-1a.25.25,0,0,1,.5,0v1a.25.25,0,0,1-.24.26h0Zm0-3.1a.25.25,0,0,1-.25-.25v-1a.25.25,0,0,1,.5,0v1A.25.25,0,0,1,128.45,35.89Zm0-3.1a.25.25,0,0,1-.25-.25v-1a.25.25,0,0,1,.5,0v1A.25.25,0,0,1,128.45,32.79Zm0-3.1a.25.25,0,0,1-.25-.25v-1a.25.25,0,0,1,.5,0v1A.25.25,0,0,1,128.45,29.69Zm0-3.1a.25.25,0,0,1-.25-.25v-1a.25.25,0,0,1,.5,0v1A.25.25,0,0,1,128.45,26.59Zm0-3.1a.25.25,0,0,1-.25-.25v-1a.25.25,0,1,1,.5,0v1A.25.25,0,0,1,128.45,23.49Z" transform="translate(0 0)"/><path class="cls-1" d="M128.45,20.39a.25.25,0,0,1-.25-.25v-.5a.25.25,0,1,1,.5,0v.5A.25.25,0,0,1,128.45,20.39Z" transform="translate(0 0)"/><path class="cls-1" d="M134.61,51.39a.25.25,0,0,1-.25-.25v-.5a.25.25,0,1,1,.5,0v.5A.25.25,0,0,1,134.61,51.39Z" transform="translate(0 0)"/><path class="cls-1" d="M134.61,48.94a.25.25,0,0,1-.25-.25v-1a.25.25,0,0,1,.5,0v1A.25.25,0,0,1,134.61,48.94Zm0-2.93a.25.25,0,0,1-.25-.25v-1a.25.25,0,0,1,.5,0v1a.25.25,0,0,1-.25.24Zm0-2.93a.25.25,0,0,1-.25-.25v-1a.25.25,0,1,1,.5,0v1a.25.25,0,0,1-.24.26h0Zm0-2.93a.25.25,0,0,1-.25-.25v-1a.25.25,0,0,1,.5,0v1a.25.25,0,0,1-.24.26h0Zm0-2.93a.25.25,0,0,1-.25-.25V36a.25.25,0,0,1,.5,0v1a.25.25,0,0,1-.25.24Zm0-2.93a.25.25,0,0,1-.25-.25V33a.25.25,0,0,1,.5,0v1a.25.25,0,0,1-.23.27h0Zm0-2.93a.25.25,0,0,1-.25-.25v-1a.25.25,0,0,1,.5,0v1a.25.25,0,0,1-.23.27h0Zm0-2.93a.25.25,0,0,1-.25-.25v-1a.25.25,0,1,1,.5,0v1a.25.25,0,0,1-.22.28h0Zm0-2.93a.25.25,0,0,1-.25-.25v-1a.25.25,0,1,1,.5,0v1a.25.25,0,0,1-.22.28h0Zm0-2.93a.25.25,0,0,1-.25-.25v-1a.25.25,0,0,1,.5,0v1a.25.25,0,0,1-.22.28h0Zm0-2.93a.25.25,0,0,1-.25-.25v-1a.25.25,0,0,1,.5,0v1a.25.25,0,0,1-.21.29h0Z" transform="translate(0 0)"/><path class="cls-1" d="M134.61,16.75a.25.25,0,0,1-.25-.25V16a.25.25,0,0,1,.5,0v.5A.25.25,0,0,1,134.61,16.75Z" transform="translate(0 0)"/><path class="cls-1" d="M137.69,58.06a.25.25,0,0,1-.25-.25v-.5a.25.25,0,1,1,.5,0v.5A.25.25,0,0,1,137.69,58.06Z" transform="translate(0 0)"/><path class="cls-1" d="M137.69,55.54a.25.25,0,0,1-.25-.25v-1a.25.25,0,1,1,.5,0v1A.25.25,0,0,1,137.69,55.54Zm0-3a.25.25,0,0,1-.25-.25v-1a.25.25,0,1,1,.5,0v1a.25.25,0,0,1-.25.22Zm0-3a.25.25,0,0,1-.25-.25v-1a.25.25,0,1,1,.5,0v1a.25.25,0,0,1-.25.19Zm0-3a.25.25,0,0,1-.25-.25v-1a.25.25,0,1,1,.5,0v1a.25.25,0,0,1-.25.16Zm0-3a.25.25,0,0,1-.25-.25v-1a.25.25,0,1,1,.5,0v1a.25.25,0,0,1-.25.13Zm0-3a.25.25,0,0,1-.25-.25v-1a.25.25,0,1,1,.5,0v1a.25.25,0,0,1-.25.1Zm0-3a.25.25,0,0,1-.25-.25v-1a.25.25,0,1,1,.5,0v1a.25.25,0,0,1-.25.07Zm0-3a.25.25,0,0,1-.25-.25v-1a.25.25,0,1,1,.5,0v1a.25.25,0,0,1-.25,0Zm0-3a.25.25,0,0,1-.25-.25V30a.25.25,0,0,1,.5,0v1a.25.25,0,0,1-.19.29h-.06Zm0-3a.25.25,0,0,1-.25-.25V27a.25.25,0,0,1,.5,0v1a.25.25,0,0,1-.23.27h0Zm0-3a.25.25,0,0,1-.25-.25V24a.25.25,0,0,1,.5,0v1a.25.25,0,0,1-.25.24Zm0-3a.25.25,0,0,1-.25-.25v-1a.25.25,0,1,1,.5,0v1a.25.25,0,0,1-.25-.08Zm0-3a.25.25,0,0,1-.25-.25v-1a.25.25,0,1,1,.5,0v1a.25.25,0,0,1-.25-.11Zm0-3a.25.25,0,0,1-.25-.25v-1a.25.25,0,1,1,.5,0v1a.25.25,0,0,1-.25-.14Zm0-3a.25.25,0,0,1-.25-.25v-1a.25.25,0,1,1,.5,0v1a.25.25,0,0,1-.25-.17Z" transform="translate(0 0)"/><path class="cls-1" d="M137.69,10.09a.25.25,0,0,1-.25-.25v-.5a.25.25,0,0,1,.5,0v.5A.25.25,0,0,1,137.69,10.09Z" transform="translate(0 0)"/><path class="cls-1" d="M159.41,35.64a.25.25,0,0,1-.25-.25v-.5a.25.25,0,1,1,.5,0v.5A.25.25,0,0,1,159.41,35.64Z" transform="translate(0 0)"/><path class="cls-1" d="M159.41,34.09a.25.25,0,0,1-.25-.25v-.53a.25.25,0,1,1,.5,0v.53A.25.25,0,0,1,159.41,34.09Z" transform="translate(0 0)"/><path class="cls-1" d="M159.41,32.5a.25.25,0,0,1-.25-.25v-.5a.25.25,0,0,1,.5,0v.5A.25.25,0,0,1,159.41,32.5Z" transform="translate(0 0)"/><path class="cls-1" d="M162.64,37.46a.25.25,0,0,1-.25-.25v-.5a.25.25,0,0,1,.5,0v.5A.25.25,0,0,1,162.64,37.46Z" transform="translate(0 0)"/><path class="cls-1" d="M162.64,34.45a.25.25,0,0,1-.25-.25V32.95a.25.25,0,0,1,.5,0V34.2A.25.25,0,0,1,162.64,34.45Z" transform="translate(0 0)"/><path class="cls-1" d="M162.64,30.69a.25.25,0,0,1-.25-.25v-.5a.25.25,0,0,1,.5,0v.5A.25.25,0,0,1,162.64,30.69Z" transform="translate(0 0)"/><path class="cls-1" d="M165.72,33.72a.25.25,0,0,1-.25-.25V33a.25.25,0,0,1,.5,0v.5A.25.25,0,0,1,165.72,33.72Z" transform="translate(0 0)"/><path class="cls-1" d="M165.72,34.43a.25.25,0,0,1-.25-.25v-.5a.25.25,0,0,1,.5,0v.5A.25.25,0,0,1,165.72,34.43Z" transform="translate(0 0)"/><path class="cls-1" d="M203.92,33.72a.25.25,0,0,1-.25-.25V33a.25.25,0,0,1,.5,0v.5A.25.25,0,0,1,203.92,33.72Z" transform="translate(0 0)"/><path class="cls-1" d="M203.92,34.43a.25.25,0,0,1-.25-.25v-.5a.25.25,0,0,1,.5,0v.5A.25.25,0,0,1,203.92,34.43Z" transform="translate(0 0)"/><path class="cls-1" d="M.25,32.5A.25.25,0,0,1,0,32.25v-.5a.25.25,0,0,1,.5,0v.5A.25.25,0,0,1,.25,32.5Z" transform="translate(0 0)"/><path class="cls-1" d="M.25,34.09A.25.25,0,0,1,0,33.84v-.53a.25.25,0,0,1,.5,0v.53A.25.25,0,0,1,.25,34.09Z" transform="translate(0 0)"/><path class="cls-1" d="M.25,35.64A.25.25,0,0,1,0,35.39v-.5a.25.25,0,0,1,.5,0v.5A.25.25,0,0,1,.25,35.64Z" transform="translate(0 0)"/><path class="cls-1" d="M3.69,33.72a.25.25,0,0,1-.25-.25V33a.25.25,0,0,1,.5,0v.5A.25.25,0,0,1,3.69,33.72Z" transform="translate(0 0)"/><path class="cls-1" d="M3.69,34.43a.25.25,0,0,1-.25-.25v-.5a.25.25,0,0,1,.5,0v.5A.25.25,0,0,1,3.69,34.43Z" transform="translate(0 0)"/><path class="cls-1" d="M193.62,37.46a.25.25,0,0,1-.25-.25v-.5a.25.25,0,0,1,.5,0v.5A.25.25,0,0,1,193.62,37.46Z" transform="translate(0 0)"/><path class="cls-1" d="M193.62,34.45a.25.25,0,0,1-.25-.25V32.95a.25.25,0,0,1,.5,0V34.2A.25.25,0,0,1,193.62,34.45Z" transform="translate(0 0)"/><path class="cls-1" d="M193.62,30.69a.25.25,0,0,1-.25-.25v-.5a.25.25,0,0,1,.5,0v.5A.25.25,0,0,1,193.62,30.69Z" transform="translate(0 0)"/><path class="cls-1" d="M187.33,33.72a.25.25,0,0,1-.25-.25V33a.25.25,0,0,1,.5,0v.5A.25.25,0,0,1,187.33,33.72Z" transform="translate(0 0)"/><path class="cls-1" d="M187.33,34.43a.25.25,0,0,1-.25-.25v-.5a.25.25,0,0,1,.5,0v.5A.25.25,0,0,1,187.33,34.43Z" transform="translate(0 0)"/><path class="cls-1" d="M140.78,67.15a.25.25,0,0,1-.25-.25v-.5a.25.25,0,0,1,.5,0v.5A.25.25,0,0,1,140.78,67.15Z" transform="translate(0 0)"/><path class="cls-1" d="M140.78,64.63a.25.25,0,0,1-.25-.25v-1a.25.25,0,1,1,.5,0v1A.25.25,0,0,1,140.78,64.63Zm0-3a.25.25,0,0,1-.25-.25v-1a.25.25,0,1,1,.5,0v1a.25.25,0,0,1-.25.22Zm0-3a.25.25,0,0,1-.25-.25v-1a.25.25,0,1,1,.5,0v1a.25.25,0,0,1-.25.19Zm0-3a.25.25,0,0,1-.25-.25v-1a.25.25,0,1,1,.5,0v1a.25.25,0,0,1-.25.16Zm0-3a.25.25,0,0,1-.25-.25v-1a.25.25,0,1,1,.5,0v1a.25.25,0,0,1-.25.13Zm0-3a.25.25,0,0,1-.25-.25v-1a.25.25,0,1,1,.5,0v1a.25.25,0,0,1-.25.1Zm0-3a.25.25,0,0,1-.25-.25v-1a.25.25,0,1,1,.5,0v1a.25.25,0,0,1-.25.07Zm0-3a.25.25,0,0,1-.25-.25v-1a.25.25,0,1,1,.5,0v1a.25.25,0,0,1-.25,0Zm0-3a.25.25,0,0,1-.25-.25v-1a.25.25,0,1,1,.5,0v1a.25.25,0,0,1-.25,0Zm0-3a.25.25,0,0,1-.25-.25v-1a.25.25,0,1,1,.5,0v1a.25.25,0,0,1-.25,0Zm0-3a.25.25,0,0,1-.25-.25v-1a.25.25,0,1,1,.5,0v1a.25.25,0,0,1-.25,0Zm0-3a.25.25,0,0,1-.25-.25V30a.25.25,0,0,1,.5,0v1a.25.25,0,0,1-.19.29h-.06Zm0-3a.25.25,0,0,1-.25-.25V27a.25.25,0,0,1,.5,0v1a.25.25,0,0,1-.23.27h0Zm0-3a.25.25,0,0,1-.25-.25V24a.25.25,0,0,1,.5,0v1a.25.25,0,0,1-.25.24Zm0-3a.25.25,0,0,1-.25-.25v-1a.25.25,0,1,1,.5,0v1a.25.25,0,0,1-.25-.17Zm0-3a.25.25,0,0,1-.25-.25v-1a.25.25,0,1,1,.5,0v1a.25.25,0,0,1-.25-.2Zm0-3a.25.25,0,0,1-.25-.25v-1a.25.25,0,1,1,.5,0v1a.25.25,0,0,1-.25-.23Zm0-3a.25.25,0,0,1-.25-.25v-1a.25.25,0,1,1,.5,0v1a.25.25,0,0,1-.25-.25h0Zm0-3a.25.25,0,0,1-.25-.25v-1a.25.25,0,1,1,.5,0v1a.25.25,0,0,1-.25-.29Zm0-3a.25.25,0,0,1-.25-.25v-1a.25.25,0,1,1,.5,0v1a.25.25,0,0,1-.25-.32Zm0-3a.25.25,0,0,1-.25-.25v-1a.25.25,0,1,1,.5,0v1a.25.25,0,0,1-.25-.38Z" transform="translate(0 0)"/><path class="cls-1" d="M140.78,1a.25.25,0,0,1-.25-.25V.25a.25.25,0,0,1,.5,0v.5A.25.25,0,0,1,140.78,1Z" transform="translate(0 0)"/><path class="cls-1" d="M143.86,51.39a.25.25,0,0,1-.25-.25v-.5a.25.25,0,1,1,.5,0v.5A.25.25,0,0,1,143.86,51.39Z" transform="translate(0 0)"/><path class="cls-1" d="M143.86,48.94a.25.25,0,0,1-.25-.25v-1a.25.25,0,0,1,.5,0v1A.25.25,0,0,1,143.86,48.94Zm0-2.93a.25.25,0,0,1-.25-.25v-1a.25.25,0,0,1,.5,0v1a.25.25,0,0,1-.25.24Zm0-2.93a.25.25,0,0,1-.25-.25v-1a.25.25,0,1,1,.5,0v1a.25.25,0,0,1-.24.26h0Zm0-2.93a.25.25,0,0,1-.25-.25v-1a.25.25,0,0,1,.5,0v1a.25.25,0,0,1-.24.26h0Zm0-2.93a.25.25,0,0,1-.25-.25V36a.25.25,0,0,1,.5,0v1a.25.25,0,0,1-.25.24Zm0-2.93a.25.25,0,0,1-.25-.25V33a.25.25,0,0,1,.5,0v1a.25.25,0,0,1-.23.27h0Zm0-2.93a.25.25,0,0,1-.25-.25v-1a.25.25,0,0,1,.5,0v1a.25.25,0,0,1-.23.27h0Zm0-2.93a.25.25,0,0,1-.25-.25v-1a.25.25,0,1,1,.5,0v1a.25.25,0,0,1-.22.28h0Zm0-2.93a.25.25,0,0,1-.25-.25v-1a.25.25,0,1,1,.5,0v1a.25.25,0,0,1-.22.28h0Zm0-2.93a.25.25,0,0,1-.25-.25v-1a.25.25,0,0,1,.5,0v1a.25.25,0,0,1-.22.28h0Zm0-2.93a.25.25,0,0,1-.25-.25v-1a.25.25,0,0,1,.5,0v1a.25.25,0,0,1-.21.29h0Z" transform="translate(0 0)"/><path class="cls-1" d="M143.86,16.75a.25.25,0,0,1-.25-.25V16a.25.25,0,0,1,.5,0v.5A.25.25,0,0,1,143.86,16.75Z" transform="translate(0 0)"/><path class="cls-1" d="M146.94,44.73a.25.25,0,0,1-.25-.25V44a.25.25,0,0,1,.5,0v.5A.25.25,0,0,1,146.94,44.73Z" transform="translate(0 0)"/><path class="cls-1" d="M146.94,42.15a.25.25,0,0,1-.25-.25v-1a.25.25,0,0,1,.5,0v1A.25.25,0,0,1,146.94,42.15Zm0-3.12a.25.25,0,0,1-.25-.25v-1a.25.25,0,1,1,.5,0v1a.25.25,0,0,1-.25.22Zm0-3.12a.25.25,0,0,1-.25-.25v-1a.25.25,0,0,1,.5,0v1a.25.25,0,0,1-.25.24Zm0-3.12a.25.25,0,0,1-.25-.25v-1a.25.25,0,0,1,.5,0v1a.25.25,0,0,1-.25.24Zm0-3.12a.25.25,0,0,1-.25-.25v-1a.25.25,0,1,1,.5,0v1a.25.25,0,0,1-.25.24Zm0-3.12a.25.25,0,0,1-.25-.25v-1a.25.25,0,0,1,.5,0v1a.25.25,0,0,1-.25.24Z" transform="translate(0 0)"/><path class="cls-1" d="M146.94,23.42a.25.25,0,0,1-.25-.25v-.5a.25.25,0,0,1,.5,0v.5A.25.25,0,0,1,146.94,23.42Z" transform="translate(0 0)"/><path class="cls-1" d="M150,38.67a.25.25,0,0,1-.25-.25v-.5a.25.25,0,1,1,.5,0v.5A.25.25,0,0,1,150,38.67Z" transform="translate(0 0)"/><path class="cls-1" d="M150,36a.25.25,0,0,1-.25-.25V34.66a.25.25,0,0,1,.5,0v1.09A.25.25,0,0,1,150,36Zm0-3.26a.25.25,0,0,1-.25-.25V31.4a.25.25,0,1,1,.5,0v1.09a.25.25,0,0,1-.25.25Z" transform="translate(0 0)"/><path class="cls-1" d="M150,29.48a.25.25,0,0,1-.25-.25v-.5a.25.25,0,0,1,.5,0v.5A.25.25,0,0,1,150,29.48Z" transform="translate(0 0)"/><path class="cls-1" d="M168.94,37.46a.25.25,0,0,1-.25-.25v-.5a.25.25,0,0,1,.5,0v.5A.25.25,0,0,1,168.94,37.46Z" transform="translate(0 0)"/><path class="cls-1" d="M168.94,34.45a.25.25,0,0,1-.25-.25V32.95a.25.25,0,0,1,.5,0V34.2A.25.25,0,0,1,168.94,34.45Z" transform="translate(0 0)"/><path class="cls-1" d="M168.94,30.69a.25.25,0,0,1-.25-.25v-.5a.25.25,0,0,1,.5,0v.5A.25.25,0,0,1,168.94,30.69Z" transform="translate(0 0)"/><path class="cls-1" d="M172,44.73a.25.25,0,0,1-.25-.25V44a.25.25,0,0,1,.5,0v.5A.25.25,0,0,1,172,44.73Z" transform="translate(0 0)"/><path class="cls-1" d="M172,42.15a.25.25,0,0,1-.25-.25v-1a.25.25,0,0,1,.5,0v1A.25.25,0,0,1,172,42.15ZM172,39a.25.25,0,0,1-.25-.25v-1a.25.25,0,0,1,.5,0v1A.25.25,0,0,1,172,39Zm0-3.12a.25.25,0,0,1-.25-.25v-1a.25.25,0,0,1,.5,0v1a.25.25,0,0,1-.23.27h0Zm0-3.12a.25.25,0,0,1-.25-.25v-1a.25.25,0,1,1,.5,0v1a.25.25,0,0,1-.23.27h0Zm0-3.12a.25.25,0,0,1-.25-.25v-1a.25.25,0,0,1,.5,0v1a.25.25,0,0,1-.23.27h0Zm0-3.12a.25.25,0,0,1-.25-.25v-1a.25.25,0,0,1,.5,0v1a.25.25,0,0,1-.23.27h0Z" transform="translate(0 0)"/><path class="cls-1" d="M172,23.42a.25.25,0,0,1-.25-.25v-.5a.25.25,0,0,1,.5,0v.5A.25.25,0,0,1,172,23.42Z" transform="translate(0 0)"/><path class="cls-1" d="M175.1,38.06a.25.25,0,0,1-.25-.25v-.5a.25.25,0,1,1,.5,0v.5A.25.25,0,0,1,175.1,38.06Z" transform="translate(0 0)"/><path class="cls-1" d="M175.1,35.69a.25.25,0,0,1-.25-.25V34.5a.25.25,0,0,1,.5,0v.94A.25.25,0,0,1,175.1,35.69Zm0-2.81a.25.25,0,0,1-.25-.25V31.7a.25.25,0,0,1,.5,0v.94a.25.25,0,0,1-.25.25Z" transform="translate(0 0)"/><path class="cls-1" d="M175.1,30.08a.25.25,0,0,1-.25-.25v-.5a.25.25,0,1,1,.5,0v.5A.25.25,0,0,1,175.1,30.08Z" transform="translate(0 0)"/><path class="cls-1" d="M178.18,41.7a.25.25,0,0,1-.25-.25v-.5a.25.25,0,0,1,.5,0v.5A.25.25,0,0,1,178.18,41.7Z" transform="translate(0 0)"/><path class="cls-1" d="M178.18,39.09a.25.25,0,0,1-.25-.25v-1a.25.25,0,0,1,.5,0v1A.25.25,0,0,1,178.18,39.09Zm0-3.16a.25.25,0,0,1-.25-.25v-1a.25.25,0,0,1,.5,0v1A.25.25,0,0,1,178.18,35.93Zm0-3.16a.25.25,0,0,1-.25-.25V31.46a.25.25,0,0,1,.5,0v1a.25.25,0,0,1-.24.26Zm0-3.16a.25.25,0,0,1-.25-.25V28.3a.25.25,0,0,1,.5,0v1a.25.25,0,0,1-.24.26Z" transform="translate(0 0)"/><path class="cls-1" d="M178.18,26.45a.25.25,0,0,1-.25-.25v-.5a.25.25,0,0,1,.5,0v.5A.25.25,0,0,1,178.18,26.45Z" transform="translate(0 0)"/><path class="cls-1" d="M181.26,37.46a.25.25,0,0,1-.25-.25v-.5a.25.25,0,0,1,.5,0v.5A.25.25,0,0,1,181.26,37.46Z" transform="translate(0 0)"/><path class="cls-1" d="M181.26,34.45a.25.25,0,0,1-.25-.25V32.95a.25.25,0,0,1,.5,0V34.2A.25.25,0,0,1,181.26,34.45Z" transform="translate(0 0)"/><path class="cls-1" d="M181.26,30.69a.25.25,0,0,1-.25-.25v-.5a.25.25,0,0,1,.5,0v.5A.25.25,0,0,1,181.26,30.69Z" transform="translate(0 0)"/><path class="cls-1" d="M184.34,35.64a.25.25,0,0,1-.25-.25v-.5a.25.25,0,1,1,.5,0v.5A.25.25,0,0,1,184.34,35.64Z" transform="translate(0 0)"/><path class="cls-1" d="M184.34,34.09a.25.25,0,0,1-.25-.25v-.53a.25.25,0,1,1,.5,0v.53A.25.25,0,0,1,184.34,34.09Z" transform="translate(0 0)"/><path class="cls-1" d="M184.34,32.5a.25.25,0,0,1-.25-.25v-.5a.25.25,0,0,1,.5,0v.5A.25.25,0,0,1,184.34,32.5Z" transform="translate(0 0)"/><path class="cls-1" d="M153.1,44.73a.25.25,0,0,1-.25-.25V44a.25.25,0,0,1,.5,0v.5A.25.25,0,0,1,153.1,44.73Z" transform="translate(0 0)"/><path class="cls-1" d="M153.1,42.15a.25.25,0,0,1-.25-.25v-1a.25.25,0,0,1,.5,0v1A.25.25,0,0,1,153.1,42.15Zm0-3.12a.25.25,0,0,1-.25-.25v-1a.25.25,0,1,1,.5,0v1a.25.25,0,0,1-.25.22Zm0-3.12a.25.25,0,0,1-.25-.25v-1a.25.25,0,0,1,.5,0v1a.25.25,0,0,1-.25.24Zm0-3.12a.25.25,0,0,1-.25-.25v-1a.25.25,0,0,1,.5,0v1a.25.25,0,0,1-.25.24Zm0-3.12a.25.25,0,0,1-.25-.25v-1a.25.25,0,1,1,.5,0v1a.25.25,0,0,1-.25.24Zm0-3.12a.25.25,0,0,1-.25-.25v-1a.25.25,0,0,1,.5,0v1a.25.25,0,0,1-.25.24Z" transform="translate(0 0)"/><path class="cls-1" d="M153.1,23.42a.25.25,0,0,1-.25-.25v-.5a.25.25,0,0,1,.5,0v.5A.25.25,0,0,1,153.1,23.42Z" transform="translate(0 0)"/><path class="cls-1" d="M156.18,38.67a.25.25,0,0,1-.25-.25v-.5a.25.25,0,1,1,.5,0v.5A.25.25,0,0,1,156.18,38.67Z" transform="translate(0 0)"/><path class="cls-1" d="M156.18,36a.25.25,0,0,1-.25-.25V34.66a.25.25,0,0,1,.5,0v1.09A.25.25,0,0,1,156.18,36Zm0-3.26a.25.25,0,0,1-.25-.25V31.4a.25.25,0,1,1,.5,0v1.09a.25.25,0,0,1-.25.25Z" transform="translate(0 0)"/><path class="cls-1" d="M156.18,29.48a.25.25,0,0,1-.25-.25v-.5a.25.25,0,0,1,.5,0v.5A.25.25,0,0,1,156.18,29.48Z" transform="translate(0 0)"/></svg>